<svg id="Layer_1" data-name="Layer 1" xmlns="http://www.w3.org/2000/svg" viewBox="0 0 359 140.88">
    <defs>
        <style>.cls-1{fill:#d60812;}.cls-2{fill:none;stroke:#fff;stroke-linecap:round;stroke-linejoin:round;stroke-width:3px;}.cls-3{fill:#0f305e;}</style>
    </defs>
    <title>Artboard 1</title>
    <circle class="cls-1" cx="70.44" cy="70.44" r="70.44" />
    <path class="cls-2" d="M46.93,52.5c.46,14.74,24,16.59,24,.93V21.16s24-.94,24,20.28V51.58c0,16.58,24.89,12,24.89,12S123,47,102.25,47" />
    <path class="cls-2" d="M94,89.27c-.46-14.73-24-16.58-24-.92v32.27s-24,.93-24-20.28V90.2c0-16.59-24.89-12-24.89-12S17.89,94.82,38.64,94.8" />
    <path class="cls-2" d="M88.83,47.38c-14.74.46-16.59,24-.93,24h32.27s.94,24-20.28,24H89.75c-16.58,0-12,24.89-12,24.89s16.61,3.23,16.6-17.52" />
    <path class="cls-2" d="M52.06,94.4c14.73-.46,16.58-24,.92-24H20.71s-.93-24,20.28-24H51.14c16.58,0,12-24.89,12-24.89S46.51,18.34,46.53,39.08" />
    <path class="cls-1" d="M201.12,51.28l-18.41-.05L178.55,60h-5.26l18.63-39.35L210.48,60h-5.2Zm-16.31-4.63,14.21,0-7.1-15.41Z" />
    <path class="cls-1" d="M227.2,38.24h-6.57V60H216V38.24h-5.48v-3.9H216V31.5a10,10,0,0,1,.42-3.21,8.83,8.83,0,0,1,2.94-4.52,8.62,8.62,0,0,1,4.37-1.58,15.49,15.49,0,0,1,5.1.63l-1.47,4.48c-1.79-.48-3.9-.74-5.16.26-1.47,1.1-1.52,3.58-1.52,3.79v3h6.57Z" />
    <path class="cls-1" d="M233.25,70.91V66.59c2.57,0,4.36-.58,5.52-1.74a14,14,0,0,0,2.68-4.15s-9.84-23.41-11.1-26.3h4.74l8.57,20.51,8.15-20.51h4.64c-1.11,2.84-10,25.35-10.58,26.83C243.13,68.54,238.24,70.91,233.25,70.91Z" />
    <path class="cls-1" d="M284.16,34.34V60h-4.84V55.86a12.38,12.38,0,0,1-10.15,5c-7.05,0-12.73-6.16-12.73-13.68a14,14,0,0,1,3.73-9.63,12.52,12.52,0,0,1,19.15,1V34.34Zm-4.89,12.84c0-5.58-4-10-9.16-10s-9.1,4.47-9.1,10,4.05,10,9.1,10S279.27,52.7,279.27,47.18Z" />
    <path class="cls-3" d="M188.89,102h-6.48v17h-9.12V71h21.07a14.73,14.73,0,0,1,14.78,15.46,15.71,15.71,0,0,1-3.78,10.67,14.82,14.82,0,0,1-5.47,3.78l-.47.2L210.56,119H198.88Zm-6.48-9.45h11.27c2.36,0,4-.54,5.13-1.69a6.44,6.44,0,0,0,1.42-4.39,6.51,6.51,0,0,0-1.35-4.25,7,7,0,0,0-5.2-1.76H182.41Z" />
    <path class="cls-3" d="M246.81,102.06l-24.17,5.73a8.57,8.57,0,0,0,14.78-.13l.75-1.42,7.42,3.44-.88,1.56a16.39,16.39,0,0,1-3.91,5h-.07a16,16,0,0,1-6.82,3.51,18.66,18.66,0,0,1-3.84.47,16.68,16.68,0,0,1-8.85-2.63,17.82,17.82,0,0,1-5.47-23.76,16.57,16.57,0,0,1,10.4-7.63,14.26,14.26,0,0,1,3.85-.47,16.22,16.22,0,0,1,8.91,2.63C246.34,93.08,246.81,102.06,246.81,102.06ZM227.3,94.43a9.34,9.34,0,0,0-5.87,7.29L237.15,98A8.55,8.55,0,0,0,227.3,94.43Z" />
    <path class="cls-3" d="M271.78,100.1,285.69,119H275.57l-9.32-12.69-4.59,5V119h-8.85V71h8.85V99.22l11.75-13.09h11.07Z" />
    <path class="cls-3" d="M320.45,102.73A17.54,17.54,0,0,1,315.6,115a16.43,16.43,0,0,1-11.89,5.13c-9.18,0-16.67-7.76-16.67-17.42a17.34,17.34,0,0,1,4.86-12.22,16.29,16.29,0,0,1,11.81-5.13C313,85.38,320.45,93.15,320.45,102.73Zm-8.57,0c0-4.93-3.65-9-8.17-9A7.73,7.73,0,0,0,298,96.39a9.58,9.58,0,0,0,0,12.75,7.66,7.66,0,0,0,5.67,2.57C308.23,111.71,311.88,107.73,311.88,102.73Z" />
    <path class="cls-3" d="M323.83,102.39a17.89,17.89,0,0,1,4.72-12.22,15.86,15.86,0,0,1,11.61-5.12c7.09,0,9.93,4.79,9.93,4.79V71H359v47.93h-8.91v-4a11.88,11.88,0,0,1-9.93,4.86C331.12,119.81,323.83,112.05,323.83,102.39Zm23.63,7.09a10.43,10.43,0,0,0,2.63-7,10.3,10.3,0,0,0-2.63-7,8.16,8.16,0,0,0-12.36,0,10.25,10.25,0,0,0-2.63,7,10.38,10.38,0,0,0,2.63,7,8.14,8.14,0,0,0,12.36,0Z" />
</svg>