<?xml version="1.0"?>
<svg xmlns="http://www.w3.org/2000/svg" height="512px" viewBox="0 0 512 512" width="512px" class=""><g><g id="flat"><path d="m488 248h-80v-48h80l-16 24z" fill="#dc4d41" data-original="#DC4D41" class="" style="fill:#D80000" data-old_color="#dc4d41"/><path d="m472 168h-64v-48h64l-16 24z" fill="#ea9d2d" data-original="#EA9D2D" class="active-path" style="fill:#EB7D16" data-old_color="#ea9d2d"/><path d="m88 24h328a0 0 0 0 1 0 0v464a0 0 0 0 1 0 0h-328a32 32 0 0 1 -32-32v-400a32 32 0 0 1 32-32z" fill="#029532" data-original="#029532" class="" style="fill:#4400A6" data-old_color="#029532"/><path d="m104 488v-432h-48v400a32 32 0 0 0 32 32z" fill="#027e2a" data-original="#027E2A" class="" style="fill:#D80000" data-old_color="#027e2a"/><circle cx="256" cy="200" fill="#c3c3c3" r="80" data-original="#C3C3C3" class=""/><circle cx="256" cy="200" fill="#e4e4e2" r="72" data-original="#E4E4E2" class=""/><path d="m88 24h328v64h-328a32 32 0 0 1 -32-32 32 32 0 0 1 32-32z" fill="#dbdbdb" data-original="#DBDBDB" class=""/><g fill="#c3c3c3"><path d="m216 48h200v16h-200z" data-original="#C3C3C3" class=""/><path d="m88 48h32v16h-32z" data-original="#C3C3C3" class=""/><path d="m152 48h40v16h-40z" data-original="#C3C3C3" class=""/></g><path d="m296 184h-24v-24h-32v24h-24v32h24v24h32v-24h24z" fill="#027e2a" data-original="#027E2A" class="" style="fill:#D80000" data-old_color="#027e2a"/><path d="m288 376h-64a24 24 0 0 0 -24 24v27.6a12.262 12.262 0 0 0 11.775 12.4 12 12 0 0 0 12.225-12v60h64v-60a12 12 0 0 0 12.225 12 12.262 12.262 0 0 0 11.775-12.4v-27.6a24 24 0 0 0 -24-24z" fill="#e4e4e2" data-original="#E4E4E2" class=""/><circle cx="256" cy="344" fill="#e4e4e2" r="32" data-original="#E4E4E2" class=""/><path d="m224 400v28a11.985 11.985 0 0 1 -8 11.31v-39.31z" fill="#c3c3c3" data-original="#C3C3C3" class=""/><path d="m296 400v39.31a11.985 11.985 0 0 1 -8-11.31v-28z" fill="#c3c3c3" data-original="#C3C3C3" class=""/><path d="m248 448h16v40h-16z" fill="#c3c3c3" data-original="#C3C3C3" class=""/><path d="m256 424a7.974 7.974 0 0 1 -5.657-2.343l-8-8a8 8 0 0 1 11.314-11.314l2.343 2.344 2.343-2.344a8 8 0 0 1 11.314 11.314l-8 8a7.974 7.974 0 0 1 -5.657 2.343z" fill="#dc4d41" data-original="#DC4D41" class="" style="fill:#D80000" data-old_color="#dc4d41"/><path d="m416 200h16v48h-16z" fill="#b6534f" data-original="#B6534F"/><path d="m416 120h16v48h-16z" fill="#d18d28" data-original="#D18D28" class="" style="fill:#D18D28"/></g></g> </svg>
