<?xml version="1.0"?>
<svg xmlns="http://www.w3.org/2000/svg" xmlns:xlink="http://www.w3.org/1999/xlink" version="1.1" id="Layer_1" x="0px" y="0px" viewBox="0 0 512 512" style="enable-background:new 0 0 512 512;" xml:space="preserve" width="512px" height="512px" class=""><g><path style="fill:#A8A7AD;" d="M323.698,59.631C323.698,26.697,350.396,0,383.329,0s59.631,26.697,59.631,59.631H323.698" data-original="#A8A7AD" class=""/><path style="fill:#F8E88D;" d="M450.978,512L450.978,512c-19.594,0-35.477-15.884-35.477-35.477V219.551l35.477-52.894  l35.477,52.894v256.972C486.455,496.116,470.572,512,450.978,512z" data-original="#F8E88D"/><path style="fill:#F3DA49;" d="M450.978,512L450.978,512c0-25.043,0-345.343,0-345.343l35.477,52.894v256.972  C486.455,496.116,470.572,512,450.978,512z" data-original="#F3DA49"/><rect x="415.497" y="219.548" style="fill:#8A0000" width="70.955" height="249.6" data-original="#E1744E" class="" data-old_color="#E1744E"/><rect x="450.981" y="219.548" style="fill:#D80000" width="35.478" height="249.6" data-original="#DD5323" class="" data-old_color="#DD5323"/><path style="fill:#EBEBEC;" d="M383.329,0C372.009,0,372.009,0,383.329,0H144.803C111.87,0,85.172,26.697,85.172,59.631V512h178.895  c32.934,0,59.631-26.697,59.631-59.631c0,0,0-389.467,0-392.737h119.263C442.961,26.697,416.263,0,383.329,0z" data-original="#EBEBEC" class=""/><path style="fill:#DBDADD;" d="M383.329,0C372.009,0,372.009,0,383.329,0H206.108c0,29.816,0,512,0,512h57.958  c32.934,0,59.631-26.697,59.631-59.631c0,0,0-389.467,0-392.737h119.263C442.961,26.697,416.263,0,383.329,0z" data-original="#DBDADD" class=""/><path style="fill:#A8A7AD;" d="M264.067,512H85.172c-32.934,0-59.631-26.697-59.631-59.631h178.894  C204.435,485.303,231.133,512,264.067,512z" data-original="#A8A7AD" class=""/><g>
	<rect x="133.764" y="97.391" style="fill:#4400A6" width="144.696" height="33.391" data-original="#A9731B" class="" data-old_color="#A9731B"/>
	<rect x="133.764" y="177.163" style="fill:#4400A6" width="144.696" height="33.391" data-original="#A9731B" class="" data-old_color="#A9731B"/>
	<rect x="133.764" y="256.924" style="fill:#4400A6" width="144.696" height="33.391" data-original="#A9731B" class="" data-old_color="#A9731B"/>
	<rect x="133.764" y="336.696" style="fill:#4400A6" width="144.696" height="33.391" data-original="#A9731B" class="" data-old_color="#A9731B"/>
</g><g>
	<rect x="206.112" y="97.391" style="fill:#27005F" width="72.348" height="33.391" data-original="#744E12" class="active-path" data-old_color="#744E12"/>
	<rect x="206.112" y="177.163" style="fill:#27005F" width="72.348" height="33.391" data-original="#744E12" class="active-path" data-old_color="#744E12"/>
	<rect x="206.112" y="256.924" style="fill:#27005F" width="72.348" height="33.391" data-original="#744E12" class="active-path" data-old_color="#744E12"/>
	<rect x="206.112" y="336.696" style="fill:#27005F" width="72.348" height="33.391" data-original="#744E12" class="active-path" data-old_color="#744E12"/>
</g><polygon style="fill:#4400A6" points="450.978,166.657 433.139,193.253 468.817,193.253 " data-original="#A9731B" class="" data-old_color="#A9731B"/><polygon style="fill:#27005F" points="450.978,166.657 450.978,193.253 468.817,193.253 " data-original="#744E12" class="active-path" data-old_color="#744E12"/><path style="fill:#4400A6" d="M415.501,461.913v14.61c0,19.594,15.884,35.477,35.477,35.477s35.477-15.884,35.477-35.477v-14.61  H415.501z" data-original="#A9731B" class="" data-old_color="#A9731B"/><path style="fill:#27005F" d="M450.978,461.913c0,0,0,29.496,0,50.087c19.594,0,35.477-15.884,35.477-35.477v-14.61H450.978z" data-original="#744E12" class="active-path" data-old_color="#744E12"/><path style="fill:#A8A7AD;" d="M323.698,59.631C323.698,26.697,350.396,0,383.329,0s59.631,26.697,59.631,59.631H323.698" data-original="#A8A7AD" class=""/></g> </svg>
