<?xml version="1.0" encoding="utf-8"?>
<!-- Generator: Adobe Illustrator 23.0.1, SVG Export Plug-In . SVG Version: 6.00 Build 0)  -->
<svg version="1.1" id="svg" xmlns="http://www.w3.org/2000/svg" xmlns:xlink="http://www.w3.org/1999/xlink" x="0px" y="0px"
	 viewBox="0 0 400 145" style="enable-background:new 0 0 400 145;" xml:space="preserve">
<style type="text/css">
	.st0{fill-rule:evenodd;clip-rule:evenodd;fill:url(#path0_1_);}
	.st1{fill-rule:evenodd;clip-rule:evenodd;fill:#FBFCFC;}
	.st2{fill-rule:evenodd;clip-rule:evenodd;fill:#DDF5FC;}
	.st3{fill-rule:evenodd;clip-rule:evenodd;fill:#9C2D7E;}
</style>
<g id="svgg">
	<linearGradient id="path0_1_" gradientUnits="userSpaceOnUse" x1="213.917" y1="64.7424" x2="400" y2="64.7424">
		<stop  offset="0" style="stop-color:#2C47B9"/>
		<stop  offset="1" style="stop-color:#2A2888"/>
	</linearGradient>
	<path id="path0" class="st0" d="M226.5,0.3c-0.1,0.1-1,0.8-1.9,1.4c-7.3,4.7-10.7,11.1-10.7,20c0,11,5,19.4,15.8,26.5
		c12.1,8,15.7,12.8,19.3,25.9c2.6,9.6,4.3,13.2,7.8,16.7c5,5,12.1,7.3,25.5,8.2c13.2,0.9,15.8,1.2,20.3,2.3
		c7.3,1.7,11,3.7,20.3,11.2c1.9,1.5,4.1,3.2,5,3.8c18.2,12.9,45.3,16.8,68.5,10c1.4-0.4,2.8-0.8,3.1-0.9l0.5-0.1l0-62.6L400,0h-86.6
		C233.4,0,226.7,0,226.5,0.3"/>
	<path id="path1" class="st1" d="M0,72.4v72.4h200h200v-8.5c0-4.7-0.1-8.5-0.1-8.5c-0.1,0-0.6,0.2-1.1,0.3
		c-14.4,5.1-36.2,5.6-53.1,1.4c-11.4-2.8-18-6.2-27.6-13.8c-7.9-6.3-11-8.2-16-9.8c-5.2-1.7-9-2.2-22.8-3.2
		c-23.5-1.7-29.4-5.9-34.6-24.3c-3.1-11.1-4.6-14-10.3-19.5c-2.5-2.4-4.7-4.2-7.8-6.2c-5-3.3-7.1-5-9.2-7.7
		C206.8,31.3,210.6,9,225,0.4l0.6-0.4L112.8,0L0,0V72.4"/>
	<path id="path3" class="st2" d="M224.6,0.6c-2.7,1.6-5.2,3.9-7.1,6.5c-1.1,1.5-3.4,5.7-3.2,5.9c0.1,0.1,0.3-0.4,0.7-1.1
		c2.1-4.8,5.8-9,10.3-11.5c0.5-0.3,0.7-0.5,0.6-0.5C225.7,0,225.1,0.3,224.6,0.6 M213.2,15.8c-3.5,10.6-2,21.1,4.2,29.1
		c2.1,2.7,4.1,4.4,9.2,7.7c3.1,2,5.3,3.8,7.8,6.2c5.7,5.5,7.2,8.4,10.3,19.5c5.1,18.4,11.1,22.6,34.6,24.3
		c22.8,1.7,25.8,2.7,38.8,13.1c4.5,3.6,6.1,4.8,8.5,6.2c18.4,11.1,48.8,13.7,71.8,6.3l1.6-0.5v-1v-0.9l-1.1,0.4
		c-11.6,4.2-29.5,5.2-43.5,2.3c-13.4-2.8-22.4-7-33.3-15.7c-12.8-10.2-16.1-11.4-37.4-12.9c-24.2-1.7-31-6.1-35.7-23
		c-3.6-13-4.7-15.1-10-20.4c-3.1-3.1-5.2-4.7-9.9-7.9c-5.5-3.6-8.3-6.3-11.2-10.7c-4.5-6.8-6.1-16.2-4-23
		C214.6,12.6,214,13.4,213.2,15.8"/>
	<path id="path5" class="st3" d="M0,0"/>
</g>
</svg>
