<?xml version="1.0" encoding="utf-8"?>
<!-- Generator: Adobe Illustrator 23.0.1, SVG Export Plug-In . SVG Version: 6.00 Build 0)  -->
<svg version="1.1" id="svg" xmlns="http://www.w3.org/2000/svg" xmlns:xlink="http://www.w3.org/1999/xlink" x="0px" y="0px"
	 viewBox="0 0 400 225" style="enable-background:new 0 0 400 225;" xml:space="preserve">
<style type="text/css">
	.st0{fill-rule:evenodd;clip-rule:evenodd;fill:url(#path0_1_);}
	.st1{fill-rule:evenodd;clip-rule:evenodd;fill:#FBFCFC;}
	.st2{fill-rule:evenodd;clip-rule:evenodd;fill:#D47479;}
	.st3{fill-rule:evenodd;clip-rule:evenodd;fill:#DCF4FC;}
	.st4{fill-rule:evenodd;clip-rule:evenodd;fill:#C1ECF8;}
</style>
<g id="svgg">
	<linearGradient id="path0_1_" gradientUnits="userSpaceOnUse" x1="177.504" y1="90.3787" x2="400" y2="90.3787">
		<stop  offset="0" style="stop-color:#2C47B9"/>
		<stop  offset="1" style="stop-color:#2A2888"/>
	</linearGradient>
	<path id="path0" class="st0" d="M191.3,1.4C182,8.4,177.5,17.6,177.5,30c0,14.6,6.6,27.9,18.1,36.5c14,10.4,19.4,18.2,23,33
		c0.5,2.2,1.5,6,2.1,8.5c5.5,22.3,13.5,28,42.8,30.4c23.8,1.9,28.9,4,43.1,17.3c7.1,6.7,9.1,8.3,13.6,11.3
		c21.5,14.1,49.6,17.5,75,9.2l4.6-1.5l0-87.3L400,0H296.6H193.2L191.3,1.4"/>
	<path id="path1" class="st1" d="M0,112.5V225h200h200v-23.3c0-21.1,0-23.3-0.3-23.3c-0.2,0-1.5,0.4-2.9,0.9
		c-22.8,8.3-53,6.8-74.6-3.6c-7.9-3.8-11.9-6.7-20.6-14.9c-14.2-13.4-19.2-15.4-42.7-17.4c-11.1-0.9-13.9-1.3-18.8-2.5
		c-10.8-2.6-17.8-8.6-21.7-18.5c-1.3-3.4-1.9-5.2-4.8-17.2c-3.8-15.5-8.9-23.1-22.6-33.3c-14-10.4-19.3-28.5-14.3-48.3
		c2.7-10.6,6.7-17.2,13.6-22.3c0.7-0.5,1.4-1,1.4-1.1c0,0-43.1-0.1-95.8-0.1H0V112.5"/>
	<path id="path2" class="st2" d="M191.3,1c-21,14.2-18.8,48.6,4.2,66.1c15.1,11.5,19.1,17.7,23.5,36.5c3.9,16.7,7.2,22.9,14.4,27.9
		c6.7,4.6,12.8,6.1,29.8,7.6c24.2,2,28.9,3.9,43.1,17.3c17.2,16.1,32.9,23.1,55.3,24.8c12,0.9,30-1.8,37.5-5.7
		c1.7-0.9,0.3-0.6-3.3,0.6c-28.7,9.9-62.9,3.6-84-15.4c-0.7-0.6-3-2.8-5.3-4.9c-14.2-13.3-19.3-15.3-43.1-17.3
		c-29.4-2.4-37.3-8.1-42.8-30.4c-0.6-2.5-1.6-6.4-2.1-8.5c-3.6-14.8-9-22.6-23-33c-22-16.4-24.6-50.2-4.9-64.6
		C193.5-0.1,193.9-0.8,191.3,1"/>
	<path id="path3" class="st3" d="M190.3,1.1c-9.8,7.2-15.4,20.3-15.4,36c0,15.2,5.3,26.6,16,34.7c13.7,10.2,18.9,17.8,22.6,33.3
		c2.9,12,3.4,13.9,4.8,17.2c3.9,9.9,10.9,15.8,21.7,18.5c4.8,1.2,7.7,1.6,18.8,2.5c23.5,2,28.5,4,42.7,17.4
		c8.7,8.2,12.8,11.1,20.6,14.9c21.6,10.4,51.8,11.9,74.6,3.6c1.4-0.5,2.7-0.9,2.9-0.9c0.3,0,0.3-0.3,0.3-1.5c0-1.3,0-1.5-0.4-1.3
		c-22.8,9.8-55.1,7.3-76.9-6c-6.2-3.8-8.8-5.9-16.9-13.5c-13.7-12.8-18.8-14.8-42.2-16.8c-12.5-1-18.1-2-23.2-4
		c-11.2-4.3-16.8-11.7-20.5-27.2c-0.5-2.2-1.4-6-2-8.3c-3.6-14.6-8.5-21.9-21.9-32.1c-6.9-5.3-11.1-10.2-14.4-16.8
		c-9.3-18.9-5.1-40.4,9.7-50.2c0.6-0.4,1-0.7,0.8-0.7C191.9,0,191.1,0.5,190.3,1.1"/>
	<path id="path4" class="st4" d="M191.3,0.8c-3.9,2.5-8.3,7.3-9.9,10.7c-0.4,0.8-0.3,0.8,1.3-1.9c2.2-3.3,5.4-6.6,8.5-8.6
		c1.1-0.7,1.5-1,1.2-1C192.4,0,191.9,0.4,191.3,0.8 M179.7,14.8c-5.4,11.9-3.6,28.4,4.4,40.7c3.2,4.9,6.3,8.1,11.8,12.3
		c13.4,10.2,18.3,17.4,21.9,32.1c0.6,2.3,1.5,6.1,2,8.3c3.8,15.5,9.3,22.9,20.5,27.2c5.1,2,10.8,2.9,23.2,4
		c23.4,1.9,28.5,4,42.2,16.8c5.5,5.1,6.7,6.2,9.3,8.2c19.9,15.5,48.5,21.1,74.4,14.6c4.6-1.2,10.5-3.2,10.5-3.7c0-0.1-0.4,0-0.8,0.2
		c-7.5,3.8-25.5,6.5-37.4,5.7c-22.5-1.7-38.2-8.7-55.3-24.8c-14.2-13.4-19-15.3-43.1-17.3c-17-1.4-23.1-3-29.8-7.6
		c-7.3-5-10.5-11.2-14.4-27.9c-4.4-18.8-8.5-25-23.5-36.5c-16.4-12.5-23.2-34.6-15.8-51.7c0.4-0.9,0.7-1.7,0.6-1.7
		C180.3,13.6,180,14.1,179.7,14.8"/>
</g>
</svg>
