<?xml version="1.0" encoding="utf-8"?>
<!-- Generator: Adobe Illustrator 23.0.1, SVG Export Plug-In . SVG Version: 6.00 Build 0)  -->
<svg version="1.1" id="Layer_1" xmlns="http://www.w3.org/2000/svg" xmlns:xlink="http://www.w3.org/1999/xlink" x="0px" y="0px"
	 viewBox="0 0 635.7 595.6" style="enable-background:new 0 0 635.7 595.6;" xml:space="preserve">
<style type="text/css">
	.st0{fill:#D5DBDA;}
	.st1{fill:#FFFFFF;}
	.st2{fill:#EFEFEF;}
	.st3{fill:#FFD04D;}
	.st4{fill:#00BFD8;}
	.st5{opacity:0.15;}
	.st6{opacity:0.26;enable-background:new    ;}
	.st7{opacity:0.62;}
	.st8{fill:#66341B;}
	.st9{fill:#723E24;}
	.st10{opacity:0.3;}
	.st11{fill:#E8F6F7;}
	.st12{fill:#D0E0E2;}
	.st13{fill:#FFE1BD;}
	.st14{fill:#F4F4F4;}
	.st15{fill:#EAEAEA;}
	.st16{fill:#3A3A3A;}
	.st17{fill:#E2E2E2;}
	.st18{fill:#F4D5B5;}
	.st19{fill:#632F00;}
	.st20{fill:#E8C5A0;}
	.st21{fill:#8C4200;}
	.st22{fill:#606060;}
	.st23{fill:#E5BB98;}
	.st24{fill:#D8D8D8;}
	.st25{fill:#09424C;}
	.st26{fill:#0C5A71;}
	.st27{opacity:0.1;}
	.st28{fill:#0B0B3A;}
	.st29{opacity:0.39;fill:#CE9006;enable-background:new    ;}
	.st30{fill:#D69507;}
	.st31{fill:#EFAF11;}
	.st32{fill:#CE9006;}
	.st33{fill:#FAFEFF;}
	.st34{fill:#B4EFF9;}
	.st35{fill:#75D9EF;}
	.st36{opacity:0.5;}
	.st37{fill:#282C2D;}
	.st38{fill:#D6D6D6;}
	.st39{fill:#525252;}
	.st40{fill:#A5A5AF;}
	.st41{fill:#F1F2F2;}
	.st42{fill:#A7A9AC;}
	.st43{fill:#383838;}
	.st44{fill:#E6E7E8;}
	.st45{fill:#58595B;}
	.st46{fill:#594A42;}
	.st47{fill:#81553A;}
	.st48{opacity:0.55;fill:#EFAF11;enable-background:new    ;}
	.st49{fill:#709E3E;}
	.st50{fill:#93BC6C;}
	.st51{fill:#4C2311;}
	.st52{fill:#1A1A47;}
	.st53{opacity:0.54;fill:#3D3D72;enable-background:new    ;}
	.st54{clip-path:url(#SVGID_2_);}
	.st55{fill:#E1EDF9;}
	.st56{fill:#C2E0F2;}
	.st57{fill:#FFD19F;}
	.st58{fill:#006466;}
	.st59{fill:#007D87;}
	.st60{opacity:0.18;fill:#00B3B7;enable-background:new    ;}
	.st61{opacity:0.45;fill:#00B3B7;enable-background:new    ;}
	.st62{fill:#3D3D72;}
	.st63{fill:#33305B;}
	.st64{fill:#F3F3F3;}
	.st65{fill:url(#SVGID_3_);}
	.st66{fill:url(#SVGID_4_);}
	.st67{fill:url(#SVGID_5_);}
	.st68{fill:#E0E0E0;}
	.st69{fill:url(#SVGID_6_);}
	.st70{fill:url(#SVGID_7_);}
	.st71{fill:url(#SVGID_8_);}
	.st72{fill:url(#SVGID_9_);}
	.st73{fill:url(#SVGID_10_);}
	.st74{fill:url(#SVGID_11_);}
	.st75{fill:#F5F5F5;}
	.st76{fill:url(#SVGID_12_);}
	.st77{fill:url(#SVGID_13_);}
	.st78{fill:url(#SVGID_14_);}
	.st79{fill:url(#SVGID_15_);}
	.st80{fill:#4E7ED6;}
	.st81{fill:url(#SVGID_16_);}
	.st82{fill:#537FFD;}
	.st83{fill:#4BA6F3;}
	.st84{fill:#46BBED;}
	.st85{fill:url(#SVGID_17_);}
	.st86{fill:url(#SVGID_18_);}
	.st87{fill:url(#SVGID_19_);}
	.st88{fill:#B3B7C4;}
	.st89{fill:#D98037;}
	.st90{fill:#FCCCA2;}
	.st91{fill:#DBDFF0;}
	.st92{fill:#1D3B54;}
	.st93{fill:#3B3B40;}
	.st94{fill:#E8734D;}
	.st95{fill:#D6C5BE;}
	.st96{fill:#FAE6DE;}
	.st97{fill:#A77860;}
	.st98{fill:#EEA987;}
	.st99{fill:#616161;}
	.st100{fill:#E0CEC7;}
	.st101{fill:url(#SVGID_20_);}
	.st102{fill:url(#SVGID_21_);}
	.st103{fill:#2D2D30;}
	.st104{fill:#EEA886;}
	.st105{fill:#2D3133;}
	.st106{fill:#E55353;}
	.st107{fill:#AA571A;}
	.st108{fill:#353A3D;}
	.st109{fill:#248C9E;}
	.st110{fill:#2AA3B8;}
	.st111{fill:#196370;}
	.st112{fill:#1D6F7D;}
	.st113{fill:url(#SVGID_22_);}
	.st114{fill:url(#SVGID_23_);}
	.st115{fill:#2D5BAD;}
	.st116{fill:#5D96FF;}
</style>
<title>header-teamwork</title>
<g>
	<g>
		<rect x="-471.2" y="5.5" class="st0" width="439.3" height="259.5"/>
		<rect x="-459" y="10.6" class="st1" width="414.9" height="249.4"/>
		<rect x="-428.6" y="22.1" class="st2" width="351.3" height="16.7"/>
		<rect x="-415.8" y="180.6" class="st3" width="19.1" height="48"/>
		<rect x="-372.8" y="138.4" class="st4" width="19.1" height="90.1"/>
		<rect x="-329.7" y="147.8" class="st3" width="19.1" height="80.8"/>
		<rect x="-286.7" y="102.2" class="st4" width="19.1" height="126.4"/>
		<g class="st5">
			<rect x="-372.8" y="138.4" class="st6" width="8.8" height="90.1"/>
		</g>
		<g class="st5">
			<rect x="-415.8" y="180.6" class="st6" width="8.8" height="48"/>
		</g>
		<g class="st7">
			<rect x="-286.7" y="102.2" class="st6" width="8.8" height="126.4"/>
		</g>
		<g class="st5">
			<rect x="-329.7" y="147.8" class="st6" width="8.8" height="80.8"/>
		</g>
		<polygon class="st0" points="-257.4,241.7 -428.4,241.7 -428.4,59.6 -425.8,59.6 -425.8,239.1 -257.4,239.1 		"/>
		<polygon class="st0" points="-410.9,158.1 -412.6,156.2 -367.9,116 -326.5,125 -281.6,75 -279.7,76.8 -325.5,127.9 -367.1,118.8 
					"/>
		<polygon class="st0" points="-276.1,84.2 -288.8,72 -272.5,67.7 		"/>
		<rect x="-241.3" y="169.1" class="st4" width="16" height="16"/>
		<rect x="-241.3" y="197.2" class="st3" width="16" height="16"/>
		<rect x="-220.8" y="204.2" class="st2" width="50.8" height="9.1"/>
		<rect x="-220.8" y="176.1" class="st2" width="50.8" height="9.1"/>
		<rect x="-147" y="169.1" class="st4" width="16" height="16"/>
		<rect x="-147" y="197.2" class="st3" width="16" height="16"/>
		<rect x="-126.5" y="204.2" class="st2" width="50.8" height="9.1"/>
		<rect x="-126.5" y="176.1" class="st2" width="50.8" height="9.1"/>
		<rect x="-227.6" y="70.7" class="st2" width="150.3" height="3.4"/>
		<rect x="-239.4" y="78.9" class="st2" width="162" height="3.4"/>
		<rect x="-239.4" y="87.2" class="st2" width="162" height="3.4"/>
		<rect x="-239.4" y="95.5" class="st2" width="162" height="3.4"/>
		<rect x="-239.4" y="103.8" class="st2" width="162" height="3.4"/>
		<rect x="-239.4" y="112.1" class="st2" width="162" height="3.4"/>
		<rect x="-239.4" y="120.4" class="st2" width="162" height="3.4"/>
		<rect x="-239.4" y="128.7" class="st2" width="162" height="3.4"/>
		<rect x="-216.2" y="137" class="st2" width="138.9" height="3.4"/>
		<path class="st8" d="M-22.4,3.4c0,1.9-1.5,3.4-3.4,3.4h-451.4c-1.9,0-3.4-1.5-3.4-3.4c0,0,0,0,0,0l0,0c0-1.9,1.5-3.4,3.4-3.4
			c0,0,0,0,0,0h451.4C-24,0-22.4,1.5-22.4,3.4L-22.4,3.4L-22.4,3.4z"/>
		<path class="st8" d="M-22.4,267.1c0,1.9-1.5,3.4-3.4,3.4h-451.4c-1.9,0-3.4-1.5-3.4-3.4c0,0,0,0,0,0l0,0c0-1.9,1.5-3.4,3.4-3.4
			c0,0,0,0,0,0h451.4C-24,263.7-22.4,265.2-22.4,267.1L-22.4,267.1z"/>
		<path class="st9" d="M-546,564.8l2.4-131h-8.7l2.4,131c-0.2,1.1,0.4,2.1,1.5,2.4c1.1,0.2,2.1-0.4,2.4-1.5
			C-546,565.4-546,565.1-546,564.8z"/>
		<path class="st9" d="M-626.1,549.5l50.6-120.8l-8.1-3.2l-46,122.6c-0.5,1.1-0.1,2.3,0.9,2.9C-627.6,551.3-626.4,550.7-626.1,549.5
			z"/>
		<path class="st9" d="M-469.8,549.5l-50.6-120.8l8.1-3.2l46,122.6c0.6,0.9,0.4,2.1-0.5,2.7s-2.1,0.4-2.7-0.5
			C-469.6,550.1-469.7,549.8-469.8,549.5z"/>
		<g class="st10">
			<path d="M-585,429.2l5.2,2L-627.4,551c0.6-0.3,1.1-0.8,1.3-1.4l50.6-120.8l-8.1-3.2L-585,429.2z"/>
			<path d="M-552.2,437.3h6.5l-2.4,129.9c0.1,0,0.2,0,0.2,0c1.2-0.2,2-1.2,1.9-2.4l2.4-131h-8.7L-552.2,437.3z"/>
			<path d="M-466.2,548.1l-46-122.6l-8.1,3.2l0.9,2.2l5-2l45.8,121.9c0.5,0.3,1,0.4,1.5,0.2C-466.1,550.5-465.7,549.2-466.2,548.1z"
				/>
		</g>
		<path class="st11" d="M-487.9,440.1c-8.8,7.2-21.9,13.8-55.2,14.5c-43.7,0.9-66.6-4.1-79.1-26.7c-20.8-37.7,5.2-159.4,46.2-132.4
			c34.3,22.5,41.1,94.5,45.6,104.4C-525.8,409.8-466.5,422.6-487.9,440.1z"/>
		<path class="st12" d="M-535.5,445.2c-43.7,0.9-66.6-4.1-79.1-26.7c-14.2-25.7-6.6-90.6,12.7-120.6
			c-24.7,22.9-36.2,101.1-20.3,129.9c12.4,22.6,35.3,27.5,79.1,26.7c33.3-0.7,46.4-7.3,55.2-14.5c3-2.4,4.4-4.8,4.6-7.1
			C-492.2,439.3-505.8,444.6-535.5,445.2z"/>
		<path class="st13" d="M-516.9,157.2c3-8.6,5.7-17.7,10.4-13.1c4.9,4.8,4.5,4.2,2.7,10.9C-505.5,161.7-519.4,164.4-516.9,157.2z"/>
		<path class="st13" d="M-511.5,144.9c1.5-4.1,3.9-8.8,6.4-10.7s-1.3,4.9-2.2,8C-508.2,145.4-512.8,148.3-511.5,144.9z"/>
		<path class="st14" d="M-515.5,191.6c3.5-13.2,5.3-30.4,5.3-30.4l-6.6-4.4c0,0-13.4,27.5-20.6,48.5l-37.3-9.6l-4.6-0.9l12.2,24.3
			c0,0,36,5.2,38.2,4C-526.8,221.7-519.1,205-515.5,191.6z"/>
		<path class="st15" d="M-529.1,223c-2.2,1.2-38.2-4-38.2-4l-12.2-24.3l4.6,0.9c3.4,1.4,8.8,6.9,13.2,12.6c3.2,4.2,4.9,5.7,9.8,7.5
			c7.4,2.8,15.2,4.7,18.1,4.9c5,0.3,5.5,0.6,6.5-0.9C-527.1,221.1-527.8,222.4-529.1,223z"/>
		<path class="st14" d="M-617,268c2.4,6,2.9,12.6,1.5,19c-2.8,12.6,0.4,13.4,0.4,13.4s17,10.8,31.2,15.2c10.2,3.2,18.8,2.6,18.6-8.6
			l0-0.2c0-0.7,0-1.3,0-2c-0.5-25.2,4.8-26.5,6.1-54.7c1.3-29-6.4-45.1-14.1-52.1c-7.7-7-18.2-7.2-37.9-2.6
			c-14.8,3.5-19.7,7.4-19.6,18.4c0.2,4.5,0.7,9,1.6,13.5C-626.8,241.2-621,257.7-617,268z"/>
		<path class="st16" d="M-581.2,206c0,0,15.4,50.4,12.3,74.5l-5.7,10.3l-6.2-11.2c0,0,5-48.2-4.6-72.7L-581.2,206z"/>
		<path class="st17" d="M-617,268c2.4,6,2.9,12.6,1.5,19c-2.8,12.6,0.4,13.4,0.4,13.4s17,10.8,31.2,15.2l13.2-1.3l5.3-4.2l0-3.3
			c0-0.7,0-1.3,0-2c-6.7,0.5-13.4,0.3-20-0.5c-6.7-0.8-13.3-2.5-19.6-4.9c-3.4-1.3-5.5-4.9-4.8-8.5c1.1-5.8,1.7-11.7,1.8-17.6
			c0-5.5-2.6-14.9-4.7-21.7c-1.6-5.2-2.2-10.6-1.8-16c0.4-6.1,0.4-12.2,0-18.3l-10.5-5.7l-5.8,2.2c0.2,4.5,0.7,9,1.6,13.5
			C-626.8,241.2-621,257.7-617,268z"/>
		<path class="st18" d="M-617.2,321.5c-1.2,0.2-4.3-5.2-4.3-5.2l1.3-1.7c0.7-1,1.8-1.7,2.9-2.1l0.2-0.1c1-0.3,2.2,0.1,2.8,1
			c0.9,1.3,2.3,2.8,3.9,2.8h0c0.1,0,0.1,0,0.2,0C-608.8,316.2-616,321.3-617.2,321.5z"/>
		<path class="st19" d="M-569.4,146.3c0,0,1.3,3.7-0.7,6.6l-8.1-11l5.7-0.1L-569.4,146.3z"/>
		<path class="st13" d="M-613.5,160.9c0.4,14.2,12.6,22.4,12.6,22.4l-0.8,12.9l8.3,5.4l5.7,3.7l3.3-6.8l0.4-8.3
			c0.1-1.9,1.5-3.6,3.4-4c3.1-0.8,5.9-2.5,8.1-4.9c0.2-0.2,0.4-0.4,0.5-0.6l0,0c5.4-7.3,7.4-35.3-11-43.3
			C-602,129.1-613.9,146.6-613.5,160.9z"/>
		<path class="st20" d="M-592.9,193.8l-0.6,7.7l5.7,3.7l3.3-6.8l0.4-8.3c0.1-1.9,1.5-3.6,3.4-4c3.1-0.8,5.9-2.5,8.1-4.9
			c0.2-0.2,0.4-0.4,0.5-0.6c-3.6,2-7.5,3.2-11.6,3.6C-588.7,184.8-592.5,188.8-592.9,193.8z"/>
		<path class="st21" d="M-593.7,165.2c-0.7,0.3-1.4-0.8-1.4-0.8s-4-8.9-5.4-10.3c-2.4-2.5-8.2-2.3-8.7,5.4
			c-0.4,5.9,6.7,18.6,8.8,22.3c0.3,0.6,0.2,1.4-0.4,1.8c-0.2,0.2-0.5,0.3-0.8,0.3h-0.1c-0.3,0-0.7-0.1-0.9-0.3
			c-4.5-4-24.5-23.1-8.7-41.2c0,0,12.6,0.8,14.5,6.9c1.4,4.7,2.5,9.5,3.3,14.3C-593.3,163.7-592.9,164.9-593.7,165.2z"/>
		<path class="st21" d="M-569.4,146.3c0,0-11-8.6-27.8,1.9l-13.7-3.5c0,0-0.6-0.2-0.3-2.2c0.3-2.1,1.8-22.2,25.8-17.7
			C-571.5,127.4-563,136.9-569.4,146.3z"/>
		<path class="st22" d="M-580.2,201.7l-0.1,0.7c-0.2,1.2-0.5,2.5-1,3.6l0,0l-4.2,0.9l-3.6-2.7l4.2-4.8l0.6,0.2
			C-582.7,199.9-581.3,200.6-580.2,201.7L-580.2,201.7z"/>
		<path class="st17" d="M-601.6,190.2c-1.6,1.1-3,2.5-4,4.1c1.7,0.8,3.5,1.7,5.1,2.7c2.2,1.3,12.6,8.7,12.6,8.7l3.1-6.3
			C-584.8,199.3-595.7,191.8-601.6,190.2z"/>
		<path class="st17" d="M-584.9,199.3c0,0,3.6,1.2,4.8,4c0,0,1.9-3.6-0.5-9.9c-1.1-1-2.3-1.9-3.5-2.6L-584.9,199.3z"/>
		<path class="st23" d="M-613.8,312.6c0.8,1,1.6,1.9,2.5,2.7c0.6,0.3,0.7-0.4,0.5-0.8S-613.7,312-613.8,312.6z"/>
		<path class="st19" d="M-601.5,183.9h-0.1c-0.3,0-0.7-0.1-0.9-0.3c-4.5-4-24.5-23.1-8.7-41.2c-0.5,1.9-0.6,3.8-0.5,5.7
			C-611.6,148.2-621.7,164.5-601.5,183.9z"/>
		<ellipse class="st24" cx="-591.6" cy="567.9" rx="65.8" ry="5"/>
		<path class="st21" d="M-624.2,548.8c0.9,3.3,0.5,4.5,0.9,6.7c0.4,2.7,2.9,3.7,4.3,5.9c1.6,2.4,4.1,6.3-5.6,6.5
			c-10.3,0.2-16.5-0.5-14.7-6.4s2.1-8.4,2-10.3c-0.1-1.9,0-3.9,1.2-5S-625.7,542.9-624.2,548.8z"/>
		<path class="st16" d="M-622,362.8c0,0-16.3-26.1,6.9-62.4c0,0,18.1,8.1,32.5,9.1c11.4,0.8,17.2-0.4,17.2-0.4s1,34.9,1,53.7
			L-622,362.8L-622,362.8z"/>
		<path class="st16" d="M-611,438.5c4.5-18.8-14.1-22.2-19.9-8.5c-8.3,19.3-7.6,104-7.2,116.3c0.1,1.6,0.9,1.3,1.8,1
			c2.6-1,4.9-1.3,5.9-1.1c2.1,0.7,4.1,1.5,6.1,2.5C-622.6,532-615.3,456.8-611,438.5z"/>
		<path class="st16" d="M-594.3,365.3c2-23.4-7-41.6-21-33.9c-5.9,3.3-8,9.8-8.8,15.9c-0.8,6.1-5.1,69.8-6.6,81.3
			c-3.4,25.9,16.3,19,18.5,11.8C-606.9,422.3-595.4,378.1-594.3,365.3z"/>
		<path class="st16" d="M-561.3,437.3c0.7-17.6-14-16.6-19.9-2.9c-12.8,29.5,0.1,92.3,2.7,121.9c2.9-4.8,8.3-6.4,9.6-6.3
			c1.3,0.1,2.4,0.8,3.2,1.8C-566.1,515.5-562.1,456.1-561.3,437.3z"/>
		<path class="st16" d="M-580.6,439.2c2.2,7.2,21.1,15.5,19.1-10.6c-0.9-11.6-3.2-75.5-3.7-81.7s-1.5-15.2-4.5-16.3
			c-14.9-5.6-29.3,12.8-25.4,35.9C-592.4,382-585.1,424.4-580.6,439.2z"/>
		<path class="st21" d="M-565.8,552.4c0.8,1.5,4.5,5,9.7,7.4c5.2,2.3,16.2,3.4,10.1,5.4s-13.2,0.8-16.8,0.2
			c-3.8-0.5-7.6-0.8-11.4-0.7c-5.6,0-5.7-0.4-4.9-6.7C-578,549.3-568.3,547.5-565.8,552.4z"/>
		<path class="st13" d="M-618.2,307.4l2.9,4.1c3.1-0.4,6.1,1.2,7.6,4c2.4,4.8-6.2,10.7-8.6,8.5s-7.8-12.4-7.8-12.4L-618.2,307.4z"/>
		<path class="st14" d="M-639.8,294.5c5.7,6,11,12.3,16,18.9l1.5-1l5.7-3.9c0,0-11.7-24.4-15-36.4c-1.4-5-3.7-9.7-6.9-13.9
			c0.2-0.2,0.4-0.4,0.7-0.7c8.5-9,15.1-20.6,20.1-27.7c2.4-3.4,4.1-7.3,4.8-11.5c0.5-2.8,0.5-5.7,0.1-8.5c-0.7-4.5-2.6-8.6-6.9-9.6
			c-1.6-0.4-3.2-0.3-4.7,0.4c-1.7,0.7-3.1,1.9-4.1,3.4c-6.6,10.7-25.3,39.5-28.2,46.7c-0.5,1.2-0.8,2.4-1,3.6
			c-0.1,0.4-0.2,0.8-0.2,1.3C-659.2,267.4-647.6,286.7-639.8,294.5z"/>
		<path class="st15" d="M-639.8,294.5c5.7,6,11,12.3,16,18.9l1.5-1c0,0-8.6-11.9-12.6-16.8c-6.2-7.4-10.6-13.2-14.3-20
			c-3.7-6.8-5.4-19.9-3.5-23.6c1.9-3.7,12.9-19.9,15.2-23c2.3-3.1,21.5-22.2,16-27.6c-0.9-0.7-2-1-3.1-0.8c-1.7,0.7-3.1,1.9-4.1,3.4
			c-6.6,10.7-25.3,39.5-28.2,46.7c-0.5,1.2-0.8,2.4-1,3.6c-0.1,0.4-0.2,0.8-0.2,1.3C-659.2,267.4-647.6,286.7-639.8,294.5z"/>
		<path class="st16" d="M-609.2,311.7c0,0-2.6,9.3-14.3,14.6c-10.1,4.6,16.2,7.2,16.8,6.2s5.6-18,5.6-18L-609.2,311.7z"/>
		<path class="st9" d="M-408,557.5l2.5-131.8h-8.8l2.5,131.8c-0.2,1.1,0.4,2.1,1.5,2.4s2.1-0.4,2.4-1.5
			C-407.9,558.1-407.9,557.8-408,557.5z"/>
		<path class="st9" d="M-488.5,542.1l50.9-121.6l-8.1-3.2l-46.3,123.4c-0.6,0.9-0.4,2.1,0.5,2.7c0.9,0.6,2.1,0.4,2.7-0.5
			C-488.7,542.6-488.6,542.4-488.5,542.1z"/>
		<path class="st9" d="M-331.2,542.1l-50.9-121.6l8.1-3.2l46.3,123.4c0.6,0.9,0.4,2.1-0.5,2.7c-0.9,0.6-2.1,0.4-2.7-0.5
			C-331.1,542.6-331.2,542.4-331.2,542.1z"/>
		<g class="st10">
			<path d="M-447.2,421l5.2,2.1l-47.9,120.4c0.6-0.3,1.1-0.8,1.3-1.4l50.9-121.6l-8.1-3.2L-447.2,421z"/>
			<path d="M-414.2,429.2h6.5l-2.4,130.7c0.1,0,0.2,0,0.2,0c1.2-0.2,2-1.2,1.9-2.4l2.5-131.8h-8.8L-414.2,429.2z"/>
			<path d="M-327.7,540.6L-374,417.3l-8.1,3.2l0.9,2.2l5-2l46.1,122.7c0.5,0.3,1,0.4,1.5,0.2C-327.5,543-327.1,541.7-327.7,540.6z"
				/>
		</g>
		<path class="st11" d="M-346.1,380.6c0,50.5-28.6,62.6-63.8,62.6s-63.8-12.1-63.8-62.6s28.6-99.4,63.8-99.4
			S-346.1,330.1-346.1,380.6z"/>
		<path class="st12" d="M-404.8,431.9c-35.2,0-63.8-12.1-63.8-62.6c0-17,3.2-33.8,9.3-49.7c-9,17.5-14.4,39.1-14.4,61.1
			c0,50.5,28.6,62.6,63.8,62.6c27.6,0,51.2-7.4,60-35C-361,426.6-381.4,431.9-404.8,431.9z"/>
		<path class="st25" d="M-440.5,367.4c0,0-8.2,17.5-9.9,29.1c-2.4,17,1.2,24.4,22.9,25.1s28.1-3.6,38.5-3.6s22.5-19.7,9.1-43.1
			L-440.5,367.4z"/>
		<path class="st13" d="M-431.1,510.5l-0.4,6.6c0,0-6.4,19-6.8,23.7c-0.6,8.3,3.1,17.7,6.7,17.6c4.1-0.1,9.7-5.3,12.2-15.7
			c1.7-7.1-1.1-20.9-0.1-24.2s3-9.6,3-9.6L-431.1,510.5z"/>
		<path class="st21" d="M-418.8,538.7c-2.8,2.8-8.6,8.8-10.8,8.7c-2.4-0.1-6.5-7.4-7.9-10.4c-0.3,1.3-0.6,2.5-0.7,3.8
			c-0.6,8.3,3.1,17.7,6.7,17.6c4.1-0.1,9.7-5.3,12.2-15.7C-419.1,541.4-418.9,540-418.8,538.7z"/>
		<path class="st26" d="M-416.8,513.7c0,0,26-82.1,29.3-92.3s5.9-29.3-9.2-32.7c-13-2.9-18.5,16.5-20.8,28.4s-14.4,91.7-14.4,91.7
			s-1.4,4.5,6.4,5.8C-417.8,516-416.8,513.7-416.8,513.7z"/>
		<g class="st27">
			<path d="M-401.3,388.7c-5.6,7.7-8.5,22.1-10.1,30.2c-2.4,11.9-14.2,93.3-14.2,93.3s2,1,6.3,3c-0.7,0-1.4-0.1-2.1,0
				c-8.4,0.6-10.4-4.6-10.4-4.6s11.9-81.4,14.2-93.3C-415.5,406.8-411.1,390.7-401.3,388.7z"/>
		</g>
		<path class="st13" d="M-463.7,507.3l-0.9,6.6c0,0-7.8,18.5-8.4,23.2c-1.1,8.3,1.9,17.8,5.4,18c4.1,0.2,10.1-4.6,13.3-14.8
			c2.2-6.9,0.4-21,1.6-24.1s3.6-9.3,3.6-9.3L-463.7,507.3z"/>
		<path class="st21" d="M-453.5,536.3c-3,2.6-9.2,8.2-11.4,7.9c-2.3-0.3-6-7.8-7.1-10.9c-0.4,1.2-0.8,2.5-1,3.8
			c-1.1,8.3,1.9,17.8,5.4,18c4.1,0.2,10.1-4.6,13.3-14.8C-453.9,539-453.7,537.7-453.5,536.3z"/>
		<path class="st26" d="M-449.7,511.6c0,0,31.8-80.1,35.8-89.9s7.9-28.8-6.8-33.2c-12.8-3.8-19.6,15.1-22.8,26.9
			c-3.2,11.7-20.8,90.4-20.8,90.4s-1.7,4.4,5.9,6.2C-450.9,513.7-449.7,511.6-449.7,511.6z"/>
		<g class="st27">
			<path d="M-425.3,388c-6.2,7.3-10.1,21.5-12.2,29.4c-3.2,11.7-20.8,92.1-20.8,92.1s1.9,1.2,6.1,3.4c-0.7-0.1-1.4-0.1-2.1-0.2
				c-8.4,0-10.1-5.3-10.1-5.3s17.6-80.3,20.8-92.1C-440.8,405-435.2,389.2-425.3,388z"/>
		</g>
		<path id="_Path_" class="st28" d="M-426.4,201.3c0,0,2.9-12.4,23.5-8.4c19.7,3.8,18.4,31.3,20.7,38.7c2,6,4.4,11.8,7,17.6
			c0.3,0.8,0,1.6-0.7,2c0,0-0.1,0-0.1,0.1c-7.3,2.4-38.2,11.5-59.2-1.2c-1.9-1.1-3.4-2.8-4.2-4.8c-0.4-0.9-0.6-1.9-0.6-2.9
			c0.1-3.3,2-7.3,0.6-16.9S-439.2,201-426.4,201.3z"/>
		<path id="_Path_2" class="st13" d="M-432.5,227.8c-1.7,2.5-2.3,5.7-1.7,8.7c0.3,3,2.8,5.2,5.8,5.3l0.7-5.4l-1.4-9.5L-432.5,227.8z
			"/>
		<path id="_Path_3" class="st13" d="M-386.4,227.8c1.7,2.5,2.3,5.7,1.7,8.7c-0.3,3-2.8,5.2-5.8,5.3l-0.7-5.4l1.4-9.5L-386.4,227.8z
			"/>
		<path id="_Path_4" class="st3" d="M-383.1,332.9c-0.3,4.9-0.2,9.9,0.4,14.8c0.6,6.3,2.7,29.3,2.7,29.3c-4.2,1.5-8.6,2.7-13,3.5
			c-11.1,2.1-30.1-3.6-47.8-9.6c0,0,6.5-15.9,6.6-29c0-1.8,0-3.6-0.1-5.5c-0.4-4.1-1-8.1-1.9-12.1c-0.2-1-0.4-2-0.5-3.1
			c-0.7-3.8-1.3-8.1-1.8-12.3c-0.5-4.3-0.7-8.6-0.6-12.9c-1.6-11.5,1.9-22.9,1.9-22.9s14.6-6.1,20.7-6.9c0,0,10.9-2.5,18.6,0
			c10,3.3,15.5,5.3,20,7.7c0.5,0.3,3.4,8.8,2.1,16.3c-1.9,11-4.7,26.2-6.1,35.3C-382.6,329.2-383,331.9-383.1,332.9z"/>
		<path id="_Path_5" class="st29" d="M-380,379.7c-4.4-0.4-8.8-0.1-13,0.8c-3.1-7.9-2.1-36.7-2.1-36.7c-8.6-1.4-21.7-6.6-21.7-6.6
			c-3.4,1.6-14.1,4-17.4,4.7c0-1.8,0-3.6-0.1-5.5c-0.4-4.1-1-8.1-1.9-12.1c4-2.8,11.5,3.4,11.5,3.4l37.7-5.9c1.8,1.1,3.5,2.4,5,3.8
			c-0.6,3.6-1,6.3-1,7.4c-0.3,4.9-0.2,9.9,0.4,14.8C-382.1,354-380,379.7-380,379.7z"/>
		<path id="_Path_6" class="st13" d="M-388.1,221.6c0,5.5-1.1,18.4-4.6,26.9c-1.9,4.8-5.3,8.9-9.8,11.7c0,2.2-0.1,5.1,1.5,5.4
			c0.4,1,1,1.2,0.7,2.8c-1,5.5-7.4,11.6-9,13.1s-2.6,0-2.6,0c-1.8-2.1-3.4-4.4-4.7-6.9c-0.8-1.5-1.4-2.8-1.8-3.8
			c-0.6-1.4-0.4-3.1,0.4-4.4c1.7-0.2,1.1-3.8,0.9-5.8c-3.3-2.3-6.4-6.3-8.7-11c-4.6-9.4-4.9-21.4-4.9-27.9
			c0-11.7,9.5-21.2,21.2-21.2C-397.6,200.4-388.1,209.9-388.1,221.6L-388.1,221.6z"/>
		<path id="_Path_7" class="st20" d="M-402.7,260.3c-1.2,0.5-6.3,2.4-7.3,4.6c-1.1,2.5-1.7,6.4-2.8,7.6c-1.1,0.9-2.3,1.6-3.7,2.1
			c-0.8-1.5-1.4-2.8-1.8-3.8c-0.6-1.4-0.4-3.1,0.4-4.4c1.7-0.2,1.1-3.8,0.9-5.8c2.1,0.8,4.4,1.3,6.7,1.2
			C-407.7,261.5-405.1,261-402.7,260.3z"/>
		<path id="_Path_8" class="st13" d="M-394.9,316.3c1.5-0.3,2.9-0.5,4.4-0.6c1.1,0-2,9.6-2,9.6c-0.7-0.7-1.5-1.2-2.4-1.4
			c-1.3-0.2-0.8-7.5-0.8-7.5L-394.9,316.3z"/>
		<path id="_Path_9" class="st30" d="M-378,274c0,0,9.6,4.9,9,12.4s-11.8,48.1-13.7,53.5s-50.8-10.9-50.8-10.9s1.5-6.5,2.9-8.3
			c0,0,33.4,3.6,37.8,5.3c0,0,6.8-32.3,8.9-38S-378,274-378,274z"/>
		<path id="_Path_10" class="st31" d="M-394.3,324.6c-5.1,2.9-43.7,18.9-47.2,17.9s-7.9-4.2-8.5-13.6c-0.5-8.4,4.4-41.4,5.5-49.1
			c0.2-1.2,0.7-2.4,1.4-3.3c0.2-0.3,0.5-0.5,0.7-0.7c1.5-1.1,3.2-2.1,5-2.7c0.5,1.1,0.4,5.6,1,13.4c0.1,0.9,0,1.8-0.2,2.7
			c-1,4.6-2.1,10.5-2.1,13.7c0,0.2,0,0.4,0,0.6c0.3,3.3,2.8,9.6,2.8,12.3c0.1,6.3,0.1,7.2,0,7.3c1.4-0.2,6.2-1.1,12.1-2.1
			c12.1-2.2,28.8-5.2,28.8-5.2C-393.4,318.7-394.3,324.6-394.3,324.6z"/>
		<path id="_Path_11" class="st28" d="M-434.7,229.9c0,0,6.7-1.1,10.6-6.2c2-2.9,3.6-6,4.7-9.3c0,0,2.3,5,10.2,8.6
			c7.7,3.6,16,5.9,24.4,6.9c0,0,0.5-18.3-5.5-25.8s-21.6-11.7-32.2-5.3C-433.2,205.3-434.7,229.9-434.7,229.9z"/>
		<path id="_Path_12" class="st32" d="M-417.8,266.2c0,0,1.1,9.9,6,15.2c0,0-1.6-0.5-4.6,3.1c-0.3,0.3-0.8,0.4-1.1,0.1
			c-0.1-0.1-0.2-0.3-0.3-0.4c-0.9-4-4-13.9-2.3-17.3C-419.5,266.3-418.6,266-417.8,266.2z"/>
		<path id="_Path_13" class="st32" d="M-401.1,265.5c-0.8,2.9-1.8,5.7-3,8.5c-1.4,2.8-3.2,5.4-5.4,7.7c0,0,3.8,0.7,5.5,3.2
			c0.2,0.3,0.6,0.3,0.9,0.1c0.1-0.1,0.2-0.2,0.2-0.3c1.1-2.2,1.8-4.1,3-8.6c1.4-5.1,1.5-7.9,1.3-10
			C-399.2,265.3-400.2,265.1-401.1,265.5z"/>
		<path id="_Path_14" class="st29" d="M-438.4,325.6c-3.9-3.3,0.8-9.7,0.4-11.9s-0.3-2.6-0.6-4.8c-0.3-1.8-0.2-3.6,0-5.4
			c0.3,3.3,2.8,9.6,2.8,12.3c0.1,6.3,0.1,7.2,0,7.3c1.4-0.2,14.3-2.5,20.2-3.6C-414.1,320.1-435.8,327.9-438.4,325.6z"/>
		<path id="_Path_15" class="st13" d="M-431.5,322.2l-4.1,0.7c-2.6-0.2-5.2-0.3-7.8-0.2c-2,0.2-4,0.6-5.9,1.3
			c-0.4,0.1-0.9-0.2-1-0.6c0,0,0,0,0-0.1c-0.4-1.4-0.6-2.8-0.5-4.2c0.2-1.4,0.5-2.8,1.1-4.1c0.2-0.4,0.5-0.8,1-0.9
			c1.5-0.5,3.4-0.5,6-0.3c2.4,0,4.7,1.2,6.1,3.1l1.7,2c0.6,0.6,1.3,1.1,2.1,1.3l2,0.4c0,0-0.2,0.4-0.4,0.7
			C-431.3,321.7-431.4,322-431.5,322.2z"/>
		<polygon class="st33" points="-514.6,362.5 -512.7,325.4 -530.8,325.4 -528.9,362.5 		"/>
		<polygon class="st34" points="-527.3,360.7 -528.9,327.2 -514.5,327.2 -516.2,360.7 		"/>
		<polygon class="st35" points="-528.4,335.4 -527.3,360.7 -516.2,360.7 -515.1,335.4 		"/>
		<g class="st36">
			<path class="st1" d="M-526.1,357.1h3l-1.8-26.4c-0.4-3.2-3.3-3.4-2.9,0.3L-526.1,357.1z"/>
		</g>
		<rect x="-572.8" y="367.5" class="st37" width="84" height="5.3"/>
		<rect x="-572" y="362.3" class="st38" width="76.1" height="4.2"/>
		<rect x="-576" y="365.5" class="st39" width="84" height="2"/>
		<rect x="-570.5" y="363.9" class="st40" width="72.9" height="0.4"/>
		<rect x="-570.5" y="364.9" class="st40" width="72.9" height="0.4"/>
		<rect x="-570.5" y="362.9" class="st40" width="72.9" height="0.4"/>
		<rect x="-193.8" y="363.2" class="st41" width="34.7" height="8.6"/>
		<rect x="-170.1" y="363.2" class="st42" width="10.9" height="8.6"/>
		<rect x="-195.9" y="363.2" class="st42" width="34.7" height="1"/>
		<rect x="-195.9" y="370.8" class="st42" width="34.7" height="1"/>
		<rect x="-169.1" y="363.2" class="st43" width="45.2" height="8.6"/>
		<rect x="-164.3" y="365.2" class="st42" width="24.2" height="4.6"/>
		<rect x="-163" y="365.4" class="st44" width="21.6" height="4.1"/>
		<ellipse class="st42" cx="-130.2" cy="367.5" rx="2.8" ry="2.3"/>
		<rect x="-191.7" y="364.8" class="st42" width="19.8" height="0.9"/>
		<rect x="-191.7" y="368.1" class="st42" width="19.8" height="0.9"/>
		<rect x="-191.7" y="369.4" class="st42" width="19.8" height="0.9"/>
		<rect x="-185.5" y="366.7" class="st42" width="12.3" height="0.9"/>
		<rect x="-191.7" y="366.7" class="st42" width="5.2" height="0.9"/>
		<rect x="-200.3" y="354.8" class="st41" width="34.7" height="8.6"/>
		<rect x="-176.6" y="354.8" class="st42" width="10.9" height="8.6"/>
		<rect x="-202.5" y="354.8" class="st42" width="34.7" height="1"/>
		<rect x="-202.5" y="362.4" class="st42" width="34.7" height="1"/>
		<rect x="-175.6" y="354.8" class="st45" width="45.2" height="8.6"/>
		<rect x="-170.8" y="356.8" class="st42" width="24.2" height="4.6"/>
		<rect x="-169.5" y="357" class="st44" width="21.6" height="4.1"/>
		<ellipse class="st42" cx="-136.7" cy="359.1" rx="2.8" ry="2.3"/>
		<rect x="-198.3" y="356.4" class="st42" width="19.8" height="0.9"/>
		<rect x="-198.3" y="359.7" class="st42" width="19.8" height="0.9"/>
		<rect x="-198.3" y="361" class="st42" width="19.8" height="0.9"/>
		<rect x="-192.1" y="358.3" class="st42" width="12.3" height="0.9"/>
		<rect x="-198.3" y="358.3" class="st42" width="5.2" height="0.9"/>
		<rect x="-193.8" y="346.4" class="st41" width="34.7" height="8.6"/>
		<rect x="-170.1" y="346.4" class="st42" width="10.9" height="8.6"/>
		<rect x="-195.9" y="346.4" class="st42" width="34.7" height="1"/>
		<rect x="-195.9" y="354" class="st42" width="34.7" height="1"/>
		<rect x="-169.1" y="346.4" class="st46" width="45.2" height="8.6"/>
		<rect x="-164.3" y="348.4" class="st42" width="24.2" height="4.6"/>
		<rect x="-163" y="348.6" class="st44" width="21.6" height="4.1"/>
		<ellipse class="st42" cx="-130.2" cy="350.7" rx="2.8" ry="2.3"/>
		<rect x="-191.7" y="348" class="st42" width="19.8" height="0.9"/>
		<rect x="-191.7" y="351.3" class="st42" width="19.8" height="0.9"/>
		<rect x="-191.7" y="352.6" class="st42" width="19.8" height="0.9"/>
		<rect x="-185.5" y="349.9" class="st42" width="12.3" height="0.9"/>
		<rect x="-191.7" y="349.9" class="st42" width="5.2" height="0.9"/>
		<polygon class="st33" points="-120.9,371.6 -119,343.1 -137.1,343.1 -135.2,371.6 		"/>
		<polygon class="st34" points="-133.5,369.8 -135.2,344.8 -120.8,344.8 -122.5,369.8 		"/>
		<polygon class="st35" points="-134.7,353 -133.5,369.8 -122.5,369.8 -121.4,353 		"/>
		<g class="st36">
			<path class="st1" d="M-132.4,366.2h3l-1.8-17.9c-0.4-3.2-3.4-3.4-2.9,0.3L-132.4,366.2z"/>
		</g>
		<path class="st47" d="M-486.9,342.6c0.8,6.3,5,11.8,10.9,14.1c0,0,0.1,0,0.1-0.1c0,0,0-0.1,0-0.1c-5.8-2.7-10-7.5-10.8-13.9
			C-486.7,342.5-486.9,342.5-486.9,342.6L-486.9,342.6L-486.9,342.6z"/>
		<path class="st47" d="M-476.4,333.1c3.4,7.7,1.8,16.7-3.9,22.9c0,0,0,0.1,0,0.1c0,0,0.1,0,0.1,0c5.9-6.2,7.5-15.3,3.9-23.1
			C-476.4,332.9-476.5,333-476.4,333.1L-476.4,333.1L-476.4,333.1z"/>
		<path class="st47" d="M-459.8,336.6c3.1,3.9,1.4,8.5-0.6,12.5c-1.7,3.5-5.3,5.2-8.7,6.7c-0.1,0-0.1,0.1,0,0.2
			c0,0.1,0.1,0.1,0.1,0.1c4.4-1.6,7.7-4,9.5-8.4c1.6-3.9,2.7-7.7-0.2-11.2C-459.7,336.4-459.9,336.5-459.8,336.6L-459.8,336.6
			L-459.8,336.6z"/>
		<path class="st47" d="M-461.6,349.2c2.9,0.5,5.9-0.7,7.7-3.1c0-0.1,0-0.1-0.1-0.1c0,0-0.1,0-0.1,0c-1.9,2.2-4.6,3.3-7.5,3.1
			C-461.6,349.1-461.6,349.1-461.6,349.2C-461.6,349.2-461.6,349.2-461.6,349.2L-461.6,349.2L-461.6,349.2z"/>
		<path class="st47" d="M-469.6,334.4c-0.5,4.3-1.6,11.6-5.9,13.7c0,0-0.1,0.1,0,0.1c0,0,0.1,0.1,0.1,0c4.5-1.7,5.6-9.8,6-13.8
			C-469.5,334.3-469.6,334.3-469.6,334.4L-469.6,334.4L-469.6,334.4z"/>
		<path class="st47" d="M-494.7,340.4c0.7,4.9,5,8.6,9.9,8.4c0,0,0.1,0,0.1-0.1s0-0.1-0.1-0.1c-4.9,0-9-3.5-9.8-8.3
			C-494.6,340.2-494.7,340.3-494.7,340.4L-494.7,340.4L-494.7,340.4z"/>
		<path class="st3" d="M-454.6,351.9h-35.9c0,0-2.9,7-2.9,8.8s4,5.3,8.2,5.3h25.3c4.3,0,8.2-3.6,8.2-5.3S-454.6,351.9-454.6,351.9z"
			/>
		<polygon class="st31" points="-458.4,367.7 -486.7,367.7 -485.7,365.9 -459.4,365.9 		"/>
		<path class="st31" d="M-482.5,360.6c0-1.7,2.9-8.8,2.9-8.8h-10.9c0,0-2.9,7-2.9,8.8s4,5.3,8.2,5.3h10.9
			C-478.5,365.9-482.5,362.4-482.5,360.6z"/>
		<polygon class="st48" points="-485.7,365.9 -486.7,367.7 -475.8,367.7 -474.8,365.9 		"/>
		<path class="st49" d="M-473.9,338.8c0.8-0.6,4-1.8,6.2-0.4c2.6,1.5,4.2,4.3,4.5,7.3c-1.9,0.4-3.9,0.6-5.9,0.6
			C-475.9,345.7-475.4,340-473.9,338.8z"/>
		<path class="st49" d="M-457.5,335.2c0.5-0.5,2.7-1.4,4.3-0.5c1.8,1,3.1,2.8,3.3,4.9c-1.3,0.4-2.7,0.6-4.1,0.6
			C-458.7,340-458.5,336.1-457.5,335.2z"/>
		<path class="st49" d="M-459,332.9c-0.9-0.4-2.1-0.4-2.9,0.2c-1.1,0.9-1.7,2.3-1.6,3.7c0.9,0.1,1.9,0,2.8-0.1
			C-457.6,336-458.2,333.4-459,332.9z"/>
		<path class="st49" d="M-490.9,336.3c-0.7-0.3-1.5-0.5-2.3-0.3c-1.7,0.3-2.8,1.9-2.5,3.6c0,0.2,0.1,0.4,0.1,0.5
			c0.5,0.9,1.4,1.4,2.4,1.4c1.8,0.2,4-1.2,5.9-1.8C-488.1,338.1-489.4,337-490.9,336.3z"/>
		<path class="st49" d="M-486.2,341c-0.8,0.4-1.3,1.2-1.3,2c0.2,1.1,1.2,1.8,2.2,1.8c1.1,0,4.8-1,6.4-0.2
			C-481.6,339.4-484.5,339.9-486.2,341z"/>
		<path class="st49" d="M-454.5,342.8c-0.7,0.3-1.2,0.8-1.3,1.5c-0.1,0.9,0.5,1.7,1.3,1.9c0.8,0.2,3.7-0.1,4.7,0.8
			C-449.7,343-453,342.2-454.5,342.8z"/>
		<path class="st49" d="M-474.5,348c0.9-0.2,4.1-0.5,5.4,1.2c2.4,3.2,0.3,5.9,0.1,6.9c-1.7-0.3-3.4-0.7-5-1.4
			C-479.3,352.2-477.4,348.4-474.5,348z"/>
		<path class="st49" d="M-486.2,348.6c-0.8-0.3-3.4-0.2-4.5,1.5c-1.3,2.1-1.7,4.6-0.9,6.9c1.5-0.2,3-0.6,4.4-1.3
			C-482.6,353.3-484.8,349-486.2,348.6z"/>
		<path class="st49" d="M-477.6,332.7c0.8,0.1,1.5,0.7,1.9,1.4c0.3,1-0.2,2-1.1,2.4c-0.8,0.4-4.2,0.8-5.2,2.1
			C-481.9,332.8-479.5,332.3-477.6,332.7z"/>
		<g class="st7">
			<path class="st50" d="M-495.7,338.4c2.8-0.2,5.7,0.3,8.3,1.4c0,0,0.1,0,0-0.1C-490,338.6-492.8,338.1-495.7,338.4
				C-495.7,338.4-495.7,338.4-495.7,338.4L-495.7,338.4L-495.7,338.4z"/>
			<path class="st50" d="M-494.7,337.8c2.1-0.7,4.4-0.4,6.4,0.6c0,0,0,0,0,0c0,0,0,0,0,0C-490.2,337.2-492.6,336.9-494.7,337.8
				C-494.7,337.7-494.7,337.7-494.7,337.8C-494.7,337.7-494.7,337.8-494.7,337.8L-494.7,337.8L-494.7,337.8z"/>
			<path class="st50" d="M-495.2,338.8c0.9,2,4.2,1.7,5.9,1.3c0,0,0,0,0-0.1c0,0,0,0-0.1,0C-491,340.3-494.2,340.7-495.2,338.8
				C-495.1,338.7-495.2,338.7-495.2,338.8L-495.2,338.8L-495.2,338.8z"/>
			<path class="st50" d="M-486.7,341.8c2.7-1.2,5.9-0.1,7.3,2.5c0,0,0,0,0,0c0,0,0,0,0,0l0,0C-480.7,341.6-484,340.5-486.7,341.8
				C-486.7,341.7-486.8,341.7-486.7,341.8C-486.7,341.8-486.7,341.8-486.7,341.8L-486.7,341.8L-486.7,341.8z"/>
			<path class="st50" d="M-486.4,342.1c2.3,0.3,4.5,0.9,6.6,1.8c0,0,0,0,0,0C-481.8,342.9-484.1,342.3-486.4,342.1
				C-486.4,342.1-486.4,342.1-486.4,342.1L-486.4,342.1L-486.4,342.1z"/>
			<path class="st50" d="M-487.1,342.8c2.1,1.2,4.6,1.8,7,1.6c0.1,0,0.1-0.1,0-0.1C-482.5,344.4-484.9,343.9-487.1,342.8
				C-487.1,342.7-487.1,342.7-487.1,342.8C-487.1,342.7-487.1,342.7-487.1,342.8L-487.1,342.8L-487.1,342.8z"/>
			<path class="st50" d="M-481.8,338.4c1.2-2,3-3.6,5-4.7c0,0,0,0,0-0.1c0,0,0,0-0.1,0C-479,334.6-480.8,336.3-481.8,338.4
				C-481.9,338.4-481.9,338.4-481.8,338.4C-481.9,338.4-481.8,338.4-481.8,338.4L-481.8,338.4L-481.8,338.4z"/>
			<path class="st50" d="M-479.7,337.4c1.7-0.6,3.1-1.9,3.9-3.5c0,0,0,0,0-0.1c0,0,0,0-0.1,0C-476.7,335.4-478.1,336.6-479.7,337.4
				C-479.7,337.4-479.7,337.4-479.7,337.4L-479.7,337.4L-479.7,337.4z"/>
			<path class="st50" d="M-481.8,337c0.6-2.1,2.5-3.7,4.7-3.8c0,0,0,0,0-0.1c0,0,0,0,0,0C-479.4,333.2-481.3,334.8-481.8,337
				C-481.9,337-481.9,337-481.8,337C-481.8,337-481.8,337-481.8,337L-481.8,337L-481.8,337z"/>
			<path class="st50" d="M-463.1,336.9c0.9-1.5,2.2-2.7,3.7-3.5c0,0,0,0,0-0.1c0,0,0,0-0.1,0C-461.1,334.1-462.4,335.4-463.1,336.9
				C-463.2,336.9-463.2,336.9-463.1,336.9C-463.2,337-463.1,336.9-463.1,336.9L-463.1,336.9z"/>
			<path class="st50" d="M-461.6,336.2c1.2-0.5,2.3-1.4,2.9-2.6c0,0,0,0,0-0.1c0,0,0,0-0.1,0C-459.4,334.7-460.4,335.6-461.6,336.2
				C-461.6,336.1-461.6,336.2-461.6,336.2L-461.6,336.2L-461.6,336.2z"/>
			<path class="st50" d="M-463.1,335.9c0.4-1.6,1.8-2.7,3.5-2.8c0,0,0,0,0-0.1c0,0,0,0,0,0C-461.3,333-462.8,334.2-463.1,335.9
				C-463.2,335.9-463.2,335.9-463.1,335.9C-463.1,335.9-463.1,335.9-463.1,335.9L-463.1,335.9L-463.1,335.9z"/>
			<path class="st50" d="M-491.3,356.5c1.5-2.8,3.5-5.4,6-7.4c0,0,0,0,0-0.1c0,0,0,0,0,0C-487.9,350.9-490,353.5-491.3,356.5
				C-491.4,356.5-491.3,356.5-491.3,356.5L-491.3,356.5L-491.3,356.5z"/>
			<path class="st50" d="M-491.6,356.6c-0.6-3.7,1.9-7.2,5.6-7.9c0,0,0,0,0-0.1c0,0,0,0,0,0C-489.8,349.3-492.3,352.8-491.6,356.6
				C-491.7,356.6-491.6,356.6-491.6,356.6L-491.6,356.6L-491.6,356.6z"/>
			<path class="st50" d="M-491,356.4c3.4-0.3,6-3,6.2-6.4c0,0-0.1,0-0.1,0C-485.1,353.3-487.7,356-491,356.4
				C-491,356.3-491,356.4-491,356.4L-491,356.4L-491,356.4z"/>
			<path class="st50" d="M-475.6,348.7c2.8,1.3,4.9,3.8,5.6,6.8c0,0,0,0,0,0s0,0,0,0C-470.6,352.4-472.7,349.9-475.6,348.7
				C-475.6,348.6-475.7,348.7-475.6,348.7L-475.6,348.7L-475.6,348.7z"/>
			<path class="st50" d="M-475.3,348.8c3.1,0.5,6.6,1.5,6.4,5.3c0,0,0,0,0,0c0,0,0,0,0,0C-468.4,350.3-472.1,349.2-475.3,348.8
				C-475.3,348.8-475.3,348.8-475.3,348.8L-475.3,348.8L-475.3,348.8z"/>
			<path class="st50" d="M-475.4,349.4c-0.6,2.9,2.3,4.5,4.6,5.4c0,0,0,0,0,0c0,0,0,0,0,0C-473,353.7-476,352.3-475.4,349.4
				C-475.3,349.3-475.4,349.3-475.4,349.4L-475.4,349.4L-475.4,349.4z"/>
			<path class="st50" d="M-474.1,339.9c0.1,4.2,6.2,5.5,9.5,5.5c0,0,0,0,0,0c0,0,0,0,0,0C-467.9,345.3-473.9,344.1-474.1,339.9
				C-474.1,339.9-474.1,339.9-474.1,339.9C-474.1,339.9-474.1,339.9-474.1,339.9L-474.1,339.9z"/>
			<path class="st50" d="M-473.3,340.4c2.9,2.1,6,3.7,9.3,5c0,0,0.1-0.1,0-0.1C-467.2,344.1-470.4,342.4-473.3,340.4
				C-473.3,340.4-473.3,340.4-473.3,340.4L-473.3,340.4L-473.3,340.4z"/>
			<path class="st50" d="M-473.2,339.8c3.7,0.7,7,2.6,9.4,5.5c0,0,0.1,0,0.1-0.1C-466.1,342.3-469.5,340.3-473.2,339.8
				C-473.2,339.7-473.2,339.8-473.2,339.8L-473.2,339.8L-473.2,339.8z"/>
			<path class="st50" d="M-472.8,338.8c4.7-0.3,8.7,1.5,9.2,6.6c0,0,0,0,0,0c0,0,0,0,0,0c0-2-0.9-3.9-2.5-5.2
				C-468,338.6-470.4,338.5-472.8,338.8C-472.9,338.7-472.9,338.8-472.8,338.8L-472.8,338.8L-472.8,338.8z"/>
			<path class="st50" d="M-458,336.2c0.3,3,4.8,3.6,7.2,3.4c0,0,0,0,0,0c0,0,0,0,0,0C-453.1,339.6-457.5,339.2-458,336.2
				C-457.9,336.2-458,336.2-458,336.2C-458,336.2-458,336.2-458,336.2L-458,336.2L-458,336.2z"/>
			<path class="st50" d="M-457.4,336.5c2.2,1.3,4.6,2.3,7.1,3c0,0,0,0,0,0c0,0,0,0,0,0C-452.7,338.8-455.1,337.8-457.4,336.5
				C-457.3,336.5-457.4,336.5-457.4,336.5C-457.4,336.5-457.4,336.5-457.4,336.5L-457.4,336.5L-457.4,336.5z"/>
			<path class="st50" d="M-457.3,336.1c2.7,0.3,5.2,1.5,7.1,3.4c0,0,0.1,0,0.1,0c0,0,0,0,0-0.1
				C-452.1,337.4-454.6,336.2-457.3,336.1C-457.4,336-457.4,336.1-457.3,336.1L-457.3,336.1L-457.3,336.1z"/>
			<path class="st50" d="M-457.1,335.3c3.3-0.4,6.3,0.5,7,4.2c0,0,0,0,0,0c0,0,0,0,0,0c-0.1-1.4-0.9-2.7-2.1-3.5
				C-453.6,335.1-455.4,334.8-457.1,335.3C-457.1,335.3-457.1,335.3-457.1,335.3C-457.1,335.3-457.1,335.3-457.1,335.3L-457.1,335.3
				L-457.1,335.3z"/>
			<path class="st50" d="M-455.7,344.5c0.3,0.5,0.8,0.9,1.5,1.1c0.6,0.2,1.3,0.1,1.9,0.2c0.9,0.2,1.8,0.5,2.6,1c0,0,0,0,0,0
				c0,0,0,0,0,0c-0.9-0.6-1.9-1-3-1.1C-453.9,345.6-455.1,345.6-455.7,344.5C-455.7,344.5-455.7,344.5-455.7,344.5
				C-455.7,344.5-455.7,344.5-455.7,344.5L-455.7,344.5L-455.7,344.5z"/>
			<path class="st50" d="M-455.3,344c2.1,0,4.1,1,5.3,2.7c0,0,0,0,0,0c0,0,0,0,0,0C-451.2,344.9-453.2,343.9-455.3,344
				C-455.4,343.9-455.4,343.9-455.3,344C-455.4,344-455.4,344-455.3,344L-455.3,344L-455.3,344z"/>
			<path class="st50" d="M-454.7,343.6c1.9-0.7,3.9,0.3,4.6,2.2c0,0.1,0.1,0.2,0.1,0.4c0,0,0,0,0,0c0,0,0,0,0,0
				c-0.4-1.9-2.3-3.1-4.3-2.7C-454.4,343.5-454.6,343.5-454.7,343.6C-454.8,343.6-454.8,343.6-454.7,343.6L-454.7,343.6
				L-454.7,343.6z"/>
		</g>
		<path class="st50" d="M-494.2,342.2c-0.7-0.6-3.7-1.8-5.6-0.4c-2.5,1.8-4.1,4.5-4.4,7.5c1.9,0.4,3.8,0.4,5.7,0.3
			C-492.3,349.1-492.8,343.4-494.2,342.2z"/>
		<path class="st50" d="M-460.2,335.8c-0.6-0.4-3-1.1-4.4,0.1c-1.7,1.5-2.7,3.7-2.6,5.9c1.4,0.2,2.8,0.2,4.2,0
			C-458.2,341-459,336.6-460.2,335.8z"/>
		<path class="st50" d="M-475,329.1c-0.7,0.3-1.2,0.8-1.3,1.5c-0.1,0.9,0.5,1.7,1.3,1.9c0.8,0.2,3.7-0.1,4.7,0.8
			C-470.2,329.3-473.5,328.4-475,329.1z"/>
		<path class="st50" d="M-461.3,348.3c0.7-0.4,3.5-1.3,5.1-0.1c2.9,2.1,1.7,4.8,1.7,5.7c-1.6,0.2-3.2,0.1-4.7-0.1
			C-464.5,352.8-463.7,349.3-461.3,348.3z"/>
		<path class="st49" d="M-503.8,349.1c1.2-0.8,2.4-1.7,3.3-2.7c1.6-1.5,3.4-2.8,5.5-3.5c0.1,0,0-0.1,0-0.1
			C-498.8,343.9-500.6,347.2-503.8,349.1C-503.9,349-503.9,349.1-503.8,349.1C-503.9,349.1-503.9,349.1-503.8,349.1L-503.8,349.1
			L-503.8,349.1L-503.8,349.1z"/>
		<path class="st49" d="M-503.8,348.7c0.9-1.5,1.8-2.9,2.9-4.2c1.6-1.8,3.5-2.2,5.8-2.1c0.1,0,0.1-0.1,0-0.1
			C-499.9,341.5-501.8,345.2-503.8,348.7C-503.9,348.7-503.9,348.7-503.8,348.7C-503.9,348.7-503.8,348.7-503.8,348.7L-503.8,348.7
			L-503.8,348.7z"/>
		<path class="st49" d="M-502.7,349.3c3.5-0.2,9.5-0.9,8.5-5.9c0,0-0.1-0.1-0.1,0c0,0,0,0,0,0.1c0,1.6-0.2,3.2-1.6,4.2
			C-497.6,348.9-500.6,349.1-502.7,349.3C-502.7,349.2-502.7,349.3-502.7,349.3L-502.7,349.3L-502.7,349.3z"/>
		<path class="st49" d="M-503.5,349.2c1.8-0.6,3.8-1,5.5-1.7c1.7-0.8,2.5-2.3,3.4-3.9c0,0,0-0.1,0-0.1s-0.1,0-0.1,0
			c-1.2,2-2.1,3.4-4.3,4.2C-500.5,348.2-502,348.6-503.5,349.2C-503.5,349.1-503.5,349.2-503.5,349.2L-503.5,349.2L-503.5,349.2z"/>
		<path class="st49" d="M-475.2,330.2c1.7,0.4,3.3,1.4,4.6,2.6c0,0,0,0,0,0s0,0,0,0C-471.8,331.5-473.4,330.5-475.2,330.2
			C-475.2,330.2-475.2,330.2-475.2,330.2C-475.2,330.2-475.2,330.2-475.2,330.2L-475.2,330.2z"/>
		<path class="st49" d="M-475.9,330.7c0.2,0.5,0.6,0.8,1.1,0.9c1.1,0.4,2.2,0.7,3.3,1c0,0,0,0,0,0s0,0,0,0c-0.7-0.3-1.4-0.5-2.1-0.7
			C-474.3,331.6-475.5,331.5-475.9,330.7C-475.8,330.6-475.9,330.7-475.9,330.7L-475.9,330.7L-475.9,330.7z"/>
		<path class="st49" d="M-475.2,329.9c2-0.3,4,0.8,4.7,2.7c0,0,0.1,0,0.1,0C-471,330.6-473.1,329.4-475.2,329.9
			C-475.3,329.8-475.2,329.9-475.2,329.9L-475.2,329.9L-475.2,329.9z"/>
		<path class="st49" d="M-466.6,341.7c2.1-1.4,4.2-3,6.2-4.6c0,0,0,0,0,0c0,0,0,0,0,0C-462.6,338.5-464.5,340.2-466.6,341.7
			C-466.7,341.7-466.7,341.8-466.6,341.7L-466.6,341.7L-466.6,341.7z"/>
		<path class="st49" d="M-466.1,341.7c2.4-0.4,5-1.8,6-4.1c0,0,0,0,0,0c0,0,0,0,0,0C-461.3,339.7-463.6,341.3-466.1,341.7
			C-466.1,341.6-466.1,341.7-466.1,341.7L-466.1,341.7L-466.1,341.7z"/>
		<path class="st49" d="M-466.7,341.4c1.2-2.3,3.2-4,5.7-4.7c0,0,0,0,0,0c0,0,0,0,0,0C-463.6,337.3-465.7,339.1-466.7,341.4
			C-466.8,341.4-466.8,341.4-466.7,341.4C-466.8,341.5-466.7,341.4-466.7,341.4L-466.7,341.4L-466.7,341.4z"/>
		<path class="st49" d="M-465.6,341.7c1.6,0.1,3.3-0.3,4.7-1.2c1-0.5,1.4-1.7,1-2.7c0,0-0.1,0-0.1,0
			C-459,341-463.6,341.6-465.6,341.7C-465.6,341.7-465.6,341.7-465.6,341.7C-465.6,341.7-465.6,341.7-465.6,341.7L-465.6,341.7z"/>
		<path class="st49" d="M-466.9,341c0.7-2.8,2.5-5,5.6-4.8c0.1,0,0.1-0.1,0-0.1C-464.4,335.7-466.4,338.2-466.9,341
			C-467,341-467,341-466.9,341C-466.9,341-466.9,341-466.9,341L-466.9,341L-466.9,341z"/>
		<path class="st49" d="M-460.5,348.6c2.1,1.4,4,3.1,5.6,5c0,0,0.1,0,0,0C-456.4,351.6-458.3,349.9-460.5,348.6
			C-460.5,348.6-460.5,348.6-460.5,348.6C-460.5,348.6-460.5,348.6-460.5,348.6L-460.5,348.6z"/>
		<path class="st49" d="M-460.2,348.4c2.6,0.4,4.8,2.3,5.5,4.9c0,0,0,0,0,0c0,0,0,0,0,0l0,0C-455.3,350.7-457.5,348.7-460.2,348.4
			C-460.2,348.4-460.3,348.4-460.2,348.4L-460.2,348.4z"/>
		<path class="st49" d="M-459.7,348.3c1.4-0.2,2.7,0.2,3.8,1.1c0.8,0.9,1.3,2,1.2,3.2c0,0,0,0,0,0s0,0,0,0c0.1-1.2-0.3-2.4-1.2-3.3
			C-456.9,348.4-458.3,348-459.7,348.3C-459.7,348.2-459.7,348.3-459.7,348.3L-459.7,348.3L-459.7,348.3z"/>
		<path class="st49" d="M-460.7,348.6c-1.6,2.3,4.2,4.7,5.6,5c0,0,0,0,0,0c0,0,0,0,0,0C-456.4,353.2-462.1,350.9-460.7,348.6
			C-460.6,348.6-460.7,348.6-460.7,348.6L-460.7,348.6z"/>
		<path class="st49" d="M-461.3,348.9c-0.8,0.6-1.1,1.7-0.5,2.6c0.1,0.1,0.2,0.2,0.3,0.3c1.2,1.4,3.6,1.9,5.4,1.9c0,0,0,0,0,0
			c0,0,0,0,0,0c-1.1,0-2.2-0.3-3.3-0.6C-460.8,352.4-463.6,350.4-461.3,348.9C-461.3,348.9-461.3,348.9-461.3,348.9
			C-461.3,348.9-461.3,348.8-461.3,348.9L-461.3,348.9L-461.3,348.9z"/>
		<rect x="-554.3" y="378.9" class="st51" width="10" height="197.2"/>
		<rect x="-141.7" y="378.9" class="st51" width="10" height="197.2"/>
		<rect x="-574.6" y="373.2" class="st51" width="463.3" height="8.7"/>
		<rect x="-579.5" y="371.4" class="st8" width="473" height="3.9"/>
		<rect x="-497.3" y="369.4" class="st39" width="100" height="2"/>
		<path class="st38" d="M-401.5,366.8c0,0-39.5-2.3-45.3,1.7c-8-3.6-46.2-1.7-46.2-1.7v2.6h91.5V366.8z"/>
		<path class="st40" d="M-401.5,368.6c-3.8-0.3-7.6-0.5-11.4-0.7c-3.8-0.2-7.6-0.4-11.4-0.5c-3.8-0.1-7.6-0.1-11.4,0
			c-1.9,0.1-3.8,0.2-5.7,0.4c-0.9,0.1-1.9,0.3-2.8,0.5c-0.9,0.2-1.8,0.5-2.6,1l-0.1,0.1l-0.1,0c-0.9-0.4-1.8-0.6-2.7-0.8
			c-0.9-0.2-1.9-0.3-2.8-0.4c-1.9-0.2-3.8-0.3-5.8-0.4c-3.9-0.2-7.7-0.1-11.6-0.1c-3.9,0.1-7.7,0.2-11.6,0.4
			c-3.9,0.2-7.7,0.4-11.6,0.7c7.7-0.7,15.4-1.2,23.2-1.4c3.9-0.1,7.7-0.1,11.6,0c1.9,0.1,3.9,0.2,5.8,0.4c1,0.1,1.9,0.2,2.9,0.4
			c1,0.2,1.9,0.4,2.8,0.8l-0.2,0c0.8-0.5,1.8-0.8,2.7-1c0.9-0.2,1.9-0.4,2.8-0.5c1.9-0.2,3.8-0.3,5.7-0.4c3.8-0.1,7.6-0.1,11.4,0.1
			C-416.7,367.3-409.1,367.8-401.5,368.6z"/>
		<path class="st40" d="M-401.5,368.6c-3.8-0.1-7.6-0.2-11.3-0.2c-3.8-0.1-7.6-0.1-11.3-0.2s-7.6,0-11.3,0.1c-1.9,0-3.8,0.1-5.7,0.2
			c-0.9,0.1-1.9,0.1-2.8,0.2c-0.9,0.1-1.8,0.2-2.7,0.5l-0.1,0l-0.1,0c-0.9-0.2-1.9-0.3-2.8-0.3c-1-0.1-1.9-0.1-2.9-0.1
			c-1.9-0.1-3.8-0.1-5.7-0.1c-3.8,0-7.7,0-11.5,0l-23,0.3l11.5-0.4l11.5-0.2c3.8-0.1,7.7-0.1,11.5-0.1c1.9,0,3.8,0,5.7,0.1
			c1,0,1.9,0.1,2.9,0.1c1,0,1.9,0.1,2.9,0.3l-0.1,0c0.9-0.3,1.9-0.4,2.8-0.5c0.9-0.1,1.9-0.2,2.8-0.2c1.9-0.1,3.8-0.2,5.7-0.2
			c3.8-0.1,7.6,0,11.4,0s7.6,0.1,11.4,0.2C-409.1,368.2-405.3,368.4-401.5,368.6z"/>
		<rect x="-354" y="369.4" class="st39" width="100" height="2"/>
		<path class="st38" d="M-258.3,366.8c0,0-39.5-2.3-45.3,1.7c-8-3.6-46.2-1.7-46.2-1.7v2.6h91.5L-258.3,366.8L-258.3,366.8z"/>
		<path class="st40" d="M-258.3,368.6c-3.8-0.3-7.6-0.5-11.4-0.7s-7.6-0.4-11.4-0.5s-7.6-0.1-11.4,0c-1.9,0.1-3.8,0.2-5.7,0.4
			c-0.9,0.1-1.9,0.3-2.8,0.5c-0.9,0.2-1.8,0.5-2.6,1l-0.1,0.1l-0.1,0c-0.9-0.4-1.8-0.6-2.7-0.8c-0.9-0.2-1.9-0.3-2.9-0.4
			c-1.9-0.2-3.8-0.3-5.8-0.4c-3.9-0.2-7.7-0.1-11.6-0.1s-7.7,0.2-11.6,0.4c-3.9,0.2-7.7,0.4-11.6,0.7c7.7-0.7,15.4-1.2,23.2-1.4
			c3.9-0.1,7.7-0.1,11.6,0c1.9,0.1,3.9,0.2,5.8,0.4c1,0.1,1.9,0.2,2.9,0.4c1,0.2,1.9,0.4,2.8,0.8l-0.2,0c0.8-0.5,1.8-0.8,2.7-1
			c0.9-0.2,1.9-0.4,2.8-0.5c1.9-0.2,3.8-0.3,5.7-0.4c3.8-0.1,7.6-0.1,11.4,0.1C-273.4,367.3-265.8,367.8-258.3,368.6z"/>
		<path class="st40" d="M-258.3,368.6c-3.8-0.1-7.6-0.2-11.3-0.2c-3.8-0.1-7.6-0.1-11.3-0.2s-7.6,0-11.3,0.1c-1.9,0-3.8,0.1-5.7,0.2
			c-0.9,0.1-1.9,0.1-2.8,0.2c-0.9,0.1-1.8,0.2-2.7,0.5l-0.1,0l-0.1,0c-0.9-0.2-1.9-0.3-2.8-0.3c-1-0.1-1.9-0.1-2.9-0.1
			c-1.9-0.1-3.8-0.1-5.7-0.1c-3.8,0-7.7,0-11.5,0l-23,0.3l11.5-0.4l11.5-0.2c3.8-0.1,7.7-0.1,11.5-0.1c1.9,0,3.8,0,5.7,0.1
			c1,0,1.9,0.1,2.9,0.1c1,0,1.9,0.1,2.9,0.3l-0.1,0c0.9-0.3,1.9-0.4,2.8-0.5c0.9-0.1,1.9-0.2,2.8-0.2c1.9-0.1,3.8-0.2,5.7-0.2
			c3.8-0.1,7.6,0,11.4,0s7.6,0.1,11.4,0.2C-265.8,368.2-262,368.4-258.3,368.6z"/>
		<polygon class="st13" points="-205.9,540.3 -204.2,550.3 -196.6,550.3 -193.4,549.7 -195.8,534.2 		"/>
		<path id="_Path_16" class="st52" d="M-194.7,537.4c-0.7,0.3-1.5,0.6-2.3,0.9c-3.2,1-6.5,1.7-9.9,2.2
			c-9.1-14.9-32.7-87.7-32.7-87.7c-2.2-9.2,11.6,2.6,17.4,2.2c1.8-0.1,3.6,0.1,5.3,0.8c5.5,2.3,13.5,17.9,13.5,17.9s2.5,5.4,5,16.5
			S-194.7,537.4-194.7,537.4z"/>
		<path id="_Path_17" class="st53" d="M-194.7,537.4c-0.7,0.3-1.5,0.6-2.3,0.9c-0.6-4.4-1.4-11.5-2.7-22.7
			c-2.8-25.2-18.8-54.1-22.5-60.5c1.8-0.1,3.6,0.1,5.3,0.8c5.5,2.3,13.5,17.9,13.5,17.9s2.5,5.4,5,16.5S-194.7,537.4-194.7,537.4z"
			/>
		<path id="_Path_18" class="st52" d="M-204.7,548.8c2,0,3.9-0.3,5.8-0.9c1.8-0.7,3.5-1.7,4.9-3.1c0,0,8.1,4.9,8.1,13.8
			c0,0.5-0.3,0.9-0.7,1c0,0-19.4,8.6-26,11c-3.5,1.1-7.1,2-10.7,2.8c-0.5,0.1-0.9-0.1-1.1-0.5c-0.4-0.9-0.5-2.5,1.5-4
			c3-2.3,6.3-4.2,8.6-6.1s4.6-7.2,6.5-8.7C-206.5,552.7-205.4,550.8-204.7,548.8z"/>
		<g>
			<defs>
				<path id="SVGID_1_" d="M-217.4,444.9l29.4,7l34.8,0.2l36-9.1l64.4,120l-8.8,36.2c0,0-203.4,14.6-208.9,10s-30.9-29.3-34.5-38.9
					S-217.4,444.9-217.4,444.9z"/>
			</defs>
			<clipPath id="SVGID_2_">
				<use xlink:href="#SVGID_1_"  style="overflow:visible;"/>
			</clipPath>
			<g class="st54">
				<path class="st9" d="M-164.6,592.8l2.8-151.2h-10.1l2.8,151.2c0,1.5,1,2.8,2.2,2.8S-164.6,594.4-164.6,592.8z"/>
				<path class="st9" d="M-257.1,575.2l58.4-139.5l-9.4-3.7l-53.2,141.6c-0.5,1.4-0.1,3,1,3.4S-257.7,576.6-257.1,575.2z"/>
				<path class="st9" d="M-76.6,575.2L-135,435.6l9.4-3.7l53.2,141.6c0.5,1.4,0.1,3-1,3.4S-76,576.6-76.6,575.2z"/>
				<g class="st10">
					<path d="M-209.6,436.3l6,2.4l-54.9,138.2c0.7-0.4,1.2-0.9,1.5-1.7l58.4-139.5l-9.4-3.7L-209.6,436.3z"/>
					<path d="M-171.8,445.6h7.5l-2.8,150c0.1,0,0.2,0,0.3,0c1.2,0,2.2-1.2,2.2-2.8l2.8-151.2h-10.1L-171.8,445.6z"/>
					<path d="M-72.5,573.5l-53.2-141.6l-9.4,3.7l1.1,2.6l5.8-2.3l52.9,140.8c0.5,0.4,1.2,0.4,1.8,0.2
						C-72.4,576.5-71.9,575-72.5,573.5z"/>
				</g>
			</g>
		</g>
		<path id="_Path_19" class="st1" d="M-237.7,364.9h-92.4l-18.3-57.5c-0.8-2.4,0.6-4.9,2.9-5.6c0.4-0.1,0.9-0.2,1.4-0.2h83
			c2,0,3.7,1.3,4.3,3.1L-237.7,364.9z"/>
		<path id="_Path_20" class="st55" d="M-239.2,364.9h-88.5l-18.1-56.5c-0.7-2.3,0.6-4.8,2.9-5.5c0.4-0.1,0.9-0.2,1.4-0.2h79.2
			c1.9,0,3.6,1.2,4.2,3.1L-239.2,364.9z"/>
		<path id="_Path_21" class="st56" d="M-294.7,313.4H-335c-0.6,0-1.1-0.5-1.1-1.1v0l0,0c0-0.6,0.5-1.1,1.1-1.1h40.3
			c0.6,0,1.1,0.5,1.1,1.1v0l0,0C-293.6,312.9-294.1,313.3-294.7,313.4z"/>
		<path id="_Path_22" class="st56" d="M-288.5,318.4h-45c-0.6,0-1.1-0.5-1.1-1.1v0l0,0c0-0.6,0.5-1.1,1.1-1.1h0h45
			c0.6,0,1.1,0.5,1.1,1.1v0l0,0C-287.4,317.9-287.9,318.4-288.5,318.4L-288.5,318.4z"/>
		<path id="_Path_23" class="st56" d="M-292.6,323.4h-39.2c-0.6,0-1.1-0.5-1.1-1.1v0l0,0c0-0.6,0.5-1.1,1.1-1.1h0h39.2
			c0.6,0,1.1,0.5,1.1,1.1v0l0,0C-291.5,322.9-292,323.4-292.6,323.4z"/>
		<path id="_Path_24" class="st56" d="M-299.2,328.4h-31c-0.6,0-1.1-0.5-1.1-1.1v0l0,0c0-0.6,0.5-1.1,1.1-1.1h0h31
			c0.6,0,1.1,0.5,1.1,1.1v0l0,0C-298.1,327.9-298.6,328.4-299.2,328.4L-299.2,328.4z"/>
		<path id="_Path_25" class="st56" d="M-283.6,333.5h-45c-0.6,0-1.1-0.5-1.1-1.1v0l0,0c0-0.6,0.5-1.1,1.1-1.1h0h45
			c0.6,0,1.1,0.5,1.1,1.1v0l0,0C-282.5,333-283,333.5-283.6,333.5C-283.6,333.5-283.6,333.5-283.6,333.5z"/>
		<path id="_Path_26" class="st56" d="M-287.8,338.5h-39.2c-0.6,0-1.1-0.5-1.1-1.1v0l0,0c0-0.6,0.5-1.1,1.1-1.1h0h39.2
			c0.6,0,1.1,0.5,1.1,1.1v0l0,0C-286.7,338-287.2,338.5-287.8,338.5L-287.8,338.5z"/>
		<path id="_Path_27" class="st56" d="M-278.8,348.6h-45c-0.6,0-1.1-0.5-1.1-1.1v0l0,0c0-0.6,0.5-1.1,1.1-1.1h0h45
			c0.6,0,1.1,0.5,1.1,1.1v0l0,0C-277.7,348.1-278.2,348.6-278.8,348.6z"/>
		<path id="_Path_28" class="st56" d="M-277.1,353.6h-45c-0.6,0-1.1-0.5-1.1-1.1v0l0,0c0-0.6,0.5-1.1,1.1-1.1h0h45
			c0.6,0,1.1,0.5,1.1,1.1c0,0,0,0,0,0l0,0C-276,353.1-276.5,353.6-277.1,353.6L-277.1,353.6z"/>
		<path id="_Path_29" class="st56" d="M-253.2,353.6h-14.5c-1.4,0-2.6-0.9-3-2.2l-12.1-38.3c-0.5-1.6,0.4-3.4,2-3.9
			c0.3-0.1,0.6-0.1,0.9-0.1h14.5c1.4,0,2.6,0.9,3,2.2l12.1,38.3c0.5,1.6-0.4,3.4-2,3.9C-252.6,353.5-252.9,353.6-253.2,353.6z"/>
		<path id="_Path_30" class="st1" d="M-229.9,369.1h-100.5c-1.6,0-3-1.3-3-3l0,0c0-1.6,1.3-3,3-3h100.5c1.6,0,3,1.3,3,3l0,0
			C-227,367.8-228.3,369.1-229.9,369.1z"/>
		<g id="_Group_">
			<path id="_Compound_Path_" class="st52" d="M-200.9,289.6c-0.9,0-1.7-0.5-2.2-1.3l-3.3-5.9c-0.7-1.2-0.3-2.7,0.9-3.4
				c0,0,0,0,0.1,0l9.3-4.9c1.2-0.6,2.7-0.2,3.4,1l3.2,5.8c0.7,1.2,0.2,2.7-1,3.4c0,0,0,0,0,0l-9.1,5
				C-200.1,289.5-200.5,289.6-200.9,289.6z M-195,274.9c-0.2,0-0.4,0.1-0.6,0.2l-9.3,4.9c-0.7,0.3-0.9,1.2-0.6,1.8c0,0,0,0,0,0l0,0
				l3.3,5.9c0.4,0.6,1.2,0.9,1.8,0.5l9.1-5c0.7-0.4,0.9-1.2,0.5-1.8l-3.2-5.8C-194,275.2-194.5,274.9-195,274.9z"/>
		</g>
		<path id="_Path_31" class="st13" d="M-239.1,350.4c-0.4,0.5-0.8,0.9-1.2,1.4c0,0-4.9-3.7-6.2-4s-4.2,0.7-5.9,0.8s-1.8-0.9-1.8-0.9
			s-6.3,2.6-7.3,2.9s-1.7-0.1-1.1-1.7c0.3-0.6,0.7-1.1,1.2-1.6l0,0c2.1-2.4,6.6-6.3,8.2-7.1c2-1,4.8-2.4,7-1.5s9.4,6.2,9.4,6.2
			C-236.5,346.7-238,349-239.1,350.4z"/>
		<path id="_Path_32" class="st57" d="M-237.6,345.2l-1.5,5.2c-0.4,0.5-0.8,0.9-1.2,1.4c0,0-4.9-3.7-6.2-4s-4.2,0.7-5.9,0.8
			s-1.8-0.9-1.8-0.9s-6.3,2.6-7.3,2.9s-1.7-0.1-1.1-1.7c0.3-0.6,0.7-1.1,1.2-1.6c-0.5,0.7-1.1,1.5-0.8,2.4c0.4,1.1,7.2-2.1,12.1-5
			c0.1,0,0.5-0.2,0.6,0c0,0.2-0.1,0.4-0.3,0.5c-0.8,0.9-4.9,1.2-4.1,2.5c1.2,1.8,5.4-1.5,7.7-0.8c1.8,0.7,3.6,1.7,5.2,2.9
			C-241,349.8-239.7,345.9-237.6,345.2z"/>
		<path id="_Path_33" class="st58" d="M-241,351.8c0,0,23.9,20.9,41.8,23s48.1-31.8,48.1-31.8s-1.9-18.1-13.1-16s-26.1,29-32.6,30.3
			s-40.2-13-40.2-13c-0.9,0.7-1.6,1.6-2.1,2.6C-239.8,348.4-240.5,350.1-241,351.8z"/>
		<path id="_Path_34" class="st13" d="M-159.6,248.7c-6.5-7.5-16.2-8.3-23.7-7.5c-9.8,1-18.2,7.7-21.2,17.1
			c-1.4,4.6-1.2,9.6,0.4,14.1c6.1,16.8,12.5,27.6,18.4,30.8c2.3,1.2,6.6,0.4,11.2-1.2c0.6-0.2,1.3,0,1.6,0.6l2,3.7l17.2-3.7
			c-1.4-3.2-2.6-6.5-3.4-9.8C-154.5,289.6-147.6,262.4-159.6,248.7z"/>
		<path id="_Path_35" class="st28" d="M-194.4,272.7c2.1-0.2,4.1,1,5,2.9c1.4,3.4,3.6,8.1,5.3,9.6c0.6,0.4,1.3,0.4,1.9,0
			c0.6-0.3,0.9-0.8,0.9-1.5c-0.5-2.3-1.1-4.5-2-6.7c-1-2.3,0.1-4.9,2.3-5.9c0.3-0.1,0.7-0.3,1-0.3c0.9-0.1,1.9-0.1,2.8,0.2
			c5.1,1.5,1.6,9.5,1.5,13.7c-0.1,2.9,3.4,9.7,5,10.4c5.1,2,12.9,0.2,17-4.9s5-22,2.8-32.2c-2.2-10.2-10.4-15.9-13.1-16.5
			c-1-0.3-2.1-0.4-3.2-0.3c-0.8,0.1-1.6-0.2-2.2-0.7c-2.7-2.4-10.8-7.7-23.6-2.2c-11.4,4.7-18.7,16-18.4,28.3c0.2,4.3,3.6,4,6,3.3
			c1.3-0.4,2.7-0.1,3.8,0.8C-199.6,272.3-197,273-194.4,272.7z"/>
		<path id="_Path_36" class="st59" d="M-171.3,309c0,0-1.5-1.6-0.9-2.7c0.7-1.3,8.3-7.2,17.1-6.9c1.4,0,3,0,4.7,3.6
			c0.9,1.9,1.6,3.9,2,5.9L-171.3,309L-171.3,309z"/>
		<path id="_Path_37" class="st59" d="M-137.8,453.7c-0.5,0.1-1.1,0.3-1.7,0.4c-7.5,1.4-19.7,1.6-19.7,1.6
			c-24-0.4-36.1-22.8-40-29.5c-0.8-1.2-1.4-2.6-1.9-3.9c1.4-0.7,17.7-9.5,16.8-39.5c-0.2-6.2-0.1-20.1-3.2-25.6
			c-1.7-3-6.8-9-9.9-15.3c-2.6-5.2-3.9-10.7-1.1-14.8c7.1-10.4,18.2-15.9,18.2-15.9s20.4-8.2,37.8-6.3c11,1.2,20.9,6.4,23.5,20.3
			C-112.2,360.8-137.8,453.7-137.8,453.7z"/>
		<path id="_Path_38" class="st60" d="M-177.6,374.8c3,29.5-17.1,48.1-21.6,51.3c-0.8-1.2-1.4-2.6-1.9-3.9
			c1.4-0.7,16.7-14,16.8-39.5c0-6.2-0.1-20.1-3.2-25.6c-1.7-3-6.8-9-9.9-15.3l1.3-0.5l8.2-1.4l4.2,3.4
			C-183.7,343.3-179.5,355.7-177.6,374.8z"/>
		<path id="_Path_39" class="st61" d="M-137.8,453.7c-0.5,0.1-1.1,0.3-1.7,0.4c1.5-8.1,11.2-58.7,14.4-77.1
			c6.2-36.3-0.3-54.6-3.9-61.2c-3-5.3-8.6-8.1-13.5-11c11,1.2,20.9,6.4,23.5,20.3C-112.2,360.8-137.8,453.7-137.8,453.7z"/>
		<path id="_Path_40" class="st13" d="M-255.5,561.9c-1.8,0.7-3.8,1.1-5.7,1.1c-3.5,0-4.5-1.3-4.5-1.3v-8l11.6-1.5L-255.5,561.9z"/>
		<path id="_Path_41" class="st62" d="M-164.3,449.5c-0.1,5.2-1.5,13.6-9.3,15.9c-11.7,3.5-20.3,1.5-33.9-0.8
			c-11.3-1.9-41.2-8.4-46.7-10.5c-0.5-0.2-1,0.1-1.2,0.5c-0.1,0.2-0.1,0.4,0,0.5c2.6,12.7,4.7,18.1,6.3,37.1
			c1.4,16-4.7,61.1-4.7,61.1c-1.3,0.4-2.6,0.7-3.9,0.9c-0.7,0.1-1.5,0.2-2.2,0.2c-2.2,0-4.3-0.2-6.5-0.5c0,0-12.1-66.5-13.8-93.5
			s0.9-29.2,13.2-34.9c12.3-5.7,67-3.6,67-3.6l0,0c0.2,0.5,3.2,8.9,12.3,16.5C-180.8,444.1-172.8,447.8-164.3,449.5z"/>
		<path class="st63" d="M-197.6,426.7c-0.9-1.5-1.6-3-2.3-4.6l0,0c0,0-0.6,0-1.7-0.1C-200.4,423.6-199.1,425.2-197.6,426.7z"/>
		<path class="st63" d="M-171.8,447.4c-1.1,4-3.5,7.8-8.4,9.3c-11.7,3.5-20.3,1.5-33.9-0.8c-11.3-1.9-41.2-8.4-46.7-10.5
			c-0.5-0.2-1,0.1-1.2,0.5c-0.1,0.2-0.1,0.4,0,0.5c2.6,12.7,4.7,18.1,6.3,37.1c1.1,12.4,0.6,52.9,0.4,70.3c0.9-0.2,1.6-0.4,1.6-0.4
			s6.1-45.2,4.7-61.1c-1.7-19-3.8-24.5-6.3-37.1c-0.1-0.5,0.2-1,0.7-1.1c0.2,0,0.4,0,0.5,0c5.5,2.1,35.4,8.5,46.7,10.5
			c13.5,2.3,22.2,4.3,33.9,0.8c7.8-2.4,9.2-10.7,9.3-15.9C-166.9,449-169.4,448.3-171.8,447.4z"/>
		<path id="_Path_42" class="st52" d="M-266,560.5c1.8,0.7,3.8,1.1,5.8,1.2c2,0,3.9-0.4,5.7-1.2c0,0,5.8,7.4,2.7,15.7
			c-0.2,0.4-0.6,0.7-1.1,0.7H-292c-0.5,0-0.9-0.4-0.9-0.8c0-1,0.4-2.5,2.8-3.2c3.6-1.1,7.4-1.7,10.2-2.7s6.8-5.1,9.1-5.9
			C-269,563.5-267.3,562.2-266,560.5z"/>
		<path id="_Path_43" class="st13" d="M-283.7,364c0,0-3.5-0.9-5.3-1.3c-0.6-0.1-1.3-0.2-1.9-0.3c-0.8-0.1-1.5,0-2.3,0.1l-18.7,2.6
			c-0.5,0.1-1-0.3-1.1-0.9c-0.1-0.7,0.2-1.5,0.7-1.9l1.8-1.6l5.5-4.7c2.7-2.3,4.9-2.7,8.4-2.9c1.3,0.2,2.6,0.4,3.9,0.8
			c3.7,0.7,4.5,1.1,7,1.6c0.7,0.2,1.4,0.3,2,0.3c0.3,0,0.5,0,0.8,0C-282.2,358.5-282.5,361.5-283.7,364z"/>
		<path id="_Path_44" class="st14" d="M-255.1,365.9c0,0-0.1,0.1-0.1,0c-0.5-0.2-3.4-1.4-5-2c-0.6-0.2-1.1-0.4-1.6-0.5
			c-0.8-0.2-1.7-0.3-2.6-0.3h-18.8c-0.6,0-1.1-0.5-1.1-1c0-0.7,0.4-1.4,1-1.8l2-1.3c-1.9,1.5-2.2,2.6-1.3,2.7
			c0.8,0.1,2.6-0.1,7.2-1.4c0.1,0,0.1,0.1,0.1,0.2c-0.5,0.2-0.8,0.8-0.5,1.4c0.2,0.5,0.7,0.7,1.2,0.6c0.8,0,4.1-0.2,4.8-0.3
			c3-0.2,7.2-0.4,8.1-0.3c1.4,0.3,2.8,0.7,4.1,1.4c0.8,0.4,1.6-0.5,1.9-1.4c0.5-1.4,1-2.8,1.7-4.1c0.3,0.1,0.5,0.1,0.8,0.1
			C-252.9,360.7-253.5,363.5-255.1,365.9z"/>
		<path id="_Path_45" class="st59" d="M-181.1,320.7c-2.5-1.5-10-5.7-19.7,9.4s-17.4,26.4-20.8,28.4s-11.7,0.6-14.7,0.6
			s-46.9-3.4-46.9-3.4c-1.2,2.7-2.1,5.5-2.5,8.5c0,0,40.2,10.5,65.1,10.6s43.9-37.6,44.8-42.2S-175.1,324.4-181.1,320.7z"/>
		<g id="_Group_2">
			<path id="_Path_46" class="st52" d="M-205.1,285.6c-0.3,0-0.6-0.3-0.6-0.6c0-0.2,0.1-0.4,0.3-0.5l21.6-11.1
				c2.4-1.3,7.5-3.8,11.2,1.6c0.2,0.3,0.1,0.6-0.2,0.8c-0.3,0.2-0.6,0.1-0.8-0.2c-2.9-4.3-6.4-3-9.6-1.3l-21.7,11.1
				C-204.9,285.6-205,285.6-205.1,285.6z"/>
		</g>
		<path id="_Path_47" class="st13" d="M-183.4,274.8l2.6,8.3c1,1,2.7,1,3.7,0c0.1-0.1,0.2-0.2,0.2-0.3c2-2.3,3.7-10.1,0.1-11.4
			S-182.5,272-183.4,274.8z"/>
		<path class="st11" d="M-85.1,395.6c0-42.1-1-71.8-27.7-76.3c-36.3-6.1-64.7,25.4-58.9,85.6c3.3,34.5-10.8,46.4-22.9,53.1
			c-7.8,4.4-22.9,3.4-22.9,3.4s-7-0.8-11.7-1.3c2.9,1.3,65.1,32,109.4,9.3C-80.4,449.4-85.1,420.4-85.1,395.6z"/>
		<path class="st12" d="M-85.1,395.6c0-42.1-1-71.8-27.7-76.3c-1.3-0.2-2.6-0.4-3.8-0.5c-29.1,2.9-48.1,33.5-43.1,86.1
			c3.3,34.5-10.8,46.4-22.9,53.1c-7.8,4.4-22.9,3.4-22.9,3.4s-0.4-0.1-1-0.3c-3.7,0.4-7.3,0.5-11,0.3c0,0-7-0.8-11.7-1.3
			c2.9,1.3,65.1,32,109.4,9.3C-80.4,449.4-85.1,420.4-85.1,395.6z"/>
	</g>
</g>
<g>
	<rect x="310.5" y="285.4" class="st64" width="2" height="207.4"/>
</g>
<rect x="311.5" y="259.9" class="st1" width="21.3" height="5.4"/>
<rect x="311.5" y="269.9" class="st1" width="17.1" height="5.4"/>
<rect x="312.5" y="505.1" class="st1" width="22.4" height="7.2"/>
<g>
	<g>
		<g>
			<g>
				
					<linearGradient id="SVGID_3_" gradientUnits="userSpaceOnUse" x1="1892.6515" y1="-9834.5439" x2="2006.9611" y2="-9834.5439" gradientTransform="matrix(0.2905 0.9569 -0.9569 0.2905 -9588.8584 1232.6757)">
					<stop  offset="0" style="stop-color:#40D5E6"/>
					<stop  offset="1" style="stop-color:#5577FF"/>
				</linearGradient>
				<path class="st65" d="M393.2,180.3c0,0,52.6,62.4,19.2,102.7c-33.4,40.4-42.5,0.8-42.5,0.8s-20,3.7,14.6-46.8
					C400.9,213.2,393.2,180.3,393.2,180.3z"/>
			</g>
		</g>
	</g>
	<g>
		<g>
			<g>
				
					<linearGradient id="SVGID_4_" gradientUnits="userSpaceOnUse" x1="1879.5798" y1="-9904.5635" x2="2073.0898" y2="-9904.5635" gradientTransform="matrix(0.2905 0.9569 -0.9569 0.2905 -9588.8584 1232.6757)">
					<stop  offset="0" style="stop-color:#2C47B9"/>
					<stop  offset="1" style="stop-color:#2A2888"/>
				</linearGradient>
				<path class="st66" d="M508.5,131.6c0,0,39.1,57.7-29,124.1c-68,66.4-63,106-63,106S347,225.6,508.5,131.6z"/>
			</g>
		</g>
	</g>
	<g>
		<g>
			<g>
				
					<linearGradient id="SVGID_5_" gradientUnits="userSpaceOnUse" x1="1962.5612" y1="-9912.9307" x2="2050.1414" y2="-9912.9307" gradientTransform="matrix(0.2905 0.9569 -0.9569 0.2905 -9588.8584 1232.6757)">
					<stop  offset="0" style="stop-color:#2C47B9"/>
					<stop  offset="1" style="stop-color:#2A2888"/>
				</linearGradient>
				<path class="st67" d="M403.9,336.7c-28.5,2.6,4.6-74.6,49.2-94.7c44.6-20.1,82.3-18.4,108.4-39.7
					C561.4,202.3,544.4,324,403.9,336.7z"/>
			</g>
		</g>
	</g>
</g>
<g>
	<rect x="114.1" y="285.4" class="st68" width="2" height="207.4"/>
</g>
<g>
	<rect x="254.6" y="285.4" class="st64" width="2" height="207.4"/>
</g>
<g>
	<rect x="395.2" y="285.4" class="st64" width="2" height="207.4"/>
</g>
<rect x="115.1" y="259.9" class="st68" width="33.7" height="5.4"/>
<rect x="115.1" y="269.9" class="st68" width="47.8" height="5.4"/>
<rect x="254.1" y="259.9" class="st1" width="39.5" height="5.4"/>
<rect x="254.1" y="269.9" class="st1" width="25.3" height="5.4"/>
<rect x="397.1" y="259.9" class="st1" width="24.5" height="5.4"/>
<rect x="397.1" y="269.9" class="st1" width="28.5" height="5.4"/>
<rect x="537.7" y="259.9" class="st1" width="35.7" height="5.4"/>
<rect x="537.7" y="269.9" class="st1" width="28.5" height="5.4"/>
<rect x="255.6" y="505.1" class="st1" width="22.4" height="7.2"/>
<rect x="397.1" y="505.1" class="st1" width="22.4" height="7.2"/>
<g>
	<linearGradient id="SVGID_6_" gradientUnits="userSpaceOnUse" x1="115.0601" y1="369.9958" x2="677.5573" y2="369.9958">
		<stop  offset="0" style="stop-color:#FF9F55"/>
		<stop  offset="1" style="stop-color:#FFD255"/>
	</linearGradient>
	<path class="st69" d="M365.4,428.9c-32.4,0-58-21.8-83.1-43.1c-19.1-16.2-38.8-32.7-61.6-40.8c-69.6-24.9-105.3,20.5-105.6,20.9
		v-13.8c0.4-0.5,6.7-8.7,25.1-16.6c16.7-7.2,44.8-12.9,83.6,0.6c24.5,8.5,44.9,25.8,64.6,42.5c40,33.9,74.5,63.2,134.5,17.3
		c45.4-34.7,88.2-67.8,130.4-79.9c41.2-11.8,84.2-3.2,124.4,37v12.6c-85.4-85.8-158.4-31.5-249,37.7
		C404.6,421.8,383.9,428.9,365.4,428.9z"/>
</g>
<g>
	<g>
		<rect x="33.6" y="362.6" class="st68" width="6.8" height="29.2"/>
	</g>
	<g>
		<rect x="50.4" y="350.7" class="st68" width="6.8" height="41"/>
	</g>
	<g>
		<rect x="67.2" y="344.6" class="st68" width="6.8" height="47.2"/>
	</g>
	<g>
		<rect x="84" y="342" class="st68" width="6.8" height="49.8"/>
	</g>
	<g>
		<linearGradient id="SVGID_7_" gradientUnits="userSpaceOnUse" x1="37.0257" y1="416.9765" x2="37.0257" y2="348.9382">
			<stop  offset="0" style="stop-color:#FF9F55"/>
			<stop  offset="1" style="stop-color:#FFD255"/>
		</linearGradient>
		<rect x="33.6" y="373.5" class="st70" width="6.8" height="18.3"/>
	</g>
	<g>
		<linearGradient id="SVGID_8_" gradientUnits="userSpaceOnUse" x1="53.7961" y1="416.9763" x2="53.7961" y2="348.9382">
			<stop  offset="0" style="stop-color:#FF9F55"/>
			<stop  offset="1" style="stop-color:#FFD255"/>
		</linearGradient>
		<rect x="50.4" y="366" class="st71" width="6.8" height="25.7"/>
	</g>
	<g>
		<linearGradient id="SVGID_9_" gradientUnits="userSpaceOnUse" x1="70.5665" y1="416.9763" x2="70.5665" y2="348.9383">
			<stop  offset="0" style="stop-color:#FF9F55"/>
			<stop  offset="1" style="stop-color:#FFD255"/>
		</linearGradient>
		<rect x="67.2" y="362.1" class="st72" width="6.8" height="29.6"/>
	</g>
	<g>
		<linearGradient id="SVGID_10_" gradientUnits="userSpaceOnUse" x1="87.3368" y1="416.9762" x2="87.3368" y2="348.9385">
			<stop  offset="0" style="stop-color:#FF9F55"/>
			<stop  offset="1" style="stop-color:#FFD255"/>
		</linearGradient>
		<rect x="84" y="360.5" class="st73" width="6.8" height="31.2"/>
	</g>
</g>
<g>
	<linearGradient id="SVGID_11_" gradientUnits="userSpaceOnUse" x1="314.7574" y1="641.1804" x2="323.3427" y2="153.5213">
		<stop  offset="0" style="stop-color:#2C47B9"/>
		<stop  offset="1" style="stop-color:#2A2888"/>
	</linearGradient>
	<path class="st74" d="M256.2,522.9h127c33.1,0,59.9-26.8,59.9-59.9V256.2c0-33.1-26.8-59.9-59.9-59.9h-127
		c-33.1,0-59.9,26.8-59.9,59.9V463C196.2,496.1,223.1,522.9,256.2,522.9z"/>
</g>
<path class="st75" d="M428.6,157.6H251.1c-22.2,0-40.3,18-40.3,40.3v308.6h217.7V157.6z"/>
<linearGradient id="SVGID_12_" gradientUnits="userSpaceOnUse" x1="344.0906" y1="229.6545" x2="408.2855" y2="229.6545">
	<stop  offset="0" style="stop-color:#2C47B9"/>
	<stop  offset="1" style="stop-color:#2A2888"/>
</linearGradient>
<rect x="344.1" y="225.6" class="st76" width="64.2" height="8.1"/>
<linearGradient id="SVGID_13_" gradientUnits="userSpaceOnUse" x1="344.0906" y1="263.69" x2="403.0181" y2="263.69">
	<stop  offset="0" style="stop-color:#2C47B9"/>
	<stop  offset="1" style="stop-color:#2A2888"/>
</linearGradient>
<rect x="344.1" y="259.6" class="st77" width="58.9" height="8.1"/>
<linearGradient id="SVGID_14_" gradientUnits="userSpaceOnUse" x1="344.0906" y1="246.6721" x2="395.0761" y2="246.6721">
	<stop  offset="0" style="stop-color:#2C47B9"/>
	<stop  offset="1" style="stop-color:#2A2888"/>
</linearGradient>
<rect x="344.1" y="242.6" class="st78" width="51" height="8.1"/>
<g>
	<linearGradient id="SVGID_15_" gradientUnits="userSpaceOnUse" x1="275.2144" y1="295.9901" x2="275.2144" y2="225.4947">
		<stop  offset="0" style="stop-color:#7DB3E0"/>
		<stop  offset="1" style="stop-color:#FFFFFF"/>
	</linearGradient>
	<path class="st79" d="M275.2,277.7c-7.3,0-14.3-1.5-20.9-4.5c-18-8.2-29.7-26.3-29.7-46.1c0-27.9,22.7-50.6,50.6-50.6
		c27.9,0,50.6,22.7,50.6,50.6c0,19.8-11.6,37.9-29.7,46.1C289.5,276.1,282.5,277.7,275.2,277.7z M275.2,179.2
		c-26.4,0-47.9,21.5-47.9,47.9c0,18.7,11,35.9,28.1,43.6c6.2,2.8,12.9,4.3,19.8,4.3c6.9,0,13.6-1.4,19.8-4.3
		c17.1-7.8,28.1-24.9,28.1-43.6C323.1,200.7,301.6,179.2,275.2,179.2z"/>
</g>
<g>
	<g>
		<rect x="224.7" y="298" class="st80" width="73.8" height="7.2"/>
	</g>
	<g>
		<rect x="224.7" y="317.5" class="st68" width="73.8" height="7.2"/>
	</g>
	<g>
		<rect x="224.7" y="337" class="st68" width="73.8" height="7.2"/>
	</g>
</g>
<g>
	<g>
		<rect x="313.5" y="298" class="st80" width="12.3" height="7.2"/>
	</g>
	<g>
		<rect x="313.5" y="317.5" class="st68" width="12.3" height="7.2"/>
	</g>
	<g>
		<rect x="313.5" y="337" class="st68" width="12.3" height="7.2"/>
	</g>
</g>
<g>
	<linearGradient id="SVGID_16_" gradientUnits="userSpaceOnUse" x1="115.0601" y1="385.2088" x2="677.5523" y2="385.2088">
		<stop  offset="0" style="stop-color:#2C47B9"/>
		<stop  offset="1" style="stop-color:#2A2888"/>
	</linearGradient>
	<path class="st81" d="M628.6,431.2c-43.8,0-81.9-19-121.7-38.7c-49-24.4-99.8-49.6-167.3-42.7c-43.1,4.4-70.2,22-94.1,37.5
		c-21.6,14-42.1,26.4-69.8,27.4c-44.8,1.7-60.3-17.4-60.6-18.6v-12.3l0,0l0,0c0.1,0.2,9.8,21.6,60.5,21.4
		c25-0.1,43.4-12.1,64.7-25.9c24.8-16.1,52.9-34.3,98.3-39c70.3-7.2,122.2,18.7,172.5,43.6c52.6,26.1,102.7,50.7,166.5,29.3v10.1
		C659.2,429.6,644.7,431.2,628.6,431.2z"/>
</g>
<path class="st75" d="M431.9,514.5h-29.8c-32.5,0-58.8-26.3-58.8-58.8V349.5c0-32.5,26.3-58.8,58.8-58.8h29.8
	c32.5,0,58.8,26.3,58.8,58.8v106.2C490.7,488.2,464.4,514.5,431.9,514.5z"/>
<g>
	<g>
		<path class="st68" d="M473.5,324c-3.6-10.1-13.3-16.3-23.4-16c-2.5,0.1-5,0.5-7.4,1.4c-7.4,2.7-12.7,8.6-14.9,15.5
			c-1.5,4.8-1.5,10.2,0.3,15.3c0.2,0.5,0.4,1,0.6,1.5c1,2.2,2.2,4.2,3.7,6c6.3,7.4,16.8,10.6,26.5,7.1
			C471.4,350.4,478,336.6,473.5,324z M456.9,349.2c-7.3,2.6-15.1,0.3-19.9-5.3c-1.1-1.3-2.1-2.8-2.8-4.5c-0.2-0.4-0.3-0.7-0.4-1.1
			c-1.4-3.9-1.4-7.9-0.2-11.5c1.6-5.2,5.6-9.7,11.2-11.6c1.8-0.7,3.7-1,5.5-1.1c7.6-0.2,14.9,4.4,17.6,12
			C471.2,335.4,466.3,345.8,456.9,349.2z"/>
	</g>
	<g>
		<path class="st82" d="M433.5,326.7l-5.8-1.8c2.2-7,7.5-12.9,14.9-15.5c2.4-0.9,4.9-1.3,7.4-1.4l0.2,6c-1.8,0.1-3.7,0.4-5.5,1.1
			C439.1,317.1,435.1,321.5,433.5,326.7z"/>
	</g>
	<g>
		<path class="st83" d="M434.2,339.4l-5.5,2.4c-0.2-0.5-0.4-1-0.6-1.5c-1.8-5.1-1.8-10.5-0.3-15.3l5.8,1.8
			c-1.1,3.6-1.1,7.6,0.2,11.5C433.9,338.6,434,339,434.2,339.4z"/>
	</g>
	<g>
		<path class="st84" d="M432.4,347.8c-1.5-1.8-2.8-3.8-3.7-6l5.5-2.4c0.7,1.7,1.7,3.2,2.8,4.5L432.4,347.8z"/>
	</g>
</g>
<g>
	<linearGradient id="SVGID_17_" gradientUnits="userSpaceOnUse" x1="437.5609" y1="485.3066" x2="450.5648" y2="485.3066">
		<stop  offset="0" style="stop-color:#2C47B9"/>
		<stop  offset="1" style="stop-color:#2A2888"/>
	</linearGradient>
	<rect x="437.6" y="464" class="st85" width="13" height="42.6"/>
</g>
<g>
	<linearGradient id="SVGID_18_" gradientUnits="userSpaceOnUse" x1="418.2298" y1="491.2856" x2="431.233" y2="491.2856">
		<stop  offset="0" style="stop-color:#2C47B9"/>
		<stop  offset="1" style="stop-color:#2A2888"/>
	</linearGradient>
	<rect x="418.2" y="475.9" class="st86" width="13" height="30.7"/>
</g>
<g>
	<linearGradient id="SVGID_19_" gradientUnits="userSpaceOnUse" x1="456.3141" y1="475.4264" x2="469.3177" y2="475.4264">
		<stop  offset="0" style="stop-color:#2C47B9"/>
		<stop  offset="1" style="stop-color:#2A2888"/>
	</linearGradient>
	<rect x="456.3" y="444.2" class="st87" width="13" height="62.4"/>
</g>
<g>
	<polygon class="st84" points="363,459.6 361.9,458.7 383.1,431.2 409.2,432.6 429,401.2 450.2,399 463,373.7 464.3,374.4 
		451.1,400.3 429.8,402.5 410,434 383.8,432.6 	"/>
</g>
<path class="st80" d="M403.1,322.5h-37c-2.3,0-4.2-1.9-4.2-4.2l0,0c0-2.3,1.9-4.2,4.2-4.2h37c2.3,0,4.2,1.9,4.2,4.2l0,0
	C407.3,320.6,405.4,322.5,403.1,322.5z"/>
<path class="st68" d="M403.1,337.2h-37c-2.3,0-4.2-1.9-4.2-4.2l0,0c0-2.3,1.9-4.2,4.2-4.2h37c2.3,0,4.2,1.9,4.2,4.2l0,0
	C407.3,335.4,405.4,337.2,403.1,337.2z"/>
<path class="st68" d="M403.1,352h-37c-2.3,0-4.2-1.9-4.2-4.2l0,0c0-2.3,1.9-4.2,4.2-4.2h37c2.3,0,4.2,1.9,4.2,4.2l0,0
	C407.3,350.1,405.4,352,403.1,352z"/>
<g>
	<path class="st88" d="M283,464.1c0,0-14.6-4.1-32.5,0l8.6-44C259.1,420.1,280.5,442.8,283,464.1z"/>
	<g>
		<g>
			<g>
				<path class="st89" d="M329.4,388.2c0,0,3.3,2.4,4.3,2.1c1-0.3,2.6,0.2,3.5,0.1c0.9-0.1,3.3-1.3,4.3-1c0.4,0.1,2.6,1.7,3.4,1.8
					c0.8,0.1,2.5,0.2,2.4,0.9c-0.1,0.7-1.6,1.1-1.6,1.1s0.7,0.2,0.8,0.8c0.2,1.3-0.5,1.7-0.5,1.7s0.7,0.6,0.6,1.2
					c-0.1,1.2-0.8,1.6-0.8,1.6s0.3,0.6,0,1.4c-0.3,1-1.4,1.1-1.4,1.1s-0.1,1.3-0.9,1.5c-0.7,0.2-1.4-0.1-2-0.1c-0.6,0-5.9-1.8-9-4.6
					c-3.1-2.7-6.8-4.3-6.8-4.3L329.4,388.2z"/>
			</g>
		</g>
	</g>
	<g>
		<path class="st90" d="M262,298.3c0,0-4.9-3.2-9.3,2.4c-4.4,5.6-2.8,11-1.9,16c0.9,5,5.4,16.4,3.5,21.4c-1.9,5,0.5,7.6,0.5,7.6
			s15.2,3.9,13.4-19C266.4,303.9,262,298.3,262,298.3z"/>
	</g>
	<g>
		<path class="st91" d="M268.5,341.5c0,0,5.8-0.8,9.7,2.1c3.9,2.9,6.6,8.4,7.7,10.1c1.2,1.7,15.1,17,15.8,17.3
			c0.7,0.3,9.3,5,15.2,8.9c5.8,3.9,15,8.5,15,8.5l-5,6.1c0,0-24.5-8.8-29.6-13.5c-5.4-5.1-30.6-30.2-30.6-30.2
			S260.3,345.7,268.5,341.5z"/>
	</g>
	<g>
		<path class="st92" d="M310.7,554.8c0,0,6.3,8.4,5.4,9.8c-0.9,1.3-7.5,1.5-11.5,0c-4-1.5-4.1-11.4-5.9-15.7c-0.8-1.8,0.9-7,3.2-7.4
			c2.3-0.4,4.8,0.7,4.8,0.7S304.3,548.2,310.7,554.8z"/>
	</g>
	<g>
		<g>
			<path class="st89" d="M306.7,542.2c0,0,1.3,3.6,1.8,7c0.4,2.8,4.5,8.9,4.3,9.7c-0.2,0.8-5.4,1.5-7.5-0.5c-2.1-2-3.5-7.7-3.9-11.1
				c-0.4-3.2-1-4.8-1-4.8S304.7,540.1,306.7,542.2z"/>
		</g>
	</g>
	<g>
		<polygon class="st92" points="298.5,548.2 298.5,557 299.7,557 299.7,550.2 		"/>
	</g>
	<g>
		<path class="st92" d="M256.1,555c0,0,6,8.3,5.2,9.6c-0.9,1.3-7.5,1.5-11.5,0c-4-1.5-4.1-11.4-5.9-15.7c-0.8-1.8,0.9-7,3.2-7.4
			c2.3-0.4,5,0.8,5,0.8S249.7,548.4,256.1,555z"/>
	</g>
	<g>
		<g>
			<path class="st89" d="M252,542.3c0,0,0.5,3.9,1.2,6.7c0.8,2.8,4.9,9.1,4.7,9.8c-0.2,0.8-5.4,1.5-7.5-0.5c-2.1-2-3.7-7.7-3.9-11.1
				c-0.2-3.5,0.5-5.7,0.5-5.7S250,540.2,252,542.3z"/>
		</g>
	</g>
	<g>
		<polygon class="st92" points="243.7,548.2 243.7,557 244.9,557 244.9,550.2 		"/>
	</g>
	<g>
		<g>
			<path class="st93" d="M282.2,404.9c0,0,5.4,25,6.6,31.3c1.2,6.3,4.7,36.8,5.1,42c0.4,5.2,5.6,24.7,5.4,26.6
				c-0.2,1.9,8.1,38.6,8.1,38.6s-8.6,2.3-10,0.8c-1.2-1.3-13.5-35-13.5-44.2c0-12.8-9.7-29.1-10.9-32c-11.4-26.6-8.9-35.2-10.4-36.9
				c-1.5-1.7-1.6,1.1-2.5,4.9c-0.9,3.8-2.7,37-3.8,41.2c-1.1,4.2-0.2,18.4-0.9,25.6c-0.6,7.2-1.3,39.3-1.3,39.3s-6.2,1.4-9.1,0.1
				c-0.8-0.4-3-35.8-3.1-44.3c-0.1-8.5-0.3-20.3-0.5-24c-2.3-35.3-5.7-40.4,0.9-65.4C254.9,360.4,282.2,404.9,282.2,404.9z"/>
		</g>
	</g>
	<g>
		<path class="st94" d="M268.3,338.2c0,0,5.6,2.7,7.6,3c2,0.4,9.5,10.2,10.8,13.8c1.3,3.6,0,9-2.7,15.3c-2.7,6.3-0.2,8.4-1.4,14.7
			c-1.2,6.3-0.1,21.1,0.2,24.6c0.2,3.5-28.7,8-39.8-3.2c0,0,6-11.3,7-12.9c0.9-1.6,0.2-10.1-0.7-12.2c-0.9-2.2-6.6-20.8-6.6-20.8
			s-4.7-14.3-0.5-17.5c3.7-2.8,13.7-3.9,15.5-4.5C259.4,337.9,264.6,337.6,268.3,338.2z"/>
	</g>
	<g>
		<path class="st95" d="M270.1,350.7l3.4-4l-3-10.5C270.5,336.2,269.6,342.1,270.1,350.7z"/>
	</g>
	<g>
		<path class="st89" d="M271,331.7c0,0-1.1,10.3-0.9,13.7c0,0-5.8,5.8-12.5-6.8c0,0,2.8-5.2,0.7-12.3
			C256.2,319.1,271,331.7,271,331.7z"/>
	</g>
	<g>
		<polygon class="st89" points="270.1,345.4 270.1,350.7 263.4,345.7 		"/>
	</g>
	<g>
		<polygon class="st95" points="270.1,350.7 267.3,347.3 257.9,337.9 254.9,340.8 		"/>
	</g>
	<g>
		<polygon class="st96" points="273.5,346.7 277.8,347.9 270.5,336.2 		"/>
	</g>
	<g>
		<polygon class="st96" points="267.3,347.3 263.4,352.4 255.4,338.7 258.2,337.3 		"/>
	</g>
	<g>
		<path class="st97" d="M270.8,334l-0.2,2.1c0,0-4.6,0.9-10.7-6.5C259.9,329.5,264.2,334.8,270.8,334z"/>
	</g>
	<g>
		<path class="st89" d="M269.6,334.1c1.8-0.1,6.9-0.7,9.4-12.4c3.1-14.4-3.7-21.8-9.5-23.2c-5.8-1.4-11.2,0.6-14.2,8.1
			c0,0-2.2,5.9,1.4,16.3C260.2,333.4,267.6,334.2,269.6,334.1z"/>
	</g>
	<g>
		<path class="st90" d="M264.9,307.8c0,0,7.8,0.5,15.1,11.4c0,0,3.4-13.1-5.5-19.1c-8.9-6-15.1-0.8-17.3,1.8c0,0-3.1,0.7-3.2,6.6
			c-0.1,5.9-4.1,14.8,4.6,19c0,0-0.8-6.7-0.1-8.3C259.4,317.7,262,318.8,264.9,307.8z"/>
	</g>
	<g>
		<path class="st98" d="M259,316.6c-0.4-1-1.5-1.4-2.1-0.3c-0.6,1.1,0.1,5.3,1.7,5.8C260.2,322.6,259.8,318.7,259,316.6z"/>
	</g>
	<path class="st91" d="M255.4,338.7c0,0,8.8,10.6,9.7,32.7c0.9,22.2-6.9,93.1-6.5,101.7l-22.9-11.1c0,0,0.1-35.8,7.8-58.3
		c9-26.4-1.2-34.4-2.2-50.7c0,0,0.4-11.9,7-13C254.7,339.2,255.4,338.7,255.4,338.7z"/>
	<path class="st91" d="M273.1,340.3c0,0,3.6,0.4,4.7,1.8c1.1,1.3,8.2,9.5,8.7,11.9c0.5,2.4,2.2,4.2-1.2,15.4
		c-3,10-2.3,21.3-1.6,25.8c0.6,4.5,11.6,65.3,11,66.9c-0.6,1.6-5.2,5.3-5.2,5.3s-9.8-60-9.7-70.1
		C279.9,387.3,283.8,357.4,273.1,340.3z"/>
	<g>
		<polygon class="st99" points="348.1,372 340.5,411.4 315.2,406.5 321.9,366.9 		"/>
		<polygon class="st100" points="346.2,373.9 339.5,408.9 317,404.5 322.9,369.4 		"/>
		<polygon class="st99" points="339.1,373.4 339.6,371 330.5,369.2 329.7,371.6 		"/>
	</g>
	<g>
		<g>
			<path class="st89" d="M345.3,392.8c0,0-4.5-1.5-5.9-0.6c-1.3,0.8,0.3,1.5,0.3,1.5s-1.6-0.6-2.2,0.5c-0.6,1.2,1.3,1.8,1.3,1.8
				s-1.3-0.2-1.5,1.2c-0.2,1.4,1.5,1.6,1.5,1.6s-2,0.8-0.7,2c2.1,2.1,5.6,1.8,5.6,1.8s0.9-0.2,0.9-1.6c0,0,2.1-0.4,1.4-2.6
				c0,0,1.7-1.8,0-2.8C346.1,395.6,347.9,393.5,345.3,392.8z"/>
		</g>
	</g>
	<path class="st89" d="M235.7,415.4c0,0-0.9,4.3,1,7.1c0.7,1.1,0,9.4,0,10.5c-0.1,0.9-0.8,1.6-1.2,1.4c-0.3-0.2-0.4-4.8-0.9-6.3
		c-0.4-1.2-0.8-1.7-1-1.3c-0.2,0.4,0.5,7.1,1,9.3c0.4,2.2-0.1,6.9-1.3,6.1c-1.2-0.8-5-11.1-4.7-14.6c0.3-3.5,1.6-7.8,1.6-7.8
		L235.7,415.4z"/>
	<path class="st91" d="M254,339.3c0,0-9.1-0.6-13.7,4.8c-4.6,5.3-4.3,11.7-5.5,14.4c-1.2,2.7-3.8,14.6-4.4,16.5
		c-0.6,1.9-1.2,12.7-2,21.4c-0.8,8.7-0.7,24.8-0.7,24.8l8.7-1.6c0,0,0.4-15.4,0.6-24.4c0.2-8.9,7.5-24.7,10.2-31.7
		C250,356.7,261,343.7,254,339.3z"/>
</g>
<linearGradient id="SVGID_20_" gradientUnits="userSpaceOnUse" x1="70.4498" y1="480.6608" x2="67.8625" y2="376.7428">
	<stop  offset="0" style="stop-color:#FF9F55"/>
	<stop  offset="1" style="stop-color:#FFD255"/>
</linearGradient>
<polygon class="st101" points="64.2,440.7 79.1,440.7 74.5,431.2 59.6,431.2 "/>
<linearGradient id="SVGID_21_" gradientUnits="userSpaceOnUse" x1="57.8221" y1="480.9751" x2="55.2349" y2="377.0566">
	<stop  offset="0" style="stop-color:#FF9F55"/>
	<stop  offset="1" style="stop-color:#FFD255"/>
</linearGradient>
<polygon class="st102" points="57.2,440.7 60.8,440.7 56.2,431.2 52.6,431.2 "/>
<g>
	<path class="st88" d="M529.9,471.8c0,0-14.6-4.1-32.5,0l8.6-44C505.9,427.8,527.4,450.5,529.9,471.8z"/>
	<g>
		<path class="st103" d="M490.4,547.1c0,0-6.7,11.3-9.5,13.2c-3.8,2.5-1.4,5,0.4,5c1.8,0,11.1,0.7,13.1-1.7c2-2.3,3.1-9.3,5-11.1
			c1.9-1.8,3.6-8.5-0.9-10.8C493.5,539.3,490.4,547.1,490.4,547.1z"/>
	</g>
	<g>
		<path class="st89" d="M492.9,541.2c0,0-7.3,14.2-8.6,16.2s2.5,2,4.8,1c2.4-0.9,8.5-10.4,9.1-12.2c0.7-1.8,0.2-4.4,0.2-4.4
			L492.9,541.2z"/>
	</g>
	<g>
		<polygon class="st103" points="501.1,549.2 499.3,562.8 498.4,562.9 498.6,553.1 		"/>
	</g>
	<g>
		<path class="st103" d="M547.6,536.1c0,0-1.6,13-3.4,15.9c-2.5,3.8,0.7,5.2,2.4,4.5c1.7-0.7,10.4-3.8,11.4-6.8
			c0.9-2.9-0.9-9.7,0.1-12.1c1-2.4-0.1-9.3-5.2-9.5C547.3,527.7,547.6,536.1,547.6,536.1z"/>
	</g>
	<g>
		<path class="st89" d="M547.6,529.6c0,0-1,15.9-1.4,18.2c-0.4,2.3,3.1,0.8,4.8-1c1.8-1.8,3.6-12.9,3.5-14.8
			c-0.1-1.9-1.6-4.1-1.6-4.1L547.6,529.6z"/>
	</g>
	<g>
		<polygon class="st103" points="558.2,533.8 562,546.9 561.2,547.4 557.6,538.3 		"/>
	</g>
	<g>
		<path class="st104" d="M484.5,416.8c0,0-0.2,2.5,0,5.1c0.1,1.3-2,8.9-2.4,9.8c-0.3,0.8-0.7,0.2-0.8-0.5c-0.1-0.4,0.3-3.1,0.2-4.6
			c0-1.3-0.3-1.8-0.6-1.5c-0.3,0.3-2.2,5-2.4,7.2c-0.2,2.2-2.1,6.8-3,5.8c-0.9-1-0.7-10.4,0.5-13.6c1.2-3.2,3.6-6.9,3.6-6.9
			L484.5,416.8z"/>
		<path class="st91" d="M485.5,418.6c0.4-1,9.1-15,11.2-19.5c2.1-4.5,3.9-8.6,4.9-10.3c0.1-0.1,0.2-0.3,0.3-0.6
			c0.7-1.3,2.2-4.2,3.7-6.9c0.1-0.2,0.2-0.4,0.3-0.6l0.3-1.1c1-1.9,0.4-3.1,0.6-4.7c0.1-0.5,0.2-1,0.5-1.5c0,0,0,0,0-0.1
			c1.3-2.5,2.3-4.7,2.6-6c1-4.3,6.1-23.2,6.1-23.2s-8.1,2.9-9.4,5.8c-1.9,4.4-4.2,11.1-4.8,13.1c-0.6,2.1-6.3,19.1-7.5,22.5
			c-1.2,3.5-2.4,6.4-3.7,8.6c-1.3,2.2-10.8,22.2-11.5,24.1C479.1,418.2,485.1,419.6,485.5,418.6z"/>
	</g>
	<g>
		<path class="st93" d="M519.8,437.1c-0.3,1.6-2.5,8.3-4.8,15.8v0c-2.2,6.8-4.6,14.2-6,19c-0.5,1.8-0.9,3.2-1.1,4
			c-1.4,5.6,0.2,14.4,0.7,21.8c0.5,7.4-2.3,44.6-2.3,44.6c-1.9,0.9-13.9-0.7-13.9-0.7c1.4-2.6,1.8-49.5,1-52.4
			c-0.7-2.9-1.2-10.8-0.5-14c0.2-0.6,0.2-1.5,0.2-2.5c0.1-3.9-0.7-10.4-1.2-17.6c-0.6-9,2.9-31.3,3.4-33.3c0-0.2,0.1-0.4,0.2-0.8
			c0.9-3.1,3.9-12,3.9-12c6-1.8,10.5-2.1,13.9-1.4c4.5,0.9,6.9,3.6,8.1,7C524.3,422.8,520.2,435,519.8,437.1z"/>
	</g>
	<g>
		<path class="st93" d="M554.5,527.9l-9.6,7.8c-1-5-23.1-44.4-24.6-48.3c-1.5-3.9-3.1-11.3-3.1-14.1c0-0.5,0-1.3-0.1-2.4
			c-0.3-4.2-1-12-2.1-18.1c-0.2-1.1-0.4-2.2-0.6-3.2c-1.2-5.3-1.4-23.2-1.4-33.8c0-4.7,0-7.9,0-7.9s0.1-0.1,0.3-0.2
			c2.3-1.7,16.9-12.2,21.9-2.4c1.3,2.6,2.2,5.4,2.8,8.3c1.6,8.9,0,18.9-1.3,28c-1.1,7.8-3.3,18.8-3.9,27c-0.3,4.5-0.2,8.1,0.8,9.9
			c2.9,5,5.7,9.2,11.5,26.8C546.8,511,554.5,527.9,554.5,527.9z"/>
	</g>
	<g>
		<path class="st105" d="M509.3,317.2c0,0-3.2-20.5,13.8-20.1c17,0.4,16.8,10.5,16.5,20.6c-0.3,10.1-6.8,9.3,0.5,23.3
			c7.3,14-6.4,14-6.4,14l-10.6-14.6L509.3,317.2z"/>
	</g>
	<g>
		<path class="st89" d="M521.3,299c0,0-11.5,1.8-12,18.2c-0.5,16.4,3.1,19.8,13.2,16.4c10.1-3.4,13.2-20.5,13.5-23.2
			C536.2,307.8,536.8,297,521.3,299z"/>
	</g>
	<g>
		<path class="st106" d="M541.5,355.9c0,5.6-6.4,19.1-7.4,23.2c-1,4.2-2.6,5.5-1.2,10.8c1.3,5.3,5.5,23.3,5.3,24.9
			c-0.2,1.6-25.2,9.5-42.7,6.3c0,0,6.8-25.4,7.3-28.3s-0.6-13.8-0.9-16.9c-0.2-3.1-3.4-9.7-3.3-12.8c0.1-3.1,1.6-5.9,3.8-9.2
			c0.7-1,1.4-2.1,2.1-3.1c2.3-3.4,4.6-6.4,5.7-7.4c0.8-0.8,1.6-1.4,2.3-1.8c0,0,0,0,0,0c1.4-0.9,2.4-1.2,2.4-1.2l9.9-1.6
			c0,0,6.2,2.2,9.7,3.1C534.4,341.8,541.4,342.8,541.5,355.9z"/>
	</g>
	<g>
		<path class="st106" d="M512.5,341.5l-5.7,9l-5.3,8.3c0,0,0.4-1.3,1-5c0.1-0.7,0.2-1.5,0.4-2.3c0-0.3,0.1-0.5,0.2-0.8c0,0,0,0,0,0
			C505.2,345.6,512.2,341.7,512.5,341.5C512.5,341.5,512.5,341.5,512.5,341.5z"/>
	</g>
	<g>
		<path class="st107" d="M529,326.2c-1,1.9-2.1,13.6-2.1,13.6s-14.1,5.3-12.6,2.3c0.7-1.4,0.8-3.1,0.9-4.7c0-1.2-0.1-2.3-0.2-2.8
			c0-0.3-0.1-0.5-0.1-0.5S529.9,324.3,529,326.2z"/>
	</g>
	<g>
		<path class="st105" d="M516.6,310.7c0,0,5.9,9.6,11.3,13.4c5.4,3.8,2.6,6.8,2.6,6.8s14-29.5,0.7-31.6c-13.3-2-21.5-2.2-21.9,17.8
			C509.3,317.2,515.4,310.6,516.6,310.7z"/>
	</g>
	<g>
		<path class="st89" d="M523,333.4c-2.2,3.2-7.9,4-7.9,4s0,0,0,0c0-1.2-0.1-2.3-0.2-2.8C518.6,335.3,523,333.4,523,333.4z"/>
	</g>
	<path class="st91" d="M503,350.8C503,350.8,503,350.8,503,350.8c0,0-0.3,0.6-0.6,3.2l2.1-3.1c0,0,3.7-5.3,5-6.7
		c1.3-1.4,3-2.6,3-2.6S505.2,345,503,350.8z"/>
	<path class="st104" d="M534.2,384.7c0,0-4.2,1.5-8,2.3c-3.9,0.8,0.1,5.4,0.1,5.4s6.7-0.6,9.9-0.9
		C537.8,391.3,534.2,384.7,534.2,384.7z"/>
	<path class="st106" d="M531,358.7c0,0,9-3.5,11.7-3.7c0,0-1.8-14.5-10.7-13C523.1,343.5,531,358.7,531,358.7z"/>
	<path class="st89" d="M514.9,340.3c0,0-6.6,10.2-4.4,11.1c2.2,0.9,14.4-1.2,19.6-10.9C530,340.5,522.3,336.6,514.9,340.3z"/>
	<path class="st91" d="M526.9,339.4c0,0-7,11.7-8,33.9c-0.9,22.2,6.9,93.1,6.5,101.7l21.3-9.2c0,0-8-58-10.7-69s5.7-25.6,6.7-41.8
		c0,0-0.6-11.1-7-13C529.2,340.1,526.9,339.4,526.9,339.4z"/>
	<g>
		<path class="st104" d="M541.1,351.1c0,0-1.6-10.7-9.4-8.9c-7.5,1.7-0.5,15.7,0.1,17.4c0.6,1.7,6.1,15.3,6.6,17
			c1.5,5.6,0.1,5.8-2.2,7.1c-6.8,3.9-20.8,3.7-22.4,4.7c-1.6,1.1-1.5,4.4,1.2,4.5c3.5,0.2,23.7-1.7,26.5-2c2.7-0.3,8.2-0.5,6.7-10.2
			C547.2,374.3,541.1,351.1,541.1,351.1z"/>
	</g>
	<path class="st91" d="M514.9,340.3c0,0-7.5,12.4-7.9,27.1c-0.4,14.7-14.1,77.3-12.6,109.4l-3.2-3.1c-1-1-1.6-2.4-1.5-3.8
		c0.6-9.2,3-44.4,9-63.7c7-22.3,1.1-37.1-0.1-41.1c-1.2-4,2.6-9.3,3.8-11.2C503.7,352.1,506.7,343.3,514.9,340.3z"/>
	<g>
		<polygon class="st99" points="531.1,366.8 537.4,406.5 512,410.5 504.7,371 		"/>
		<polygon class="st100" points="530,369.3 535.6,404.5 513,408.1 506.5,373 		"/>
		<polygon class="st99" points="523.2,371.3 522.8,368.8 513.6,370.2 513.7,372.8 		"/>
	</g>
	<path class="st104" d="M526.2,386.9c0,0-4.2,0.7-4.6,0.6c-0.4-0.1-2.1-2.8-4-3.3c-1.9-0.5-4.3-0.9-4.9-1.2
		c-0.6-0.4-0.8,1.5,1.1,2.3c1.8,0.8,2.3,1.8-1.1,2.5c-1.9,0.4-9.1-0.4-8.5,0.8c0.3,0.7,7.2,1.2,7.2,1.2s-7.4,0-7.7,0.4
		c-0.5,0.9,7,1.2,7.3,1.2c0,0-6.4,0.4-6.5,0.9c-0.1,0.7,6.4,0.4,6.3,0.5c0,0-5.1,0.4-5,0.8c0.1,0.6,4.5,0.6,5.4,0.5
		c0.9-0.1,9.6-1.1,11.1-1.4c1.5-0.3,4-0.5,4-0.5L526.2,386.9z"/>
	<path class="st91" d="M542.4,352.3c0,0,7.2,27.3,6.6,34c-0.6,6.7-26.6,8-26.6,8v-7.1c0,0,13.6-3,16.2-6.1
		c1.3-1.6-7.6-22.4-7.6-22.4s-7.9-13-0.4-16.3C538.1,339.1,541.3,348.3,542.4,352.3z"/>
</g>
<g>
	<g>
		<g>
			<path class="st89" d="M108.2,426.3c0,0-4.3,2.1-8.3,2.5c0,0-3.8-5.6-6.1-9.8c-5.3-10-6.9-14.7-6.5-18.6
				c0.8-6.9,14.4-34.6,14.4-34.6l15.1,5.8l-11.6,20.6c-1.1,2.1-2.5,5.5-3.9,8.3c-1.9,3.6,0.4,12,1.7,15.5
				C103.2,416,105.6,422.8,108.2,426.3z"/>
		</g>
	</g>
	<g>
		<g>
			<path class="st108" d="M61,540.3c0,0-0.4,2.5,1.3,5.9c1.7,3.3,9.5,11.9,9,15.4c-0.5,3.5-9.5,3.1-15.1-3.1
				c-5.6-6.2-14-12.6-13.7-14c0.3-1.5,8.8-9.2,11.7-10.2C57.1,533.2,61,540.3,61,540.3z"/>
		</g>
	</g>
	<g>
		<g>
			<polygon class="st89" points="64.1,537 60.9,540.5 53.8,534.4 57.1,530.6 			"/>
		</g>
	</g>
	<g>
		<path class="st109" d="M54.3,530.6c3.5-3.9,31.6-32.7,31.6-32.7c14.3-16.5,19.9-17,19.9-17s3.6,0.1,8.5,0.7c0.7,0.1,3,0.1,3.7,0.2
			c9.1,1.5,9.4,0.4,6,7.9c-5.5,12.3-60.5,47.8-60.5,47.8L54.3,530.6z"/>
	</g>
	<g>
		<g>
			<path class="st108" d="M182.7,545.6c0,0,4.5,2,8.5,2.5c4,0.5,13.5-1,16.3,1.6c2.7,2.6-3.1,10.2-12,11.3c-8.8,1.1-20.1,3-21.2,1.8
				c-1.1-1.2-2-11.7-1.1-14.9C174.1,544.6,182.7,545.6,182.7,545.6z"/>
		</g>
	</g>
	<g>
		<g>
			<polygon class="st89" points="180.8,540.9 182.7,545.6 173.2,547.8 171.8,542.8 			"/>
		</g>
	</g>
	<g>
		<path class="st109" d="M166.5,481.8c0,0-3.9-14.8,5.2,20c0,0,9.6,37.1,10.6,39.3c0.3,0.5-12,2.7-12.2,2.7
			c-2.1-0.9-21.2-48.4-26-57.2C140,478.8,166.5,481.8,166.5,481.8z"/>
	</g>
	<g>
		<g>
			<path class="st109" d="M166.5,481.8l-19.1,11c0,0-7.5-9.2-12.5-13c-0.5-0.4-1-0.8-1.5-1.2c-0.7-0.6-1.5-1.1-2.2-1.7
				c-0.5-0.4-1.1-0.8-1.6-1.3c-3.6-2.9-7-5.8-8.9-8c-5.4-6.2,6.4-45.7,21.4-28.1C142.1,439.6,162.1,458.4,166.5,481.8z"/>
		</g>
	</g>
	<g>
		<g>
			<path class="st109" d="M140.9,434.9c0,0-9.4,43.2-18.7,58c0,0-15.8-5.3-23-8.1c0,0-0.7-31.3,0-39.4
				C99.9,437.6,140.9,434.9,140.9,434.9z"/>
		</g>
	</g>
	<g>
		<g>
			<path class="st110" d="M97.3,450c0,0,4-38.9,0.7-56.9c-2.2-12,1-31.5,8.2-42c0.9-1.3,1.8-2.4,2.7-3.4c0,0,14.5,3.9,16,4.9
				c0.2,0.1,1.8,1.5,3.8,4h0c4.1,5.1,10.3,14.3,10.8,23.2c0.4,6.5,0.8,12.5,1.2,18.6c0.1,1.9,0.3,3.8,0.4,5.7
				c0.3,4.6,0.7,9.5,1.2,14.8c0.3,3,2.3,12.4,3.6,21.1L97.3,450z"/>
		</g>
	</g>
	<path class="st111" d="M133.4,478.6c-0.7-0.6-1.5-1.1-2.2-1.7c-0.5-0.4-1.1-0.8-1.6-1.3c0.8-2.4,4.9-13.5,6.5-21.5
		C136.2,454.2,137.4,466.6,133.4,478.6z"/>
	<path class="st112" d="M141.1,404c0,0-8.5,12.9-10-18.9l9.6,13.2C140.8,400.2,141,402.1,141.1,404z"/>
	<g>
		<g>
			<path class="st89" d="M108.9,347.7c0,0,1.5-8.4-0.3-13.3c-1.8-4.9,14.5,8.2,14.5,8.2s0,0.7,0,1.7c0,0.8,0.1,1.8,0.1,2.8
				c0.1,2,0.4,4.2,0.9,5.4C125.3,355.3,108.9,347.7,108.9,347.7z"/>
		</g>
	</g>
	<g>
		<path class="st89" d="M132.4,318.2c0,0,3.4,6.4,1.7,7.4c-1.4,0.8,1.6,7.1,2,8.2c0.4,1-2.6,1.8-3.2,2.4c-0.6,0.7-2.6,8.8-5,9
			s-13.5-3.7-16.4-6.8c-3-3.1-5.4-17.3-3.3-23.2C110.2,309.3,126.3,307,132.4,318.2z"/>
	</g>
	<g>
		<path class="st93" d="M133.1,319.6c0,0,3.6-6.9-2.8-12.1c-6.4-5.2-18.3,3.8-19.6,4.1c-1.3,0.3-9.3,2.9-5.3,14.7
			c3.6,10.7,4.1,11.9,4.1,11.9s2.2-7.1,3.6-8.1c2.2-1.6,6.9-1.2,6.9-1.2s-2.2-6,1.3-6.9C124.8,321.2,129.5,318.3,133.1,319.6z"/>
	</g>
	<g>
		<path class="st107" d="M116.2,325.4c-0.3-0.8-1.3-4.4-4.4-2.3c-3.1,2.1,1.8,8.8,2.4,8.9C114.7,332.1,118.8,332.4,116.2,325.4z"/>
	</g>
	<path class="st97" d="M123.3,347.1c-5-1.4-9.3-6.8-9.3-6.8c1.4,1.3,9.2,4,9.2,4C123.2,345.1,123.2,346.1,123.3,347.1z"/>
	<g>
		<polygon class="st99" points="179.5,392.9 171.3,435.1 144.2,429.8 151.3,387.4 		"/>
		<polygon class="st100" points="177.5,394.9 170.2,432.4 146.1,427.7 152.5,390.1 		"/>
		<polygon class="st99" points="169.8,394.4 170.3,391.8 160.6,389.9 159.7,392.4 		"/>
	</g>
	<g>
		<g>
			<g>
				<g>
					<g>
						<path class="st89" d="M176.3,422.5c0,0-1.2,0.5-1.8,0.5c0,0-1.1-0.2-2-0.2c-0.3,0-0.5,0-0.6,0c-0.6,0-1.9,0.3-3.4,0
							c-1.5-0.3-7.6-3.4-7.6-3.4l0.7-3.8l0.2-3.6c0,0,8.9-3,10.3-2.9c0.1,0,0.3,0,0.4,0.1c1.2,0.2,2,0.9,2.6,1.1
							c0.2,0.1,2.4,1,2.6,1.6c0.3,0.9,0.1,1.7-0.3,2.2c0,0,0.5,1.8,0,3c0,0,0.5,1.7-0.6,3C176.9,420.1,177.2,421.9,176.3,422.5z"/>
					</g>
				</g>
			</g>
		</g>
	</g>
	<g>
		<g>
			<path class="st89" d="M163.8,411.1c0,0-0.8,4.7-2.9,8.2c0,0-6.8-0.3-11.5-1c-11.2-1.7-15.9-3.2-18.8-5.9
				c-5.1-4.8-19.2-32.2-19.2-32.2l13.7-8.7l9.6,21.5c1,2.1,3,5.3,4.3,8.1c1.8,3.7,9.9,6.8,13.5,7.8
				C152.6,409.1,159.5,411.1,163.8,411.1z"/>
		</g>
	</g>
	<g>
		<g>
			<path class="st110" d="M131.9,383.3l-15.6,8.1c0,0-3.1-6-4-7.9c-2.6-5.6-6.6-14-1.6-17.5c10.9-7.7,15.5,5.1,18.2,12
				C129.9,380.1,131.9,383.3,131.9,383.3z"/>
		</g>
	</g>
</g>
<g>
	<linearGradient id="SVGID_22_" gradientUnits="userSpaceOnUse" x1="272.8748" y1="191.2858" x2="278.4803" y2="277.0944">
		<stop  offset="0" style="stop-color:#2C47B9"/>
		<stop  offset="1" style="stop-color:#2A2888"/>
	</linearGradient>
	<rect x="268.6" y="199.4" class="st113" width="13.2" height="55.4"/>
	<linearGradient id="SVGID_23_" gradientUnits="userSpaceOnUse" x1="272.8748" y1="191.2861" x2="278.4803" y2="277.0935">
		<stop  offset="0" style="stop-color:#2C47B9"/>
		<stop  offset="1" style="stop-color:#2A2888"/>
	</linearGradient>
	<polygon class="st114" points="247.5,233.7 247.5,220.5 302.9,220.5 302.9,233.7 	"/>
</g>
<g>
	<g>
		<g>
			<path class="st68" d="M82.3,246.7c-12.6-6-27.2-2.8-36.3,6.9c-2.2,2.3-4.1,5.1-5.5,8.1c-4.4,9.3-3.8,19.6,0.6,28
				c3.1,5.8,8,10.8,14.4,13.8c0.6,0.3,1.3,0.6,1.9,0.8c2.9,1.2,6,1.8,9,2.1c12.7,1,25.2-5.7,31-17.9
				C104.7,272.9,98,254.1,82.3,246.7z M90.2,285.2c-4.3,9.1-13.7,14.2-23.2,13.4c-2.3-0.2-4.5-0.7-6.7-1.6c-0.5-0.2-1-0.4-1.5-0.6
				c-4.8-2.3-8.5-6-10.8-10.4c-3.3-6.3-3.7-14.1-0.4-21c1.1-2.3,2.5-4.3,4.1-6.1c6.8-7.2,17.8-9.6,27.2-5.1
				C90.7,259.4,95.8,273.4,90.2,285.2z"/>
		</g>
	</g>
	<g>
		<g>
			<path class="st115" d="M48,286.1l-7,3.7c-4.4-8.4-5-18.8-0.6-28c1.4-3.1,3.3-5.8,5.5-8.1l5.7,5.4c-1.6,1.8-3.1,3.8-4.1,6.1
				C44.3,272,44.7,279.7,48,286.1z"/>
		</g>
	</g>
	<g>
		<g>
			<path class="st116" d="M60.2,297.1l-2.9,7.3c-0.6-0.3-1.3-0.5-1.9-0.8c-6.4-3-11.3-8-14.4-13.8l7-3.7c2.3,4.4,6,8.1,10.8,10.4
				C59.3,296.7,59.8,296.9,60.2,297.1z"/>
		</g>
	</g>
	<g>
		<g>
			<path class="st116" d="M66.3,306.5c-3-0.2-6-0.9-9-2.1l2.9-7.3c2.2,0.9,4.5,1.4,6.7,1.6L66.3,306.5z"/>
		</g>
	</g>
</g>
<g>
	<polygon class="st116" points="59.2,327.2 0.5,327.2 0.5,326 58.1,326 58.1,301.2 59.2,301.2 	"/>
</g>
<g>
	<rect x="0.5" y="313.9" class="st68" width="30.9" height="7"/>
</g>
</svg>
