<?xml version="1.0" encoding="utf-8"?>
<!-- Generator: Adobe Illustrator 23.0.1, SVG Export Plug-In . SVG Version: 6.00 Build 0)  -->
<svg version="1.1" id="Layer_1" xmlns="http://www.w3.org/2000/svg" xmlns:xlink="http://www.w3.org/1999/xlink" x="0px" y="0px"
	 viewBox="0 0 216.4 179.8" style="enable-background:new 0 0 216.4 179.8;" xml:space="preserve">
<style type="text/css">
	.st0{opacity:0.15;fill:#2C2A40;enable-background:new    ;}
	.st1{fill:#63676D;}
	.st2{fill:#404348;}
	.st3{fill:#A0BBE7;}
	.st4{fill:#D98037;}
	.st5{fill:#2C2A40;}
	.st6{fill:#82A6E1;}
	.st7{fill:#383851;}
	.st8{fill:#82423C;}
	.st9{fill:#5C1A31;}
	.st10{fill:#BFD7F7;}
	.st11{fill:#AA571A;}
	.st12{fill:#EDEDED;}
	.st13{fill:#107B85;}
	.st14{fill:#079798;}
	.st15{fill:#FFFFFF;}
	.st16{opacity:0.2;enable-background:new    ;}
	.st17{fill:#FF6160;}
	.st18{fill:#9CA4AE;}
	.st19{fill:#00B3D8;}
</style>
<title>testimonials-2-men-talking</title>
<ellipse class="st0" cx="109.2" cy="174.9" rx="107.2" ry="5"/>
<path class="st1" d="M202.4,131.8H168c-1.7,0-3.1-1.4-3.1-3.1v-2.6c0-1.7,1.4-3.1,3.1-3.1h34.4c1.7,0,3.1,1.4,3.1,3.1v2.6
	C205.5,130.4,204.1,131.8,202.4,131.8z"/>
<path class="st1" d="M200.1,69.2l7.4,0.9c4.6,0.5,7.8,4.7,7.3,9.2c0,0.2,0,0.4-0.1,0.5l-7.3,39.6c-0.7,4.1-4.4,7-8.5,6.8l-18.1-0.7
	c-4.6-0.2-8.2-4-8-8.6c0-0.5,0.1-1,0.2-1.5l8.9-39.8c0.9-3.8,4.2-6.5,8.1-6.5h9.1C199.5,69.2,199.8,69.2,200.1,69.2z"/>
<path class="st2" d="M196.8,74.9l6,0.7c3.7,0.4,6.3,3.7,5.9,7.4c0,0.1,0,0.3-0.1,0.4l-5.9,31.8c-0.6,3.3-3.5,5.6-6.8,5.5l-14.5-0.5
	c-3.7-0.1-6.6-3.2-6.4-6.9c0-0.4,0.1-0.8,0.2-1.2l7.1-31.9c0.7-3.1,3.4-5.2,6.5-5.2h7.3C196.3,74.8,196.6,74.8,196.8,74.9z"/>
<polygon class="st1" points="158.7,174.8 162.1,174.8 170.1,142.8 172.8,131.8 173.3,129.7 170.2,128.8 169.4,131.8 166.7,142.8 "/>
<polygon class="st2" points="166.7,142.8 170.1,142.8 172.8,131.8 169.4,131.8 "/>
<polygon class="st1" points="197.3,129.7 197.8,131.8 200.5,142.8 208.5,174.8 211.9,174.8 203.9,142.8 201.1,131.8 200.4,128.8 "/>
<polygon class="st2" points="197.8,131.8 200.5,142.8 203.9,142.8 201.1,131.8 "/>
<path class="st3" d="M182.4,62.5l-1.9,22.4c0,0-5.3,10.4-8.7,10.2c-2.7-0.2-9.8-0.9-13.2-1.3c-1.2-0.1-2-0.2-2-0.2l-1.3-5.5
	c0.7,0,1.6,0.1,2.6,0.1c5.3,0.1,13.1-0.1,13.1-0.1C173.2,82.1,182.4,62.5,182.4,62.5z"/>
<path class="st3" d="M158.6,93.8c-1.2-0.1-2-0.2-2-0.2l-1.3-5.5c0.7,0,1.6,0.1,2.6,0.1C158.6,90,158.8,91.9,158.6,93.8z"/>
<path class="st4" d="M155.3,88.1c0,0-1.5-2-2.2-3.2s-1.9-0.6-1,2.2c-1.7-0.3-3.4-0.4-5.1-0.2c-1.8,0.4-1.5,4.4,0.4,6.3
	s9.2,0.4,9.2,0.4S156.9,90.2,155.3,88.1z"/>
<path class="st5" d="M200.4,113.5c0,0-1.5,11.4-16.2,10c-13.1-1.3-10.9-12.1-10.9-12.1S191.6,110.6,200.4,113.5z"/>
<path class="st3" d="M206.5,64.2l-2.8,22.5l-1,8.3l-2.3,18.4c-4.6,1.2-9,2.1-13.1,1.2c-2.6-0.6-4.6-1-8.5-1.6
	c-1.9-0.3-3.7-0.8-5.5-1.6l2.5-13.6l0.7-3.8l5.8-31.5l6.6-0.7l0,0l8.7-0.3L206.5,64.2z"/>
<path class="st6" d="M203.7,86.8l-1,8.3c-0.9,1.2-2.1,2.1-3.5,2.7c-4.2,1.6-20.9,0.2-23.4,0l0.7-3.8c20.8,2,26.7-7.5,26.7-7.5
	L203.7,86.8z"/>
<polygon class="st5" points="190.6,67.7 183.5,93.7 185.3,100.6 189.3,94.6 191.3,67.8 "/>
<polygon class="st7" points="189.7,65.9 190.7,69.2 193.9,65.3 191.3,63.6 "/>
<path class="st5" d="M182.8,119.9c0,0-8.9,8.6-20.5,9.5c-0.6,4.2-1.5,8.3-2.8,12.3c-2,5.7-10.2,25.7-10.2,25.7l-7.4-0.2l13-46.8
	c0.5-1.9,2-3.4,3.9-3.9l14.8-4C173.6,112.4,183.3,115.6,182.8,119.9z"/>
<path class="st8" d="M147,174.7l-15.8,0.1c2.2-4.1,10.2-5.7,10.2-5.7l0.3-1.3l0.4-1.4c2.2-0.7,7.2,1,7.2,1L147,174.7z"/>
<path class="st9" d="M146.4,170.1c-1.7-1.4-5.1-1-5.1-1l0.3-1.3C145.2,167.9,146.4,170.1,146.4,170.1z"/>
<path class="st7" d="M196.9,120c0,0-10.9,12.6-21.6,11.8c0,0,0.2,8.8-0.3,14.8s-1.8,20.8-1.8,20.8l-6.2,0.3l-1.7-39.7
	c-0.1-1.7,0.8-3.3,2.3-4.2l13.6-7.7C181.2,116,196.3,115.7,196.9,120z"/>
<path class="st8" d="M172.2,174.8l-15.8,0c2.2-4.1,10.1-5.7,10.1-5.7l0.3-1.3l0-0.7c2.2-0.7,6.3,0.2,6.3,0.2L172.2,174.8z"/>
<path class="st9" d="M171.1,170.1c-1.7-1.4-4.5-1.1-4.5-1.1l0.3-1.3C170.4,167.9,171.1,170.1,171.1,170.1z"/>
<path class="st3" d="M211.2,74.8c-2,9.2-12.2,21.1-12.2,21.1s-11,2.5-21.5-0.8c-0.6-0.2-1.2-0.4-1.8-0.6c-0.3-1.6-0.3-3.3,0-5
	c0,0,0.7,0.2,1.8,0.5c1.3,0.3,2.7,0.4,4,0.3c4.4-0.6,13.7-2.2,13.7-2.2s4.5-6.5,11.3-23.9C206.5,64.2,213.2,65.6,211.2,74.8z"/>
<path class="st10" d="M177.5,89.9v5.1c-0.6-0.2-1.2-0.4-1.8-0.6c-0.3-1.6-0.3-3.3,0-5C175.7,89.5,176.5,89.7,177.5,89.9z"/>
<path class="st4" d="M175.7,89.5c0,0-2.6-3-3.4-3c-1-0.1-0.4,2-0.4,2s-2.3-1.2-3.9,0c-1.5,1.1-0.7,8.3,7.8,6V89.5z"/>
<path class="st4" d="M197.1,60.5c-1.9,2.3-4.7,3.6-7.7,3.4l-0.7-2.7l-0.9-3.4c0.5-1,1.1-1.8,1.8-2.7c1.3-1.5,3.3-3,5.7-2.7
	L197.1,60.5z"/>
<path class="st11" d="M194.4,53.7c0,0-1.1,5.7-5.7,7.5l-0.9-3.4c0.5-1,1.1-1.8,1.8-2.7L194.4,53.7z"/>
<path class="st4" d="M180,38.1l-1.2,17.2c-0.2,2.2,1.5,4,3.6,4.2c0.1,0,0.2,0,0.3,0c4.4,0,11-1.2,14.1-7.5
	C201.7,42.1,189.7,31.7,180,38.1z"/>
<path class="st11" d="M179.5,45l-2.1,4.8c-0.2,0.6,0,1.2,0.6,1.4c0,0,0,0,0,0l1,0.4C179,51.7,180.7,50.4,179.5,45z"/>
<path class="st5" d="M180.6,39.5c0,0-4.4-1.6-3.8-5.8c1.1-8,15.7-2.1,21.3,0.8c6.3,3.3,3.1,13.9,1.4,17c-0.6,1.1-1.5,2-2.6,2.7
	c-1.1,0.7-2.8-0.1-3.3-1.4s-1.1-2.7,1.1-5.7c1.6-2.2-0.7-5.4-3.1-3.3s-3.3,1.7-2.5-1.1S184.7,38.4,180.6,39.5z"/>
<path class="st5" d="M188.8,44c0,0-2,9.5-4.8,8.1c-1.6-0.8-3.6-0.8-5.2,0.1c-2,9.3,3.2,9.1,5.4,8.4c3.6-1.1,3.8-6.4,4-9
	s2.7-7.2,2.7-7.2L188.8,44z M180.4,56.6c-0.7-0.8-1-1.8-1-2.8c0-0.3,0.1-0.5,0.4-0.5c0.9-0.2,1.8-0.2,2.7,0.1
	C183,53.7,181.6,57.5,180.4,56.6L180.4,56.6z"/>
<path class="st10" d="M191.3,63.6l4,2.6c0,0,4.1-4.3,3.3-6.3s-1.9-1.3-1.9-1.3S194.5,62.2,191.3,63.6z"/>
<path class="st10" d="M188.5,60.8c0,0-1.7,1.7-1.7,3.1s2.3,2.8,2.3,2.8l2.2-3.1c-0.7,0.1-1.4,0.2-2,0.1L188.5,60.8z"/>
<path class="st1" d="M12.5,123.1h34.4c1.7,0,3.1,1.4,3.1,3.1v2.6c0,1.7-1.4,3.1-3.1,3.1H12.5c-1.7,0-3.1-1.4-3.1-3.1v-2.6
	C9.4,124.4,10.8,123.1,12.5,123.1z"/>
<path class="st1" d="M14.8,69.2l-7.4,0.9c-4.6,0.5-7.8,4.7-7.3,9.2c0,0.2,0,0.4,0.1,0.5l7.3,39.6c0.7,4.1,4.4,7,8.5,6.8l18.1-0.7
	c4.6-0.2,8.2-4,8-8.6c0-0.5-0.1-1-0.2-1.5L33,75.7c-0.9-3.8-4.2-6.5-8.1-6.5h-9.1C15.4,69.2,15.1,69.2,14.8,69.2z"/>
<path class="st2" d="M18.1,74.9l-6,0.7C8.4,76,5.8,79.3,6.2,83c0,0.1,0,0.3,0.1,0.4l5.9,31.8c0.6,3.3,3.5,5.6,6.8,5.5l14.5-0.5
	c3.7-0.1,6.6-3.2,6.4-6.9c0-0.4-0.1-0.8-0.2-1.2l-7.1-32c-0.7-3.1-3.4-5.2-6.5-5.2h-7.3C18.6,74.8,18.3,74.8,18.1,74.9z"/>
<polygon class="st1" points="56.2,174.8 52.8,174.8 44.8,142.8 42.1,131.8 41.6,129.7 44.7,128.8 45.4,131.8 48.2,142.8 "/>
<polygon class="st2" points="48.2,142.8 44.8,142.8 42.1,131.8 45.4,131.8 "/>
<polygon class="st1" points="17.6,129.7 17.1,131.8 14.4,142.8 6.4,174.8 3,174.8 11,142.8 13.7,131.8 14.5,128.8 "/>
<polygon class="st2" points="17.1,131.8 14.4,142.8 11,142.8 13.7,131.8 "/>
<path class="st5" d="M32.5,62.5l1.7,11.6c0,0,13.2,12.7,16.6,12.4c5.7-0.4,13.6-4.1,16.6-5.9c1-0.6,1.7-1,1.7-1l-1.2-5.5
	c-0.7,0.4-1.4,0.8-2.3,1.2c-4.7,2.3-14.8,3.6-14.8,3.6C46.3,74.4,32.5,62.5,32.5,62.5z"/>
<path class="st12" d="M67.4,80.6c1-0.6,1.7-1,1.7-1l-1.2-5.5c-0.7,0.4-1.4,0.8-2.3,1.2C65.8,77.2,66.4,79,67.4,80.6z"/>
<path class="st4" d="M67.9,74.1c0,0,0.5-2.4,0.6-3.8s1.5-1.4,1.8,1.6c1.4-1,2.9-1.8,4.6-2.4c1.7-0.4,3.3,3.4,2.3,5.8
	s-8.1,4.3-8.1,4.3S67.4,76.7,67.9,74.1z"/>
<path class="st5" d="M14.5,113.5c0,0,1.5,11.4,16.2,10c13.1-1.3,10.9-12.1,10.9-12.1S23.3,110.6,14.5,113.5z"/>
<path class="st5" d="M14.5,113.5c4.6,1.2,9,2.1,13.2,1.2c2.6-0.6,4.6-1,8.5-1.6c1.9-0.3,3.7-0.8,5.5-1.6l-9.1-48.9l-6.6-0.7l0,0
	l-8.7-0.3l-8.9,2.7L14.5,113.5z"/>
<path class="st12" d="M27.6,114.6c2.5-0.3,5.8-0.5,8.5-1.6c-1.4-7.5-7.7-40.2-10.2-51.2l0,0l-8.7-0.3
	C17.3,61.5,26.1,98.6,27.6,114.6z"/>
<polygon class="st13" points="24.3,67.7 31.4,93.7 29.5,100.6 25.6,94.6 23.6,67.8 "/>
<polygon class="st14" points="25.2,65.9 24.2,69.2 21,65.3 23.6,63.6 "/>
<path class="st5" d="M32,119.9c0,0,8.9,8.6,20.5,9.5c0.6,4.2,1.5,8.3,2.8,12.3c2,5.7,10.2,25.7,10.2,25.7l7.4-0.2l-13-46.8
	c-0.5-1.9-2-3.4-3.9-3.9l-14.8-4C41.3,112.4,31.6,115.6,32,119.9z"/>
<path class="st8" d="M67.9,174.7l15.8,0.1c-2.2-4.1-10.2-5.7-10.2-5.7l-0.3-1.3l-0.4-1.4c-2.2-0.7-7.2,1-7.2,1L67.9,174.7z"/>
<path class="st9" d="M68.4,170.1c1.7-1.4,5.1-1,5.1-1l-0.3-1.3C69.6,167.9,68.4,170.1,68.4,170.1z"/>
<path class="st7" d="M18,120c0,0,10.9,12.6,21.6,11.8c0,0-0.2,8.8,0.3,14.8s1.8,20.8,1.8,20.8l6.2,0.3l1.7-39.7
	c0.1-1.7-0.8-3.3-2.3-4.2L33.7,116C33.7,116,18.6,115.7,18,120z"/>
<path class="st8" d="M42.6,174.8l15.8,0c-2.2-4.1-10.1-5.7-10.1-5.7l-0.3-1.3l0-0.7c-2.2-0.7-6.3,0.2-6.3,0.2L42.6,174.8z"/>
<path class="st9" d="M43.8,170.1c1.7-1.4,4.5-1.1,4.5-1.1l-0.3-1.3C44.5,167.9,43.8,170.1,43.8,170.1z"/>
<path class="st5" d="M6.3,83.1c1.2,5.4,4.7,10.1,9.6,12.7c0,0,11,2.5,21.5-0.8c0.6-0.2,1.2-0.4,1.8-0.6c0.3-1.6,0.3-3.3,0-5
	c0,0-0.7,0.2-1.8,0.5c-1.3,0.3-2.7,0.4-4,0.3c-4.4-0.6-13.7-2.2-13.7-2.2s-4.5-6.5-11.3-23.9C8.4,64.2,4.3,73.9,6.3,83.1z"/>
<path class="st12" d="M37.4,89.9v5.1c0.6-0.2,1.2-0.4,1.8-0.6c0.3-1.6,0.3-3.3,0-5C39.2,89.5,38.4,89.7,37.4,89.9z"/>
<path class="st4" d="M39.2,89.5c0,0,2.6-3,3.4-3c1-0.1,0.4,2,0.4,2s2.3-1.2,3.9,0c1.5,1.1,0.7,8.3-7.8,6V89.5z"/>
<path class="st4" d="M17.9,60.4c1.9,2.3,4.8,3.5,7.7,3.4l0.7-2.7l0.9-3.4c-0.5-1-1.1-1.8-1.9-2.6c-1.3-1.5-3.3-3-5.7-2.7L17.9,60.4z
	"/>
<path class="st11" d="M20.5,53.6c0,0,1.2,5.7,5.8,7.5l0.9-3.4c-0.5-1-1.1-1.8-1.9-2.6L20.5,53.6z"/>
<path class="st4" d="M34.8,37.8L36.1,55c0.2,2.2-1.4,4-3.6,4.2c-0.1,0-0.2,0-0.3,0c-4.4,0-11.1-1.2-14.2-7.4
	C13.1,42,24.9,31.6,34.8,37.8z"/>
<path class="st11" d="M35.3,44.8l2.1,4.8c0.2,0.6,0,1.2-0.6,1.5c0,0,0,0,0,0l-1,0.5C35.8,51.5,34.2,50.2,35.3,44.8z"/>
<path class="st5" d="M16.7,33.5c-6.3,3.4-3.1,14.8-1.3,17.9c0.6,1.1,1.5,2,2.6,2.7c1.1,0.7,2.8-0.1,3.3-1.4s1-2.7-1.1-5.7
	c-1.6-2.2,0.7-5.5,3.1-3.4s3.3,1.7,2.5-1.1s4.2-4.3,8.4-3.3c0,0,4.3-0.3,3.7-5.5s-6.8-6.3-6.8-6.3s2.1,2.3-0.4,3.4
	S21.1,31.1,16.7,33.5z"/>
<path class="st15" d="M23.6,63.6l-4,2.6c0,0-4.1-4.3-3.3-6.3s1.9-1.3,1.9-1.3S20.3,62.2,23.6,63.6z"/>
<path class="st15" d="M26.4,60.8c0,0,1.7,1.7,1.7,3.1c0,1.4-2.3,2.8-2.3,2.8l-2.2-3.1c0.7,0.1,1.4,0.2,2,0.1L26.4,60.8z"/>
<rect x="47.9" y="102" class="st8" width="5.4" height="72.4"/>
<rect x="47.9" y="102" class="st9" width="5.4" height="12.6"/>
<rect x="161.6" y="102" class="st8" width="5.4" height="72.4"/>
<rect x="161.6" y="102" class="st9" width="5.4" height="12.6"/>
<rect x="36.4" y="95" class="st8" width="140.6" height="7"/>
<rect x="53.3" y="121.2" class="st9" width="108.3" height="3.3"/>
<rect x="53.3" y="138.2" class="st9" width="108.3" height="3.3"/>
<path class="st16" d="M110.3,29.7c-7.8,0-14.1-6.3-14.1-14.1s6.3-14.1,14.1-14.1s14.1,6.3,14.1,14.1
	C124.4,23.3,118.1,29.7,110.3,29.7z"/>
<path class="st5" d="M110.3,28.3c-7.8,0-14.1-6.3-14.1-14.1S102.4,0,110.3,0c7.8,0,14.1,6.3,14.1,14.1
	C124.4,21.9,118.1,28.3,110.3,28.3z"/>
<circle class="st15" cx="110.3" cy="14.1" r="12.1"/>
<path class="st5" d="M110.3,5.9c-0.2,0-0.4-0.2-0.4-0.4c0,0,0,0,0,0V3.2c0-0.2,0.2-0.4,0.5-0.3c0.2,0,0.3,0.2,0.3,0.3v2.2
	C110.6,5.7,110.5,5.8,110.3,5.9z"/>
<path class="st5" d="M110.3,25.2c-0.2,0-0.4-0.2-0.4-0.4c0,0,0,0,0,0v-2.2c0-0.2,0.2-0.4,0.5-0.3c0.2,0,0.3,0.2,0.3,0.3v2.2
	C110.6,25,110.5,25.2,110.3,25.2z"/>
<path class="st5" d="M102.4,14c0,0.2-0.2,0.4-0.4,0.4l0,0h-2.2c-0.2,0-0.4-0.2-0.3-0.5c0-0.2,0.2-0.3,0.3-0.3h2.2
	C102.3,13.6,102.4,13.8,102.4,14z"/>
<path class="st5" d="M121.8,14c0,0.2-0.2,0.4-0.4,0.4l0,0h-2.2c-0.2,0-0.4-0.2-0.3-0.5c0-0.2,0.2-0.3,0.3-0.3h2.2
	C121.6,13.6,121.8,13.8,121.8,14z"/>
<path class="st5" d="M104.6,8.5c-0.2,0.2-0.4,0.2-0.6,0l-1.6-1.6c-0.1-0.2-0.1-0.4,0.1-0.6c0.1-0.1,0.3-0.1,0.5,0l1.6,1.6
	C104.8,8.1,104.8,8.3,104.6,8.5z"/>
<path class="st5" d="M118.3,22.1c-0.2,0.2-0.4,0.2-0.6,0l-1.6-1.6c-0.1-0.2-0.1-0.4,0.1-0.6c0.1-0.1,0.3-0.1,0.5,0l1.6,1.6
	C118.5,21.7,118.5,22,118.3,22.1z"/>
<path class="st5" d="M104.9,19.8c0.2,0.2,0.2,0.4,0,0.6l-1.6,1.6c-0.2,0.1-0.4,0.1-0.6-0.1c-0.1-0.1-0.1-0.3,0-0.5l1.6-1.6
	C104.5,19.6,104.7,19.6,104.9,19.8z"/>
<path class="st5" d="M118.6,6.1c0.2,0.2,0.2,0.4,0,0.6L117,8.2c-0.1,0.2-0.4,0.2-0.6,0.1c-0.2-0.1-0.2-0.4-0.1-0.6
	c0,0,0-0.1,0.1-0.1l1.6-1.6C118.1,6,118.4,6,118.6,6.1z"/>
<path class="st16" d="M122.3,14.1c0,0.4,0,0.7,0,1c-0.6-6.6-6.4-11.5-13-11c-5.8,0.5-10.5,5.1-11,11c0-0.3,0-0.7,0-1
	c0-6.7,5.4-12.1,12.1-12.1S122.3,7.5,122.3,14.1z"/>
<polygon class="st17" points="110.6,14.4 114,22.6 110,14.8 "/>
<circle class="st5" cx="110.3" cy="14" r="1.3"/>
<polygon class="st5" points="109.2,14 107.3,9.1 110.3,13.4 "/>
<polygon class="st5" points="110.4,13.3 118.1,16.5 110,14.7 "/>
<path class="st7" d="M109.4,77.9v5.7H83.6c-0.8,0-1.5-0.7-1.5-1.5l0,0v-2.8c0-0.8,0.7-1.5,1.5-1.5l0,0H109.4z"/>
<path class="st12" d="M109.4,78.7v4.3H86c-0.7,0-1.4-0.6-1.4-1.4c0,0,0,0,0,0V80c0-0.8,0.6-1.4,1.4-1.4c0,0,0,0,0,0H109.4z"/>
<rect x="87" y="79.5" class="st18" width="22.4" height="0.4"/>
<rect x="87" y="80.6" class="st18" width="22.4" height="0.4"/>
<rect x="87" y="81.7" class="st18" width="22.4" height="0.4"/>
<path class="st17" d="M109.4,83.6v5.7H83.6c-0.8,0-1.5-0.7-1.5-1.5l0,0v-2.8c0-0.8,0.7-1.5,1.5-1.5l0,0H109.4z"/>
<path class="st12" d="M109.4,84.4v4.3H86c-0.7,0-1.4-0.6-1.4-1.4c0,0,0,0,0,0v-1.5c0-0.8,0.6-1.4,1.4-1.4c0,0,0,0,0,0H109.4z"/>
<rect x="87" y="85.2" class="st18" width="22.4" height="0.4"/>
<rect x="87" y="86.3" class="st18" width="22.4" height="0.4"/>
<rect x="87" y="87.4" class="st18" width="22.4" height="0.4"/>
<path class="st19" d="M109.4,89.3V95H83.6c-0.8,0-1.5-0.7-1.5-1.5l0,0v-2.7c0-0.8,0.7-1.5,1.5-1.5l0,0L109.4,89.3L109.4,89.3z"/>
<path class="st12" d="M109.4,90v4.3H86c-0.7,0-1.4-0.6-1.4-1.4c0,0,0,0,0,0v-1.5c0-0.8,0.6-1.4,1.4-1.4c0,0,0,0,0,0H109.4z"/>
<rect x="87" y="90.9" class="st18" width="22.4" height="0.4"/>
<rect x="87" y="92" class="st18" width="22.4" height="0.4"/>
<rect x="87" y="93.1" class="st18" width="22.4" height="0.4"/>
<path class="st7" d="M131.6,84.5v-3.6h-10.8v14.3h10.8V93c2.4,0,4.3-1.9,4.3-4.3C135.8,86.4,133.9,84.5,131.6,84.5z M131.6,91.3v-5
	c1.4,0,2.5,1.1,2.5,2.5S132.9,91.3,131.6,91.3L131.6,91.3z"/>
</svg>
