<?xml version="1.0" encoding="utf-8"?>
<!-- Generator: Adobe Illustrator 23.0.1, SVG Export Plug-In . SVG Version: 6.00 Build 0)  -->
<svg version="1.1" id="svg" xmlns="http://www.w3.org/2000/svg" xmlns:xlink="http://www.w3.org/1999/xlink" x="0px" y="0px"
	 viewBox="0 0 400 166.7" style="enable-background:new 0 0 400 166.7;" xml:space="preserve">
<style type="text/css">
	.st0{fill-rule:evenodd;clip-rule:evenodd;fill:url(#path0_1_);}
	.st1{fill-rule:evenodd;clip-rule:evenodd;fill:#F4FBFB;}
	.st2{opacity:0.1;fill-rule:evenodd;clip-rule:evenodd;fill:url(#path2_1_);}
	.st3{fill-rule:evenodd;clip-rule:evenodd;fill:#EDB2B4;}
	.st4{fill-rule:evenodd;clip-rule:evenodd;fill:#C80057;}
</style>
<linearGradient id="path0_1_" gradientUnits="userSpaceOnUse" x1="0" y1="72.2142" x2="173.0766" y2="72.2142">
	<stop  offset="0" style="stop-color:#2C47B9"/>
	<stop  offset="1" style="stop-color:#2A2888"/>
</linearGradient>
<path id="path0" class="st0" d="M0,69.8v69.8l0.8,0.3c0.4,0.2,1,0.4,1.3,0.5c14.7,5.8,35.7,5.2,50.1-1.5c3.1-1.5,5.5-2.7,6.8-3.5
	c5.3-3.3,7.5-5.1,13.1-10.5c7.1-6.9,10.7-9.5,16-11.3c4.1-1.4,9-2.2,15.7-2.7c1.9-0.1,4.1-0.3,4.8-0.4c0.7-0.1,2.2-0.2,3.4-0.3
	c1.2-0.1,2.7-0.3,3.3-0.4c0.6-0.1,1.7-0.3,2.3-0.4c1.9-0.3,5.5-1.4,7.5-2.3c6.9-3.1,10.9-8.5,13.5-17.9c0.5-2,2.1-8.5,2.4-10
	c0.2-1.1,1.6-5.9,2-6.8c0.1-0.3,0.3-0.7,0.3-0.9c1.5-5.2,8-12.8,16.2-18.9c3.9-2.9,8.5-9,10.5-14.1c6-14.9,2.5-30.3-8.4-37.7
	L160.7,0H80.3H0V69.8"/>
<path id="path1" class="st1" d="M161.9,0.5c14.7,9.9,17.9,37,6,51.8c-1.7,2.1-3.4,3.7-6.6,6.1c-8.7,6.5-14.4,15.4-16.3,25.3
	c-0.1,0.6-0.7,3-1.5,6.7c-2.6,11.2-6.3,16.7-13.5,20.3c-4.7,2.4-8.8,3.1-23.7,4.4c-9.7,0.8-15.7,2.5-20.8,5.9c-3,2-4.6,3.4-10.7,9.4
	c-4.9,4.7-9.8,8.2-15.2,10.7c-18.1,8.4-41,9-59.4,1.6c-0.3-0.1-0.3,0.5-0.3,12v12.1h200h200V83.3V0H280.5H161.1L161.9,0.5"/>
<linearGradient id="path2_1_" gradientUnits="userSpaceOnUse" x1="0" y1="75.1769" x2="175.165" y2="75.1769">
	<stop  offset="0" style="stop-color:#2C47B9"/>
	<stop  offset="1" style="stop-color:#2A2888"/>
</linearGradient>
<path id="path2" class="st2" d="M165.5,3.6c0.5,0.5,0.9,0.9,1,0.9c0,0-0.3-0.4-0.8-0.9c-0.5-0.5-0.9-0.9-1-0.9
	C164.6,2.7,165,3.1,165.5,3.6 M167.7,6.1c0.2,0.3,0.4,0.5,0.5,0.5c0.1,0-0.3-0.6-0.6-0.8C167.4,5.7,167.4,5.8,167.7,6.1 M170.1,10
	c6.7,13.5,2,33.3-10.1,42.5c-11.6,8.8-16,15.1-18.7,26.4c-0.6,2.4-1.2,5-1.5,6.5c-3.4,15.8-10.1,22.4-24.5,24.4
	c-3.5,0.5-4.3,0.6-7.3,0.8c-5.1,0.4-10.2,0.9-11.2,1.1c-0.5,0.1-1.6,0.3-2.4,0.4c-8.6,1.4-12.9,3.9-22.2,12.8
	c-12.9,12.4-24.3,17.7-41.9,19.4c-2,0.2-8.5,0.2-10.5,0c-2.4-0.2-5.7-0.6-6.6-0.8c-5.3-1.1-9-2.1-12.1-3.4c-0.5-0.2-1-0.4-1-0.4
	c0,0-0.1,0.6-0.1,1.3v1.3l1.7,0.7c18.9,7.3,44,5.7,61.2-3.8c4.3-2.4,7.9-5.1,11.9-9c6.2-6,7.7-7.3,10.7-9.4c5-3.4,11.1-5.1,20.8-5.9
	c14.9-1.3,19-2,23.7-4.4c7.2-3.6,10.9-9.1,13.5-20.3c0.9-3.7,1.4-6.1,1.5-6.7c1.9-9.8,7.6-18.7,16.3-25.3
	c9.5-7.1,13.8-16.1,13.8-28.5c0-7.8-2.6-17.3-5.8-21.6C169.2,8.1,169.5,8.9,170.1,10"/>
<path id="path3" class="st3" d="M165.4,3.7c0.5,0.5,1,1,1.1,1c0,0-0.4-0.4-0.9-1c-0.5-0.5-1-1-1.1-1C164.5,2.7,164.9,3.1,165.4,3.7
	 M171.9,14.7c0,0.1,0.1,0.4,0.1,0.6c0.1,0.2,0.1,0.2,0.1,0.1c0-0.1-0.1-0.4-0.1-0.6C171.9,14.5,171.9,14.5,171.9,14.7 M163.9,48.7
	l-0.7,0.7L163.9,48.7c0.4-0.3,0.8-0.6,0.8-0.7C164.7,47.9,164.5,48,163.9,48.7 M161.1,51.5l-0.7,0.7L161.1,51.5
	c0.4-0.3,0.8-0.6,0.8-0.7C161.8,50.8,161.7,50.9,161.1,51.5 M153.1,58.2l-0.8,0.9L153.1,58.2c0.9-0.7,1-0.9,0.9-0.9
	C153.9,57.3,153.5,57.7,153.1,58.2 M151,60.3l-1.1,1.1L151,60.3c0.7-0.5,1.2-1.1,1.2-1.1C152.2,59.1,152,59.2,151,60.3 M142.7,73.7
	c-0.1,0.3-0.2,0.6-0.1,0.6c0,0,0.1-0.2,0.3-0.5c0.1-0.3,0.2-0.6,0.1-0.6C142.9,73.2,142.8,73.4,142.7,73.7 M136.9,94.9
	c-0.3,0.6-0.2,0.7,0.1,0.2c0.1-0.3,0.2-0.5,0.2-0.5C137.1,94.5,137,94.7,136.9,94.9 M112.4,110.3c0.2,0,0.4,0,0.6,0
	c0.2,0,0-0.1-0.3-0.1C112.3,110.2,112.2,110.2,112.4,110.3 M111,110.5c0.2,0,0.5,0,0.7,0c0.2,0,0-0.1-0.4-0.1
	C110.9,110.4,110.8,110.4,111,110.5 M103,111.1c0.3,0,0.7,0,0.9,0c0.3,0,0-0.1-0.5-0.1S102.8,111.1,103,111.1 M101.5,111.3
	c0.2,0,0.5,0,0.7,0c0.2,0,0-0.1-0.4-0.1S101.3,111.2,101.5,111.3 M77.6,120l-0.5,0.5L77.6,120c0.6-0.4,0.7-0.5,0.5-0.5
	C78.1,119.5,77.8,119.7,77.6,120 M76.4,121l-0.5,0.5L76.4,121c0.6-0.4,0.7-0.5,0.5-0.5C76.9,120.5,76.7,120.7,76.4,121 M73.7,123.6
	c-0.7,0.7-1.2,1.3-1.2,1.3c0,0,0.6-0.6,1.3-1.3c0.7-0.7,1.2-1.3,1.2-1.3C74.9,122.3,74.3,122.9,73.7,123.6 M69.4,127.7l-1,1
	L69.4,127.7c0.6-0.5,1.1-1,1.1-1C70.5,126.6,70.3,126.7,69.4,127.7 M9.2,142.8c0.6,0.2,1,0.2,0.6,0c-0.2-0.1-0.5-0.1-0.7-0.1
	C8.8,142.7,8.8,142.7,9.2,142.8 M40.6,142.8c-0.4,0.2,0,0.2,0.6,0c0.3-0.1,0.4-0.1,0.1-0.1C41.1,142.7,40.8,142.8,40.6,142.8
	 M19,144.5c0.3,0,0.7,0,0.9,0c0.3,0,0-0.1-0.5-0.1S18.8,144.4,19,144.5 M30.4,144.5c0.3,0,0.6,0,0.8,0c0.2,0,0-0.1-0.5-0.1
	C30.3,144.4,30.1,144.4,30.4,144.5 M21.5,144.6c0.4,0,1,0,1.3,0s0-0.1-0.7-0.1C21.4,144.6,21.1,144.6,21.5,144.6 M27.5,144.6
	c0.3,0,0.9,0,1.3,0c0.3,0,0.1-0.1-0.6-0.1C27.5,144.6,27.2,144.6,27.5,144.6"/>
<path id="path4" class="st4" d="M172,15.7c0,0.1,0.1,0.4,0.1,0.6c0.1,0.2,0.1,0.2,0.1,0.1c0-0.1-0.1-0.4-0.1-0.6
	C172.1,15.5,172,15.5,172,15.7 M172.9,20.4c0,0.4,0,0.5,0.1,0.3c0-0.2,0-0.5,0-0.7C172.9,19.9,172.9,20,172.9,20.4 M173.1,22.3
	c0,0.6,0,0.9,0.1,0.5c0-0.3,0-0.9,0-1.2S173.1,21.6,173.1,22.3 M173.1,25.8c0,0.6,0,0.8,0.1,0.5s0-0.8,0-1.1S173.1,25.2,173.1,25.8
	 M172.9,27.7c0,0.4,0,0.6,0.1,0.4c0-0.2,0-0.5,0-0.8C172.9,27.1,172.9,27.3,172.9,27.7 M172.1,32.3c-0.1,0.3-0.1,0.6,0,0.6
	c0,0,0.1-0.2,0.2-0.5C172.4,31.8,172.2,31.6,172.1,32.3 M164.1,48.4l-0.5,0.5L164.1,48.4c0.4-0.2,0.6-0.5,0.6-0.5
	C164.7,47.8,164.5,47.9,164.1,48.4 M162.5,50.1c-0.4,0.4-0.7,0.8-0.7,0.8s0.4-0.3,0.8-0.8c0.4-0.4,0.7-0.8,0.7-0.8
	C163.3,49.3,162.9,49.7,162.5,50.1 M154.6,56.7l-0.7,0.7L154.6,56.7c0.4-0.3,0.8-0.6,0.8-0.7C155.3,55.9,155.2,56,154.6,56.7
	 M151.9,59.2l-1.7,1.7L151.9,59.2c1-0.9,1.8-1.6,1.8-1.7C153.7,57.4,153.5,57.6,151.9,59.2 M143.7,70.8c-0.3,0.6-0.2,0.7,0.1,0.2
	c0.1-0.3,0.2-0.5,0.2-0.5S143.8,70.5,143.7,70.8 M141.3,78.3c-0.1,0.3-0.1,0.6,0,0.6c0,0,0.1-0.2,0.2-0.5
	C141.5,77.8,141.4,77.7,141.3,78.3 M138.8,88.9c-0.1,0.2-0.1,0.5,0,0.5s0.1-0.1,0.2-0.4c0.1-0.2,0.1-0.5,0-0.5
	C138.9,88.5,138.8,88.7,138.8,88.9 M131.7,102.7l-0.7,0.7L131.7,102.7c0.7-0.6,0.8-0.7,0.7-0.7C132.4,102,132.1,102.3,131.7,102.7
	 M115.8,109.7c-0.6,0.2,0,0.2,0.8,0c0.4-0.1,0.5-0.1,0.1-0.1C116.4,109.5,116.1,109.6,115.8,109.7 M111.4,110.3c0.2,0,0.4,0,0.6,0
	c0.2,0,0-0.1-0.3-0.1C111.3,110.2,111.2,110.2,111.4,110.3 M109.6,110.5c0.2,0,0.5,0,0.8,0c0.2,0,0-0.1-0.4-0.1
	C109.6,110.4,109.4,110.4,109.6,110.5 M108.3,110.6c0.2,0,0.5,0,0.7,0c0.2,0,0-0.1-0.4-0.1C108.2,110.5,108.1,110.6,108.3,110.6
	 M104,110.9c0.2,0,0.4,0,0.6,0s0-0.1-0.3-0.1C104,110.9,103.9,110.9,104,110.9 M101.9,111.1c0.2,0,0.4,0,0.6,0c0.2,0,0-0.1-0.3-0.1
	C101.8,111,101.7,111.1,101.9,111.1 M100.1,111.3c0.2,0,0.5,0,0.8,0c0.2,0,0-0.1-0.4-0.1C100.1,111.2,99.9,111.2,100.1,111.3
	 M93.8,112.2c-0.4,0.2,0,0.2,0.6,0c0.3-0.1,0.4-0.1,0.1-0.1C94.2,112,93.9,112.1,93.8,112.2 M85.7,114.6c-0.2,0.1-0.3,0.2-0.3,0.2
	c0.1,0,0.4-0.1,0.6-0.2s0.3-0.2,0.3-0.2S85.9,114.5,85.7,114.6 M78.8,118.9l-0.7,0.6L78.8,118.9c0.7-0.4,0.9-0.6,0.7-0.6
	C79.4,118.3,79.1,118.6,78.8,118.9 M77.4,120l-0.5,0.5L77.4,120c0.6-0.4,0.7-0.5,0.5-0.5C77.9,119.5,77.7,119.7,77.4,120
	 M75.6,121.7l-0.7,0.7L75.6,121.7c0.7-0.6,0.8-0.7,0.7-0.7C76.3,121,75.9,121.3,75.6,121.7 M72.1,125l-1.7,1.7L72.1,125
	c1.6-1.5,1.8-1.7,1.7-1.7C73.8,123.3,73,124.1,72.1,125 M68.7,128.2l-0.8,0.9L68.7,128.2c0.5-0.4,0.9-0.8,0.9-0.8
	C69.7,127.3,69.5,127.4,68.7,128.2 M62.9,132.9l-0.5,0.4L62.9,132.9c0.3-0.1,0.6-0.3,0.6-0.4C63.5,132.4,63.4,132.5,62.9,132.9
	 M10.3,143c0.6,0.2,1,0.2,0.6,0c-0.2-0.1-0.5-0.1-0.7-0.1C10,142.9,10,142.9,10.3,143 M39.4,143c-0.4,0.2,0,0.2,0.6,0
	c0.3-0.1,0.4-0.1,0.1-0.1C39.9,142.9,39.6,142.9,39.4,143 M14.8,143.8c0.3,0.1,0.7,0.1,0.9,0.1c0.4,0,0.4,0-0.1-0.1
	c-0.3-0.1-0.7-0.1-0.9-0.1C14.3,143.7,14.3,143.7,14.8,143.8 M20.7,144.5c0.3,0,0.6,0,0.8,0c0.2,0,0-0.1-0.5-0.1
	C20.6,144.4,20.5,144.4,20.7,144.5 M28.7,144.5c0.3,0,0.7,0,0.9,0c0.3,0,0-0.1-0.5-0.1C28.7,144.4,28.5,144.4,28.7,144.5
	 M24.2,144.6c0.5,0,1.4,0,1.9,0s0.1-0.1-1-0.1C24.1,144.6,23.7,144.6,24.2,144.6"/>
</svg>
