<?xml version="1.0" encoding="utf-8"?>
<!-- Generator: Adobe Illustrator 23.0.1, SVG Export Plug-In . SVG Version: 6.00 Build 0)  -->
<svg version="1.1" id="Layer_4" xmlns="http://www.w3.org/2000/svg" xmlns:xlink="http://www.w3.org/1999/xlink" x="0px" y="0px"
	 viewBox="0 0 200 200" style="enable-background:new 0 0 200 200;" xml:space="preserve">
<style type="text/css">
	.st0{fill:#FFFFFF;}
	.st1{fill:#020202;}
	.st2{fill:#D98037;}
	.st3{fill:#B7692E;}
	.st4{fill:#AA571A;}
	.st5{fill:#63320E;}
</style>
<title>testimonial-2</title>
<rect class="st0" width="200" height="200"/>
<circle class="st1" cx="100" cy="92.1" r="59.2"/>
<path class="st2" d="M100,55c-19.2,0-49.7,10.9-49.7,62.2c0,29.6,11.5,43.6,15.7,48.9C69.9,171,89.8,187,100,187V55z"/>
<path class="st3" d="M40.7,129.4c-0.8-8.2,3.1-15.5,8.7-16.2s10.9,5.2,11.8,13.4s-3.1,15.5-8.7,16.2S41.6,137.6,40.7,129.4z"/>
<path class="st4" d="M99.8,55c19.2,0,49.7,10.9,49.7,62.2c0,29.6-11.5,43.6-15.7,48.9C129.9,171,110,187,99.8,187V55z"/>
<path class="st3" d="M159.3,129.4c0.8-8.2-3.1-15.5-8.7-16.2s-10.9,5.2-11.8,13.4s3.1,15.5,8.7,16.2S158.4,137.6,159.3,129.4z"/>
<path class="st5" d="M100,168.9c7.5,0,13.6-4.6,13.6-10.3H86.4C86.4,164.3,92.5,168.9,100,168.9z"/>
<path class="st1" d="M97.2,40.2c-35.2,0-45.9,30.8-45.9,45c-12.8,17.7,1.1,33.6,11,39.2v-8.7c0-11.5,10.9-22.1,27.3-20.3
	c14.7,1.6,23.9-6.7,31.7-20.8C131,55.7,118.9,40.2,97.2,40.2z"/>
<path class="st1" d="M119.8,68.8c0,0,8.2,33.4,30.7,44.4c4-30,6.4-23.7,0-39.5s-30.7-27.5-30.7-27.5V68.8z"/>
<circle class="st1" cx="100" cy="32.8" r="19.8"/>
</svg>
