<?xml version="1.0" encoding="utf-8"?>
<!-- Generator: Adobe Illustrator 23.0.1, SVG Export Plug-In . SVG Version: 6.00 Build 0)  -->
<svg version="1.1" id="Layer_4" xmlns="http://www.w3.org/2000/svg" xmlns:xlink="http://www.w3.org/1999/xlink" x="0px" y="0px"
	 viewBox="0 0 200 200" style="enable-background:new 0 0 200 200;" xml:space="preserve">
<style type="text/css">
	.st0{fill:#FFFFFF;}
	.st1{fill:#461811;}
	.st2{fill:#D98037;}
	.st3{fill:#B7692E;}
	.st4{fill:#AA571A;}
</style>
<title>testimonial-1</title>
<rect class="st0" width="200" height="200"/>
<path class="st1" d="M161.1,136.1c0,33.9-27.5,16.3-61.3,16.3l0,0c-33.9,0-61.3,17.6-61.3-16.3V80.6c0-33.9,27.5-61.3,61.3-61.3l0,0
	l0,0c33.9,0,61.3,27.5,61.3,61.3l0,0V136.1L161.1,136.1z"/>
<circle class="st1" cx="100" cy="81.1" r="62.6"/>
<path class="st2" d="M100,42c-20.3,0-52.5,11.6-52.5,65.7c0,31.3,12.2,46,16.6,51.7c4.1,5.2,25.1,22.1,35.8,22.1L100,42L100,42z"/>
<path class="st3" d="M37.4,120.6c-0.9-8.7,3.2-16.3,9.2-17.1s11.6,5.5,12.5,14.2s-3.2,16.3-9.2,17.1S38.3,129.2,37.4,120.6z"/>
<path class="st4" d="M99.8,42c20.3,0,52.5,11.6,52.5,65.7c0,31.3-12.2,46-16.6,51.7c-4.1,5.2-25.1,22.1-35.8,22.1
	C99.8,181.4,99.8,42,99.8,42z"/>
<path class="st3" d="M162.6,120.6c0.9-8.7-3.2-16.3-9.2-17.1s-11.6,5.5-12.4,14.2s3.2,16.3,9.2,17.1S161.7,129.2,162.6,120.6z"/>
<path class="st0" d="M100,162.3c7.9,0,14.3-4.9,14.3-10.9H85.7C85.7,157.5,92.1,162.3,100,162.3z"/>
<path class="st1" d="M97,26.4c-37.1,0-48.4,32.5-48.4,47.5c-13.5,18.7,1.2,35.5,11.6,41.3V106c0-12,11.5-23.2,28.8-21.4
	c15.5,1.7,25.3-7.1,33.5-22C132.7,42.7,120,26.4,97,26.4z"/>
<path class="st1" d="M120.9,56.5c0,0,8.7,35.2,32.4,46.9c4.2-31.7,6.7-25,0-41.7s-32.4-29.1-32.4-29.1V56.5z"/>
</svg>
